M48
; DRILL file {KiCad (6.0.7)} date Tue Aug  2 16:10:07 2022
; FORMAT={-:-/ absolute / metric / decimal}
; #@! TF.CreationDate,2022-08-02T16:10:07+02:00
; #@! TF.GenerationSoftware,Kicad,Pcbnew,(6.0.7)
; #@! TF.FileFunction,Plated,1,2,PTH
FMAT,2
METRIC
; #@! TA.AperFunction,Plated,PTH,ViaDrill
T1C0.400
; #@! TA.AperFunction,Plated,PTH,ViaDrill
T2C0.600
; #@! TA.AperFunction,Plated,PTH,ComponentDrill
T3C0.700
; #@! TA.AperFunction,Plated,PTH,ViaDrill
T4C0.800
; #@! TA.AperFunction,Plated,PTH,ComponentDrill
T5C0.800
; #@! TA.AperFunction,Plated,PTH,ComponentDrill
T6C0.900
; #@! TA.AperFunction,Plated,PTH,ComponentDrill
T7C1.000
; #@! TA.AperFunction,Plated,PTH,ComponentDrill
T8C1.020
; #@! TA.AperFunction,Plated,PTH,ComponentDrill
T9C1.500
; #@! TA.AperFunction,Plated,PTH,ComponentDrill
T10C1.600
; #@! TA.AperFunction,Plated,PTH,ComponentDrill
T11C3.200
%
G90
G05
T1
X32.1Y31.749
X35.6Y29.2
X36.4Y1.6
X36.9Y14.9
X38.4Y36.6
X39.5Y38.0
X39.6Y27.0
X41.0Y40.0
X41.1Y43.0
X42.1Y5.35
X42.4Y36.2
X43.1Y28.7
X43.4Y6.15
X43.9Y37.6
X44.3Y25.4
X44.47Y33.83
X44.7Y36.2
X45.8Y33.0
X46.0Y28.4
X46.58Y36.68
X46.9Y33.1
X48.4Y30.3
X50.2Y10.1
X50.4Y23.2
X51.1Y32.1
T2
X26.0Y15.0
X35.0Y13.5
T3
X5.46Y63.0
X5.46Y60.0
X5.46Y57.0
X5.75Y46.9
X5.85Y52.9
X8.25Y46.9
X8.35Y52.9
X10.54Y63.0
X10.54Y60.0
X10.54Y57.0
X21.76Y40.4
X21.76Y38.0
X21.76Y35.6
X21.76Y33.2
X26.84Y40.4
X26.84Y38.0
X26.84Y35.6
X26.84Y33.2
X29.46Y30.2
X29.46Y27.8
X29.46Y25.4
X30.0Y36.75
X30.0Y34.25
X30.15Y20.0
X32.65Y20.0
X34.0Y36.75
X34.0Y34.25
X34.54Y30.2
X34.54Y27.8
X34.54Y25.4
X37.0Y37.04
X37.0Y31.96
X43.75Y42.7
X46.25Y42.7
X52.45Y35.0
X54.95Y35.0
X55.6Y23.2
X55.6Y20.7
X56.05Y42.7
X56.05Y39.1
X58.55Y42.7
X58.55Y39.1
X59.1Y24.95
X59.1Y22.45
X60.25Y29.7
X62.6Y24.95
X62.6Y22.45
X62.75Y29.7
T4
X18.0Y7.5
X18.0Y4.0
X23.0Y7.5
X23.0Y4.0
T5
X31.55Y41.0
X36.43Y41.0
X37.85Y27.01
X37.85Y19.39
X41.425Y27.01
X41.425Y19.39
X45.0Y27.01
X45.0Y19.39
X48.575Y27.01
X48.575Y19.39
X49.99Y30.0
X50.045Y41.0
X52.045Y41.0
X52.15Y27.01
X52.15Y19.39
X57.61Y30.0
X58.245Y34.4
X60.245Y34.4
X65.745Y69.1
X67.745Y69.1
X71.818Y14.0
X74.318Y14.0
T6
X39.3Y15.89
X40.57Y13.35
X41.84Y15.89
X43.11Y13.35
X44.38Y15.89
X45.65Y13.35
X46.92Y15.89
X48.19Y13.35
X49.46Y15.89
X50.73Y13.35
X66.66Y58.0
X66.66Y55.98
X66.66Y42.5
X66.66Y40.48
X66.66Y27.0
X66.66Y24.98
X69.2Y59.02
X69.2Y57.0
X69.2Y43.52
X69.2Y41.5
X69.2Y28.02
X69.2Y26.0
T7
X13.14Y71.7
X13.14Y46.3
X15.68Y71.7
X15.68Y46.3
X18.22Y71.7
X18.22Y46.3
X20.76Y71.7
X20.76Y46.3
X23.3Y71.7
X23.3Y46.3
X25.84Y71.7
X25.84Y46.3
X28.38Y71.7
X28.38Y46.3
X30.92Y71.7
X30.92Y46.3
X33.46Y71.7
X33.46Y46.3
X36.0Y71.7
X36.0Y46.3
X38.54Y71.7
X38.54Y46.3
X41.08Y71.7
X41.08Y46.3
X43.62Y71.7
X43.62Y46.3
X46.16Y71.7
X46.16Y46.3
X48.7Y71.7
X48.7Y46.3
X51.24Y71.7
X51.24Y46.3
X53.78Y71.7
X53.78Y46.3
X56.32Y71.7
X56.32Y46.3
X58.86Y71.7
X58.86Y46.3
T8
X38.23Y4.46
X38.23Y2.43
X51.8Y4.46
X51.8Y2.43
T9
X59.5Y15.6
X59.5Y7.4
X64.5Y15.6
X64.5Y7.4
T10
X37.165Y10.05
X52.865Y10.05
T11
X8.0Y70.0
X8.0Y5.0
X73.0Y70.0
X73.0Y5.0
T0
M30
