%TF.GenerationSoftware,KiCad,Pcbnew,(6.0.7)*%
%TF.CreationDate,2022-08-02T16:10:14+02:00*%
%TF.ProjectId,school_meteo,7363686f-6f6c-45f6-9d65-74656f2e6b69,rev?*%
%TF.SameCoordinates,Original*%
%TF.FileFunction,Legend,Bot*%
%TF.FilePolarity,Positive*%
%FSLAX46Y46*%
G04 Gerber Fmt 4.6, Leading zero omitted, Abs format (unit mm)*
G04 Created by KiCad (PCBNEW (6.0.7)) date 2022-08-02 16:10:14*
%MOMM*%
%LPD*%
G01*
G04 APERTURE LIST*
%ADD10C,0.200000*%
%ADD11C,0.150000*%
G04 APERTURE END LIST*
D10*
X58125000Y4500000D02*
X58125000Y3750000D01*
X64500000Y18500000D02*
X66500000Y18500000D01*
X64500000Y65500000D02*
X64500000Y63500000D01*
X77250000Y18500000D02*
X77250000Y20500000D01*
X58125000Y1625000D02*
X58875000Y1625000D01*
X58125000Y2375000D02*
X58125000Y1625000D01*
X65750000Y3750000D02*
X65750000Y4500000D01*
X65750000Y1625000D02*
X65750000Y2375000D01*
X65750000Y4500000D02*
X65000000Y4500000D01*
X65000000Y1625000D02*
X65750000Y1625000D01*
X77250000Y63500000D02*
X77250000Y65500000D01*
X66500000Y65500000D02*
X64500000Y65500000D01*
X75250000Y18500000D02*
X77250000Y18500000D01*
X77250000Y65500000D02*
X75250000Y65500000D01*
X58875000Y4500000D02*
X58125000Y4500000D01*
X64500000Y20500000D02*
X64500000Y18500000D01*
X64985714Y45285714D02*
X65042857Y45114285D01*
X65042857Y44828571D01*
X64985714Y44714285D01*
X64928571Y44657142D01*
X64814285Y44600000D01*
X64700000Y44600000D01*
X64585714Y44657142D01*
X64528571Y44714285D01*
X64471428Y44828571D01*
X64414285Y45057142D01*
X64357142Y45171428D01*
X64300000Y45228571D01*
X64185714Y45285714D01*
X64071428Y45285714D01*
X63957142Y45228571D01*
X63900000Y45171428D01*
X63842857Y45057142D01*
X63842857Y44771428D01*
X63900000Y44600000D01*
X64985714Y43628571D02*
X65042857Y43742857D01*
X65042857Y43971428D01*
X64985714Y44085714D01*
X64871428Y44142857D01*
X64414285Y44142857D01*
X64300000Y44085714D01*
X64242857Y43971428D01*
X64242857Y43742857D01*
X64300000Y43628571D01*
X64414285Y43571428D01*
X64528571Y43571428D01*
X64642857Y44142857D01*
X64242857Y43057142D02*
X65042857Y43057142D01*
X64357142Y43057142D02*
X64300000Y43000000D01*
X64242857Y42885714D01*
X64242857Y42714285D01*
X64300000Y42600000D01*
X64414285Y42542857D01*
X65042857Y42542857D01*
X64985714Y42028571D02*
X65042857Y41914285D01*
X65042857Y41685714D01*
X64985714Y41571428D01*
X64871428Y41514285D01*
X64814285Y41514285D01*
X64700000Y41571428D01*
X64642857Y41685714D01*
X64642857Y41857142D01*
X64585714Y41971428D01*
X64471428Y42028571D01*
X64414285Y42028571D01*
X64300000Y41971428D01*
X64242857Y41857142D01*
X64242857Y41685714D01*
X64300000Y41571428D01*
X65042857Y40828571D02*
X64985714Y40942857D01*
X64928571Y41000000D01*
X64814285Y41057142D01*
X64471428Y41057142D01*
X64357142Y41000000D01*
X64300000Y40942857D01*
X64242857Y40828571D01*
X64242857Y40657142D01*
X64300000Y40542857D01*
X64357142Y40485714D01*
X64471428Y40428571D01*
X64814285Y40428571D01*
X64928571Y40485714D01*
X64985714Y40542857D01*
X65042857Y40657142D01*
X65042857Y40828571D01*
X65042857Y39914285D02*
X64242857Y39914285D01*
X64471428Y39914285D02*
X64357142Y39857142D01*
X64300000Y39800000D01*
X64242857Y39685714D01*
X64242857Y39571428D01*
X64985714Y39228571D02*
X65042857Y39114285D01*
X65042857Y38885714D01*
X64985714Y38771428D01*
X64871428Y38714285D01*
X64814285Y38714285D01*
X64700000Y38771428D01*
X64642857Y38885714D01*
X64642857Y39057142D01*
X64585714Y39171428D01*
X64471428Y39228571D01*
X64414285Y39228571D01*
X64300000Y39171428D01*
X64242857Y39057142D01*
X64242857Y38885714D01*
X64300000Y38771428D01*
D11*
X73952380Y43571428D02*
X74952380Y43333333D01*
X74238095Y43142857D01*
X74952380Y42952380D01*
X73952380Y42714285D01*
X74952380Y42333333D02*
X74285714Y42333333D01*
X73952380Y42333333D02*
X74000000Y42380952D01*
X74047619Y42333333D01*
X74000000Y42285714D01*
X73952380Y42333333D01*
X74047619Y42333333D01*
X74285714Y41857142D02*
X74952380Y41857142D01*
X74380952Y41857142D02*
X74333333Y41809523D01*
X74285714Y41714285D01*
X74285714Y41571428D01*
X74333333Y41476190D01*
X74428571Y41428571D01*
X74952380Y41428571D01*
X74952380Y40523809D02*
X73952380Y40523809D01*
X74904761Y40523809D02*
X74952380Y40619047D01*
X74952380Y40809523D01*
X74904761Y40904761D01*
X74857142Y40952380D01*
X74761904Y41000000D01*
X74476190Y41000000D01*
X74380952Y40952380D01*
X74333333Y40904761D01*
X74285714Y40809523D01*
X74285714Y40619047D01*
X74333333Y40523809D01*
X76514761Y48642857D02*
X76562380Y48547619D01*
X76562380Y48357142D01*
X76514761Y48261904D01*
X76419523Y48214285D01*
X76371904Y48214285D01*
X76276666Y48261904D01*
X76229047Y48357142D01*
X76229047Y48500000D01*
X76181428Y48595238D01*
X76086190Y48642857D01*
X76038571Y48642857D01*
X75943333Y48595238D01*
X75895714Y48500000D01*
X75895714Y48357142D01*
X75943333Y48261904D01*
X75895714Y47785714D02*
X76895714Y47785714D01*
X75943333Y47785714D02*
X75895714Y47690476D01*
X75895714Y47500000D01*
X75943333Y47404761D01*
X75990952Y47357142D01*
X76086190Y47309523D01*
X76371904Y47309523D01*
X76467142Y47357142D01*
X76514761Y47404761D01*
X76562380Y47500000D01*
X76562380Y47690476D01*
X76514761Y47785714D01*
X76514761Y46500000D02*
X76562380Y46595238D01*
X76562380Y46785714D01*
X76514761Y46880952D01*
X76419523Y46928571D01*
X76038571Y46928571D01*
X75943333Y46880952D01*
X75895714Y46785714D01*
X75895714Y46595238D01*
X75943333Y46500000D01*
X76038571Y46452380D01*
X76133809Y46452380D01*
X76229047Y46928571D01*
X76514761Y45642857D02*
X76562380Y45738095D01*
X76562380Y45928571D01*
X76514761Y46023809D01*
X76419523Y46071428D01*
X76038571Y46071428D01*
X75943333Y46023809D01*
X75895714Y45928571D01*
X75895714Y45738095D01*
X75943333Y45642857D01*
X76038571Y45595238D01*
X76133809Y45595238D01*
X76229047Y46071428D01*
X76562380Y44738095D02*
X75562380Y44738095D01*
X76514761Y44738095D02*
X76562380Y44833333D01*
X76562380Y45023809D01*
X76514761Y45119047D01*
X76467142Y45166666D01*
X76371904Y45214285D01*
X76086190Y45214285D01*
X75990952Y45166666D01*
X75943333Y45119047D01*
X75895714Y45023809D01*
X75895714Y44833333D01*
X75943333Y44738095D01*
X76562380Y42690476D02*
X76562380Y42738095D01*
X76514761Y42833333D01*
X76371904Y42976190D01*
X76086190Y43214285D01*
X75943333Y43309523D01*
X75800476Y43357142D01*
X75705238Y43357142D01*
X75610000Y43309523D01*
X75562380Y43214285D01*
X75562380Y43166666D01*
X75610000Y43071428D01*
X75705238Y43023809D01*
X75752857Y43023809D01*
X75848095Y43071428D01*
X75895714Y43119047D01*
X76086190Y43404761D01*
X76133809Y43452380D01*
X76229047Y43500000D01*
X76371904Y43500000D01*
X76467142Y43452380D01*
X76514761Y43404761D01*
X76562380Y43309523D01*
X76562380Y43166666D01*
X76514761Y43071428D01*
X76467142Y43023809D01*
X76276666Y42880952D01*
X76133809Y42833333D01*
X76038571Y42833333D01*
X76562380Y41071428D02*
X75562380Y41071428D01*
X76514761Y41071428D02*
X76562380Y41166666D01*
X76562380Y41357142D01*
X76514761Y41452380D01*
X76467142Y41500000D01*
X76371904Y41547619D01*
X76086190Y41547619D01*
X75990952Y41500000D01*
X75943333Y41452380D01*
X75895714Y41357142D01*
X75895714Y41166666D01*
X75943333Y41071428D01*
X76562380Y40595238D02*
X75895714Y40595238D01*
X75562380Y40595238D02*
X75610000Y40642857D01*
X75657619Y40595238D01*
X75610000Y40547619D01*
X75562380Y40595238D01*
X75657619Y40595238D01*
X76562380Y40119047D02*
X75895714Y40119047D01*
X76086190Y40119047D02*
X75990952Y40071428D01*
X75943333Y40023809D01*
X75895714Y39928571D01*
X75895714Y39833333D01*
X76514761Y39119047D02*
X76562380Y39214285D01*
X76562380Y39404761D01*
X76514761Y39500000D01*
X76419523Y39547619D01*
X76038571Y39547619D01*
X75943333Y39500000D01*
X75895714Y39404761D01*
X75895714Y39214285D01*
X75943333Y39119047D01*
X76038571Y39071428D01*
X76133809Y39071428D01*
X76229047Y39547619D01*
X76514761Y38214285D02*
X76562380Y38309523D01*
X76562380Y38500000D01*
X76514761Y38595238D01*
X76467142Y38642857D01*
X76371904Y38690476D01*
X76086190Y38690476D01*
X75990952Y38642857D01*
X75943333Y38595238D01*
X75895714Y38500000D01*
X75895714Y38309523D01*
X75943333Y38214285D01*
X75895714Y37928571D02*
X75895714Y37547619D01*
X75562380Y37785714D02*
X76419523Y37785714D01*
X76514761Y37738095D01*
X76562380Y37642857D01*
X76562380Y37547619D01*
X76562380Y37214285D02*
X75895714Y37214285D01*
X75562380Y37214285D02*
X75610000Y37261904D01*
X75657619Y37214285D01*
X75610000Y37166666D01*
X75562380Y37214285D01*
X75657619Y37214285D01*
X76562380Y36595238D02*
X76514761Y36690476D01*
X76467142Y36738095D01*
X76371904Y36785714D01*
X76086190Y36785714D01*
X75990952Y36738095D01*
X75943333Y36690476D01*
X75895714Y36595238D01*
X75895714Y36452380D01*
X75943333Y36357142D01*
X75990952Y36309523D01*
X76086190Y36261904D01*
X76371904Y36261904D01*
X76467142Y36309523D01*
X76514761Y36357142D01*
X76562380Y36452380D01*
X76562380Y36595238D01*
X75895714Y35833333D02*
X76562380Y35833333D01*
X75990952Y35833333D02*
X75943333Y35785714D01*
X75895714Y35690476D01*
X75895714Y35547619D01*
X75943333Y35452380D01*
X76038571Y35404761D01*
X76562380Y35404761D01*
X76562380Y28595238D02*
X76086190Y28928571D01*
X76562380Y29166666D02*
X75562380Y29166666D01*
X75562380Y28785714D01*
X75610000Y28690476D01*
X75657619Y28642857D01*
X75752857Y28595238D01*
X75895714Y28595238D01*
X75990952Y28642857D01*
X76038571Y28690476D01*
X76086190Y28785714D01*
X76086190Y29166666D01*
X76562380Y27738095D02*
X76038571Y27738095D01*
X75943333Y27785714D01*
X75895714Y27880952D01*
X75895714Y28071428D01*
X75943333Y28166666D01*
X76514761Y27738095D02*
X76562380Y27833333D01*
X76562380Y28071428D01*
X76514761Y28166666D01*
X76419523Y28214285D01*
X76324285Y28214285D01*
X76229047Y28166666D01*
X76181428Y28071428D01*
X76181428Y27833333D01*
X76133809Y27738095D01*
X76562380Y27261904D02*
X75895714Y27261904D01*
X75562380Y27261904D02*
X75610000Y27309523D01*
X75657619Y27261904D01*
X75610000Y27214285D01*
X75562380Y27261904D01*
X75657619Y27261904D01*
X75895714Y26785714D02*
X76562380Y26785714D01*
X75990952Y26785714D02*
X75943333Y26738095D01*
X75895714Y26642857D01*
X75895714Y26500000D01*
X75943333Y26404761D01*
X76038571Y26357142D01*
X76562380Y26357142D01*
X75895714Y26023809D02*
X75895714Y25642857D01*
X76562380Y25880952D02*
X75705238Y25880952D01*
X75610000Y25833333D01*
X75562380Y25738095D01*
X75562380Y25642857D01*
X76562380Y24880952D02*
X76038571Y24880952D01*
X75943333Y24928571D01*
X75895714Y25023809D01*
X75895714Y25214285D01*
X75943333Y25309523D01*
X76514761Y24880952D02*
X76562380Y24976190D01*
X76562380Y25214285D01*
X76514761Y25309523D01*
X76419523Y25357142D01*
X76324285Y25357142D01*
X76229047Y25309523D01*
X76181428Y25214285D01*
X76181428Y24976190D01*
X76133809Y24880952D01*
X76562380Y24261904D02*
X76514761Y24357142D01*
X76419523Y24404761D01*
X75562380Y24404761D01*
X76562380Y23738095D02*
X76514761Y23833333D01*
X76419523Y23880952D01*
X75562380Y23880952D01*
X64523809Y3214285D02*
X64523809Y2547619D01*
X64761904Y3595238D02*
X65000000Y2880952D01*
X64380952Y2880952D01*
X64000000Y2642857D02*
X63952380Y2595238D01*
X64000000Y2547619D01*
X64047619Y2595238D01*
X64000000Y2642857D01*
X64000000Y2547619D01*
X63047619Y3547619D02*
X63523809Y3547619D01*
X63571428Y3071428D01*
X63523809Y3119047D01*
X63428571Y3166666D01*
X63190476Y3166666D01*
X63095238Y3119047D01*
X63047619Y3071428D01*
X63000000Y2976190D01*
X63000000Y2738095D01*
X63047619Y2642857D01*
X63095238Y2595238D01*
X63190476Y2547619D01*
X63428571Y2547619D01*
X63523809Y2595238D01*
X63571428Y2642857D01*
X62571428Y2928571D02*
X61809523Y2928571D01*
X60904761Y3547619D02*
X61095238Y3547619D01*
X61190476Y3500000D01*
X61238095Y3452380D01*
X61333333Y3309523D01*
X61380952Y3119047D01*
X61380952Y2738095D01*
X61333333Y2642857D01*
X61285714Y2595238D01*
X61190476Y2547619D01*
X61000000Y2547619D01*
X60904761Y2595238D01*
X60857142Y2642857D01*
X60809523Y2738095D01*
X60809523Y2976190D01*
X60857142Y3071428D01*
X60904761Y3119047D01*
X61000000Y3166666D01*
X61190476Y3166666D01*
X61285714Y3119047D01*
X61333333Y3071428D01*
X61380952Y2976190D01*
X60190476Y3547619D02*
X60095238Y3547619D01*
X60000000Y3500000D01*
X59952380Y3452380D01*
X59904761Y3357142D01*
X59857142Y3166666D01*
X59857142Y2928571D01*
X59904761Y2738095D01*
X59952380Y2642857D01*
X60000000Y2595238D01*
X60095238Y2547619D01*
X60190476Y2547619D01*
X60285714Y2595238D01*
X60333333Y2642857D01*
X60380952Y2738095D01*
X60428571Y2928571D01*
X60428571Y3166666D01*
X60380952Y3357142D01*
X60333333Y3452380D01*
X60285714Y3500000D01*
X60190476Y3547619D01*
X59571428Y3547619D02*
X59238095Y2547619D01*
X58904761Y3547619D01*
X73342380Y60500000D02*
X72342380Y60500000D01*
X72342380Y60119047D01*
X72390000Y60023809D01*
X72437619Y59976190D01*
X72532857Y59928571D01*
X72675714Y59928571D01*
X72770952Y59976190D01*
X72818571Y60023809D01*
X72866190Y60119047D01*
X72866190Y60500000D01*
X73342380Y59500000D02*
X72675714Y59500000D01*
X72866190Y59500000D02*
X72770952Y59452380D01*
X72723333Y59404761D01*
X72675714Y59309523D01*
X72675714Y59214285D01*
X73294761Y58500000D02*
X73342380Y58595238D01*
X73342380Y58785714D01*
X73294761Y58880952D01*
X73199523Y58928571D01*
X72818571Y58928571D01*
X72723333Y58880952D01*
X72675714Y58785714D01*
X72675714Y58595238D01*
X72723333Y58500000D01*
X72818571Y58452380D01*
X72913809Y58452380D01*
X73009047Y58928571D01*
X73294761Y58071428D02*
X73342380Y57976190D01*
X73342380Y57785714D01*
X73294761Y57690476D01*
X73199523Y57642857D01*
X73151904Y57642857D01*
X73056666Y57690476D01*
X73009047Y57785714D01*
X73009047Y57928571D01*
X72961428Y58023809D01*
X72866190Y58071428D01*
X72818571Y58071428D01*
X72723333Y58023809D01*
X72675714Y57928571D01*
X72675714Y57785714D01*
X72723333Y57690476D01*
X73294761Y57261904D02*
X73342380Y57166666D01*
X73342380Y56976190D01*
X73294761Y56880952D01*
X73199523Y56833333D01*
X73151904Y56833333D01*
X73056666Y56880952D01*
X73009047Y56976190D01*
X73009047Y57119047D01*
X72961428Y57214285D01*
X72866190Y57261904D01*
X72818571Y57261904D01*
X72723333Y57214285D01*
X72675714Y57119047D01*
X72675714Y56976190D01*
X72723333Y56880952D01*
X72675714Y55976190D02*
X73342380Y55976190D01*
X72675714Y56404761D02*
X73199523Y56404761D01*
X73294761Y56357142D01*
X73342380Y56261904D01*
X73342380Y56119047D01*
X73294761Y56023809D01*
X73247142Y55976190D01*
X73342380Y55500000D02*
X72675714Y55500000D01*
X72866190Y55500000D02*
X72770952Y55452380D01*
X72723333Y55404761D01*
X72675714Y55309523D01*
X72675714Y55214285D01*
X73294761Y54500000D02*
X73342380Y54595238D01*
X73342380Y54785714D01*
X73294761Y54880952D01*
X73199523Y54928571D01*
X72818571Y54928571D01*
X72723333Y54880952D01*
X72675714Y54785714D01*
X72675714Y54595238D01*
X72723333Y54500000D01*
X72818571Y54452380D01*
X72913809Y54452380D01*
X73009047Y54928571D01*
X73952380Y62000000D02*
X73952380Y61428571D01*
X74952380Y61714285D02*
X73952380Y61714285D01*
X74904761Y60714285D02*
X74952380Y60809523D01*
X74952380Y61000000D01*
X74904761Y61095238D01*
X74809523Y61142857D01*
X74428571Y61142857D01*
X74333333Y61095238D01*
X74285714Y61000000D01*
X74285714Y60809523D01*
X74333333Y60714285D01*
X74428571Y60666666D01*
X74523809Y60666666D01*
X74619047Y61142857D01*
X74952380Y60238095D02*
X74285714Y60238095D01*
X74380952Y60238095D02*
X74333333Y60190476D01*
X74285714Y60095238D01*
X74285714Y59952380D01*
X74333333Y59857142D01*
X74428571Y59809523D01*
X74952380Y59809523D01*
X74428571Y59809523D02*
X74333333Y59761904D01*
X74285714Y59666666D01*
X74285714Y59523809D01*
X74333333Y59428571D01*
X74428571Y59380952D01*
X74952380Y59380952D01*
X74285714Y58904761D02*
X75285714Y58904761D01*
X74333333Y58904761D02*
X74285714Y58809523D01*
X74285714Y58619047D01*
X74333333Y58523809D01*
X74380952Y58476190D01*
X74476190Y58428571D01*
X74761904Y58428571D01*
X74857142Y58476190D01*
X74904761Y58523809D01*
X74952380Y58619047D01*
X74952380Y58809523D01*
X74904761Y58904761D01*
X74904761Y57619047D02*
X74952380Y57714285D01*
X74952380Y57904761D01*
X74904761Y58000000D01*
X74809523Y58047619D01*
X74428571Y58047619D01*
X74333333Y58000000D01*
X74285714Y57904761D01*
X74285714Y57714285D01*
X74333333Y57619047D01*
X74428571Y57571428D01*
X74523809Y57571428D01*
X74619047Y58047619D01*
X74952380Y57142857D02*
X74285714Y57142857D01*
X74476190Y57142857D02*
X74380952Y57095238D01*
X74333333Y57047619D01*
X74285714Y56952380D01*
X74285714Y56857142D01*
X74952380Y56095238D02*
X74428571Y56095238D01*
X74333333Y56142857D01*
X74285714Y56238095D01*
X74285714Y56428571D01*
X74333333Y56523809D01*
X74904761Y56095238D02*
X74952380Y56190476D01*
X74952380Y56428571D01*
X74904761Y56523809D01*
X74809523Y56571428D01*
X74714285Y56571428D01*
X74619047Y56523809D01*
X74571428Y56428571D01*
X74571428Y56190476D01*
X74523809Y56095238D01*
X74285714Y55761904D02*
X74285714Y55380952D01*
X73952380Y55619047D02*
X74809523Y55619047D01*
X74904761Y55571428D01*
X74952380Y55476190D01*
X74952380Y55380952D01*
X74285714Y54619047D02*
X74952380Y54619047D01*
X74285714Y55047619D02*
X74809523Y55047619D01*
X74904761Y55000000D01*
X74952380Y54904761D01*
X74952380Y54761904D01*
X74904761Y54666666D01*
X74857142Y54619047D01*
X74952380Y54142857D02*
X74285714Y54142857D01*
X74476190Y54142857D02*
X74380952Y54095238D01*
X74333333Y54047619D01*
X74285714Y53952380D01*
X74285714Y53857142D01*
X74904761Y53142857D02*
X74952380Y53238095D01*
X74952380Y53428571D01*
X74904761Y53523809D01*
X74809523Y53571428D01*
X74428571Y53571428D01*
X74333333Y53523809D01*
X74285714Y53428571D01*
X74285714Y53238095D01*
X74333333Y53142857D01*
X74428571Y53095238D01*
X74523809Y53095238D01*
X74619047Y53571428D01*
X76562380Y60500000D02*
X75562380Y60500000D01*
X76038571Y60500000D02*
X76038571Y59928571D01*
X76562380Y59928571D02*
X75562380Y59928571D01*
X75895714Y59023809D02*
X76562380Y59023809D01*
X75895714Y59452380D02*
X76419523Y59452380D01*
X76514761Y59404761D01*
X76562380Y59309523D01*
X76562380Y59166666D01*
X76514761Y59071428D01*
X76467142Y59023809D01*
X76562380Y58547619D02*
X75895714Y58547619D01*
X75990952Y58547619D02*
X75943333Y58500000D01*
X75895714Y58404761D01*
X75895714Y58261904D01*
X75943333Y58166666D01*
X76038571Y58119047D01*
X76562380Y58119047D01*
X76038571Y58119047D02*
X75943333Y58071428D01*
X75895714Y57976190D01*
X75895714Y57833333D01*
X75943333Y57738095D01*
X76038571Y57690476D01*
X76562380Y57690476D01*
X76562380Y57214285D02*
X75895714Y57214285D01*
X75562380Y57214285D02*
X75610000Y57261904D01*
X75657619Y57214285D01*
X75610000Y57166666D01*
X75562380Y57214285D01*
X75657619Y57214285D01*
X76562380Y56309523D02*
X75562380Y56309523D01*
X76514761Y56309523D02*
X76562380Y56404761D01*
X76562380Y56595238D01*
X76514761Y56690476D01*
X76467142Y56738095D01*
X76371904Y56785714D01*
X76086190Y56785714D01*
X75990952Y56738095D01*
X75943333Y56690476D01*
X75895714Y56595238D01*
X75895714Y56404761D01*
X75943333Y56309523D01*
X76562380Y55833333D02*
X75895714Y55833333D01*
X75562380Y55833333D02*
X75610000Y55880952D01*
X75657619Y55833333D01*
X75610000Y55785714D01*
X75562380Y55833333D01*
X75657619Y55833333D01*
X75895714Y55500000D02*
X75895714Y55119047D01*
X75562380Y55357142D02*
X76419523Y55357142D01*
X76514761Y55309523D01*
X76562380Y55214285D01*
X76562380Y55119047D01*
X75895714Y54880952D02*
X76562380Y54642857D01*
X75895714Y54404761D02*
X76562380Y54642857D01*
X76800476Y54738095D01*
X76848095Y54785714D01*
X76895714Y54880952D01*
%TO.C,REF\u002A\u002A*%
G36*
X35211747Y62957556D02*
G01*
X35219767Y62926921D01*
X35217928Y62884378D01*
X35197369Y62867664D01*
X35146808Y62866771D01*
X35104696Y62896013D01*
X35104024Y62926173D01*
X35138540Y62969190D01*
X35156673Y62981822D01*
X35191018Y62991898D01*
X35211747Y62957556D01*
G37*
G36*
X35202501Y62793606D02*
G01*
X35245842Y62753864D01*
X35266705Y62712052D01*
X35255878Y62698605D01*
X35208780Y62688882D01*
X35171335Y62698402D01*
X35150855Y62746807D01*
X35155186Y62780426D01*
X35174025Y62804732D01*
X35202501Y62793606D01*
G37*
G36*
X34596604Y62036624D02*
G01*
X34579102Y61919183D01*
X34536781Y61751877D01*
X34479710Y61606215D01*
X34412959Y61494290D01*
X34341596Y61428194D01*
X34340970Y61427856D01*
X34275429Y61404960D01*
X34192119Y61391077D01*
X34109615Y61387113D01*
X34046492Y61393974D01*
X34021323Y61412566D01*
X34023097Y61418994D01*
X34055389Y61456648D01*
X34115451Y61504048D01*
X34140738Y61521828D01*
X34235873Y61596412D01*
X34318143Y61671795D01*
X34375984Y61736686D01*
X34397834Y61779794D01*
X34397320Y61782899D01*
X34369594Y61820262D01*
X34307980Y61878232D01*
X34224166Y61945649D01*
X34160068Y61993278D01*
X34088209Y62040225D01*
X34027411Y62063408D01*
X33956649Y62069673D01*
X33854896Y62065865D01*
X33754084Y62058424D01*
X33662529Y62047485D01*
X33608314Y62035928D01*
X33546917Y62039905D01*
X33461162Y62089678D01*
X33364989Y62163032D01*
X33217964Y62060558D01*
X33211553Y62056125D01*
X33107738Y61996474D01*
X33038592Y61979251D01*
X33006217Y61999186D01*
X33012713Y62051009D01*
X33060182Y62129449D01*
X33150724Y62229236D01*
X33259758Y62319979D01*
X33802367Y62319979D01*
X33812890Y62285021D01*
X33862030Y62276890D01*
X33894687Y62281038D01*
X33978711Y62290843D01*
X34079248Y62301933D01*
X34180395Y62306447D01*
X34390593Y62273810D01*
X34453051Y62256005D01*
X34517614Y62239935D01*
X34542646Y62237205D01*
X34542585Y62237914D01*
X34532851Y62271550D01*
X34511525Y62335075D01*
X34506897Y62347747D01*
X34477219Y62399264D01*
X34426464Y62430912D01*
X34336326Y62455246D01*
X34272909Y62467791D01*
X34126155Y62484007D01*
X34008895Y62472374D01*
X33905022Y62432024D01*
X33882903Y62418892D01*
X33826894Y62368893D01*
X33802367Y62319979D01*
X33259758Y62319979D01*
X33328334Y62377051D01*
X33554506Y62504216D01*
X33794806Y62575967D01*
X33862924Y62588941D01*
X33936660Y62608027D01*
X33966276Y62626886D01*
X33960224Y62649264D01*
X33915301Y62681537D01*
X33813754Y62705154D01*
X33663438Y62706285D01*
X33462822Y62684915D01*
X33210377Y62641026D01*
X33137971Y62626706D01*
X33218616Y62700707D01*
X33295247Y62752287D01*
X33422245Y62807816D01*
X33574826Y62854774D01*
X33735751Y62887970D01*
X33887784Y62902214D01*
X34005620Y62898884D01*
X34112513Y62876003D01*
X34228740Y62825448D01*
X34296207Y62796381D01*
X34425633Y62752457D01*
X34581991Y62708523D01*
X34747785Y62669827D01*
X34764962Y62666236D01*
X34899734Y62637340D01*
X35011267Y62612193D01*
X35088386Y62593385D01*
X35119913Y62583511D01*
X35120032Y62566257D01*
X35086751Y62521184D01*
X35024191Y62460976D01*
X34943702Y62395375D01*
X34856636Y62334121D01*
X34774345Y62286957D01*
X34671638Y62237205D01*
X34615052Y62209794D01*
X34596604Y62036624D01*
G37*
G36*
X31010244Y62181821D02*
G01*
X31096363Y62131357D01*
X31116668Y62117412D01*
X31162829Y62082113D01*
X31197763Y62043477D01*
X31229364Y61988780D01*
X31265525Y61905298D01*
X31314139Y61780306D01*
X31390390Y61581308D01*
X31315663Y61341631D01*
X31304456Y61304801D01*
X31272061Y61186986D01*
X31249440Y61087128D01*
X31240935Y61023703D01*
X31240935Y60945452D01*
X31146808Y61003723D01*
X31109186Y61028933D01*
X31006500Y61130372D01*
X30940740Y61262729D01*
X30905982Y61436653D01*
X30898554Y61517827D01*
X30898305Y61604013D01*
X30913455Y61670034D01*
X30946992Y61737817D01*
X31008761Y61845143D01*
X30934989Y61903172D01*
X30919151Y61915893D01*
X30882641Y61955355D01*
X30875814Y62001648D01*
X30892899Y62078862D01*
X30917037Y62148767D01*
X30954146Y62188573D01*
X31010244Y62181821D01*
G37*
G36*
X32355200Y61453730D02*
G01*
X32410022Y61423398D01*
X32497906Y61358845D01*
X32500353Y61356953D01*
X32604681Y61270603D01*
X32702904Y61179549D01*
X32785210Y61093977D01*
X32841788Y61024072D01*
X32862828Y60980019D01*
X32861966Y60968006D01*
X32850914Y60954970D01*
X32819019Y60960661D01*
X32756200Y60987935D01*
X32652373Y61039651D01*
X32636901Y61047558D01*
X32472898Y61139494D01*
X32361503Y61221066D01*
X32299491Y61296068D01*
X32283636Y61368293D01*
X32310715Y61441534D01*
X32323375Y61454289D01*
X32355200Y61453730D01*
G37*
G36*
X29607498Y61615942D02*
G01*
X29633524Y61588312D01*
X29638049Y61577093D01*
X29620752Y61559350D01*
X29612345Y61560463D01*
X29590080Y61588312D01*
X29590412Y61594867D01*
X29602852Y61617275D01*
X29607498Y61615942D01*
G37*
G36*
X29799514Y61326538D02*
G01*
X29821779Y61298689D01*
X29821447Y61292134D01*
X29809007Y61269726D01*
X29804361Y61271059D01*
X29778335Y61298689D01*
X29773810Y61309908D01*
X29791107Y61327651D01*
X29799514Y61326538D01*
G37*
G36*
X29140523Y60887689D02*
G01*
X29155644Y60848063D01*
X29151477Y60827375D01*
X29126682Y60820809D01*
X29118772Y60826737D01*
X29097720Y60865962D01*
X29098549Y60872428D01*
X29126682Y60893215D01*
X29140523Y60887689D01*
G37*
G36*
X38111715Y60283893D02*
G01*
X38133980Y60256043D01*
X38133648Y60249489D01*
X38121208Y60227081D01*
X38116562Y60228414D01*
X38090536Y60256043D01*
X38086011Y60267262D01*
X38103308Y60285006D01*
X38111715Y60283893D01*
G37*
G36*
X37812454Y60255203D02*
G01*
X37843454Y60231294D01*
X37825835Y60189252D01*
X37813777Y60181914D01*
X37776632Y60190971D01*
X37757469Y60228790D01*
X37762357Y60241311D01*
X37800912Y60256043D01*
X37812454Y60255203D01*
G37*
G36*
X38517123Y59634953D02*
G01*
X38527607Y59607714D01*
X38524830Y59560717D01*
X38519067Y59552940D01*
X38481528Y59531984D01*
X38452142Y59542053D01*
X38434782Y59583954D01*
X38455138Y59636451D01*
X38463823Y59646647D01*
X38492266Y59665335D01*
X38517123Y59634953D01*
G37*
G36*
X38750105Y59527816D02*
G01*
X38756671Y59503022D01*
X38750743Y59495112D01*
X38711518Y59474059D01*
X38705052Y59474888D01*
X38684265Y59503022D01*
X38689791Y59516863D01*
X38729418Y59531984D01*
X38750105Y59527816D01*
G37*
G36*
X38494852Y59353308D02*
G01*
X38510491Y59314766D01*
X38507223Y59294781D01*
X38481528Y59271323D01*
X38468205Y59276224D01*
X38452566Y59314766D01*
X38455833Y59334751D01*
X38481528Y59358210D01*
X38494852Y59353308D01*
G37*
G36*
X28908307Y58368588D02*
G01*
X28923946Y58330045D01*
X28920678Y58310060D01*
X28894983Y58286602D01*
X28881660Y58291503D01*
X28866021Y58330045D01*
X28869288Y58350031D01*
X28894983Y58373489D01*
X28908307Y58368588D01*
G37*
G36*
X38747694Y58225410D02*
G01*
X38771152Y58199715D01*
X38766251Y58186391D01*
X38727708Y58170752D01*
X38707723Y58174020D01*
X38684265Y58199715D01*
X38689166Y58213038D01*
X38727708Y58228677D01*
X38747694Y58225410D01*
G37*
G36*
X38407038Y57871403D02*
G01*
X38423788Y57830974D01*
X38404295Y57784587D01*
X38387271Y57771106D01*
X38351210Y57772748D01*
X38336716Y57823204D01*
X38344780Y57856983D01*
X38380160Y57881129D01*
X38407038Y57871403D01*
G37*
G36*
X38105017Y57605986D02*
G01*
X38090536Y57591505D01*
X38076055Y57605986D01*
X38090536Y57620467D01*
X38105017Y57605986D01*
G37*
G36*
X37502665Y57515479D02*
G01*
X37511880Y57506300D01*
X37525770Y57459465D01*
X37505827Y57425077D01*
X37462270Y57420738D01*
X37422400Y57449931D01*
X37421761Y57451015D01*
X37425754Y57488461D01*
X37460974Y57516688D01*
X37502665Y57515479D01*
G37*
G36*
X29508836Y57469695D02*
G01*
X29532155Y57429798D01*
X29515438Y57398153D01*
X29480733Y57403016D01*
X29451905Y57441263D01*
X29452520Y57458816D01*
X29486298Y57475656D01*
X29508836Y57469695D01*
G37*
G36*
X36518784Y57445580D02*
G01*
X36541049Y57417731D01*
X36540717Y57411176D01*
X36528277Y57388768D01*
X36523632Y57390101D01*
X36497606Y57417731D01*
X36493080Y57428950D01*
X36510378Y57446693D01*
X36518784Y57445580D01*
G37*
G36*
X29265005Y57362939D02*
G01*
X29294905Y57333016D01*
X29293059Y57316577D01*
X29257013Y57301881D01*
X29233101Y57306607D01*
X29219120Y57333016D01*
X29223053Y57341603D01*
X29257013Y57364150D01*
X29265005Y57362939D01*
G37*
G36*
X30985169Y57271595D02*
G01*
X30992879Y57240922D01*
X30977337Y57223512D01*
X30940533Y57219300D01*
X30922349Y57257529D01*
X30928382Y57278859D01*
X30965626Y57283456D01*
X30985169Y57271595D01*
G37*
G36*
X30615033Y57119257D02*
G01*
X30643537Y57083783D01*
X30647935Y57053607D01*
X30616613Y57046356D01*
X30587899Y57059402D01*
X30571696Y57093393D01*
X30598023Y57121366D01*
X30615033Y57119257D01*
G37*
G36*
X36502079Y57082909D02*
G01*
X36512087Y57026739D01*
X36511999Y57018822D01*
X36499818Y56967583D01*
X36461403Y56959846D01*
X36432688Y56975498D01*
X36410719Y57026739D01*
X36419698Y57060835D01*
X36461403Y57093631D01*
X36466648Y57094509D01*
X36502079Y57082909D01*
G37*
G36*
X30057769Y57032914D02*
G01*
X30083066Y56993813D01*
X30063132Y56944679D01*
X30033447Y56926621D01*
X29987448Y56935364D01*
X29966591Y56983295D01*
X29976111Y57020740D01*
X30024516Y57041220D01*
X30057769Y57032914D01*
G37*
G36*
X32225656Y56972360D02*
G01*
X32219773Y56948822D01*
X32182212Y56925370D01*
X32162422Y56926579D01*
X32138769Y56936305D01*
X32146218Y56948591D01*
X32182212Y56983295D01*
X32186422Y56986746D01*
X32218038Y57003094D01*
X32225656Y56972360D01*
G37*
G36*
X37502721Y56982895D02*
G01*
X37525770Y56951234D01*
X37520892Y56939363D01*
X37482326Y56925370D01*
X37462086Y56930301D01*
X37438883Y56967905D01*
X37444962Y56989319D01*
X37482326Y56993769D01*
X37502721Y56982895D01*
G37*
G36*
X30377568Y56922103D02*
G01*
X30401026Y56896408D01*
X30396125Y56883085D01*
X30357583Y56867446D01*
X30337598Y56870713D01*
X30314139Y56896408D01*
X30319041Y56909732D01*
X30357583Y56925370D01*
X30377568Y56922103D01*
G37*
G36*
X31594263Y56862400D02*
G01*
X31617446Y56824002D01*
X31612400Y56803742D01*
X31574003Y56780559D01*
X31553742Y56785605D01*
X31530559Y56824002D01*
X31535605Y56844262D01*
X31574003Y56867446D01*
X31594263Y56862400D01*
G37*
G36*
X33166155Y56854397D02*
G01*
X33181414Y56811934D01*
X33173447Y56775959D01*
X33135847Y56751596D01*
X33112120Y56758545D01*
X33099644Y56799880D01*
X33104749Y56818194D01*
X33133859Y56855490D01*
X33166155Y56854397D01*
G37*
G36*
X36140393Y56801458D02*
G01*
X36164538Y56766077D01*
X36153787Y56740743D01*
X36106614Y56722634D01*
X36072835Y56730697D01*
X36048689Y56766077D01*
X36059440Y56791412D01*
X36106614Y56809521D01*
X36140393Y56801458D01*
G37*
G36*
X30087944Y56719366D02*
G01*
X30111403Y56693671D01*
X30106501Y56680348D01*
X30067959Y56664709D01*
X30047974Y56667977D01*
X30024516Y56693671D01*
X30029417Y56706995D01*
X30067959Y56722634D01*
X30087944Y56719366D01*
G37*
G36*
X31457375Y56738548D02*
G01*
X31472634Y56696085D01*
X31464667Y56660109D01*
X31427067Y56635747D01*
X31403340Y56642696D01*
X31390864Y56684031D01*
X31395969Y56702344D01*
X31425079Y56739640D01*
X31457375Y56738548D01*
G37*
G36*
X36440089Y56692426D02*
G01*
X36477733Y56667185D01*
X36475790Y56627603D01*
X36432440Y56597786D01*
X36404768Y56590335D01*
X36374516Y56581182D01*
X36370288Y56590193D01*
X36367275Y56635747D01*
X36376795Y56673192D01*
X36425200Y56693671D01*
X36440089Y56692426D01*
G37*
G36*
X33388442Y56656404D02*
G01*
X33413739Y56617302D01*
X33393805Y56568168D01*
X33390529Y56565029D01*
X33348040Y56551796D01*
X33314843Y56594672D01*
X33301422Y56633644D01*
X33307670Y56660069D01*
X33355188Y56664709D01*
X33388442Y56656404D01*
G37*
G36*
X33900382Y56597750D02*
G01*
X33895373Y56564314D01*
X33886066Y56536573D01*
X33876511Y56488566D01*
X33868577Y56467137D01*
X33834630Y56468191D01*
X33789043Y56506116D01*
X33784973Y56511060D01*
X33763438Y56546469D01*
X33780404Y56568925D01*
X33844689Y56592047D01*
X33868154Y56598665D01*
X33900382Y56597750D01*
G37*
G36*
X35010939Y56518573D02*
G01*
X35018649Y56487900D01*
X35003107Y56470491D01*
X34966303Y56466278D01*
X34948119Y56504507D01*
X34954151Y56525837D01*
X34991396Y56530435D01*
X35010939Y56518573D01*
G37*
G36*
X31345866Y56518738D02*
G01*
X31372135Y56504305D01*
X31356785Y56461973D01*
X31334957Y56426187D01*
X31313341Y56404048D01*
X31298987Y56416506D01*
X31269898Y56461973D01*
X31257585Y56487763D01*
X31261979Y56514213D01*
X31313341Y56519897D01*
X31345866Y56518738D01*
G37*
G36*
X35607297Y56540401D02*
G01*
X35632832Y56500334D01*
X35612904Y56445865D01*
X35582298Y56421196D01*
X35539726Y56434771D01*
X35516120Y56479065D01*
X35528726Y56526854D01*
X35572199Y56548860D01*
X35607297Y56540401D01*
G37*
G36*
X33635242Y56423401D02*
G01*
X33625520Y56391231D01*
X33615850Y56329273D01*
X33607550Y56298561D01*
X33578237Y56292025D01*
X33548496Y56328921D01*
X33554203Y56370928D01*
X33593752Y56423048D01*
X33631505Y56455039D01*
X33645891Y56458507D01*
X33635242Y56423401D01*
G37*
G36*
X34422332Y56343868D02*
G01*
X34455006Y56319876D01*
X34436450Y56278544D01*
X34407167Y56261418D01*
X34361424Y56266211D01*
X34339909Y56302679D01*
X34350660Y56328014D01*
X34397834Y56346123D01*
X34422332Y56343868D01*
G37*
G36*
X34866202Y56338081D02*
G01*
X34868407Y56311957D01*
X34837423Y56270093D01*
X34806022Y56253528D01*
X34761420Y56261077D01*
X34754443Y56286595D01*
X34790199Y56329064D01*
X34833768Y56352244D01*
X34866202Y56338081D01*
G37*
G36*
X35564321Y56225060D02*
G01*
X35585291Y56183731D01*
X35574339Y56160195D01*
X35527366Y56143386D01*
X35495042Y56151374D01*
X35468612Y56189967D01*
X35486754Y56237932D01*
X35520615Y56246889D01*
X35564321Y56225060D01*
G37*
G36*
X34607818Y56107902D02*
G01*
X34629533Y56073104D01*
X34618983Y56045935D01*
X34569194Y56027537D01*
X34551869Y56029136D01*
X34522184Y56051656D01*
X34532971Y56085121D01*
X34581249Y56109307D01*
X34607818Y56107902D01*
G37*
G36*
X34131714Y69601483D02*
G01*
X34173593Y69598155D01*
X34283472Y69585641D01*
X34366214Y69570716D01*
X34406457Y69555927D01*
X34409455Y69546143D01*
X34411375Y69486931D01*
X34407690Y69382550D01*
X34399109Y69241443D01*
X34386337Y69072057D01*
X34370081Y68882837D01*
X34351048Y68682230D01*
X34329945Y68478679D01*
X34307477Y68280631D01*
X34284352Y68096532D01*
X34276345Y68022358D01*
X34273518Y67950558D01*
X34279246Y67918858D01*
X34287454Y67915698D01*
X34340023Y67903127D01*
X34419556Y67888423D01*
X34542646Y67868056D01*
X34542646Y67724133D01*
X34541831Y67688492D01*
X34530803Y67565056D01*
X34510998Y67454526D01*
X34479350Y67328842D01*
X34301021Y67342776D01*
X34209847Y67352092D01*
X34137575Y67371070D01*
X34079840Y67409183D01*
X34013280Y67477357D01*
X33976490Y67519748D01*
X33889203Y67630247D01*
X33813632Y67737340D01*
X33723396Y67876676D01*
X33743137Y68182019D01*
X33747236Y68240477D01*
X33762974Y68425681D01*
X33782776Y68622014D01*
X33803329Y68795705D01*
X33812057Y68864355D01*
X33832449Y69038704D01*
X33850966Y69214148D01*
X33864453Y69361466D01*
X33885126Y69618885D01*
X34131714Y69601483D01*
G37*
G36*
X33363022Y67839185D02*
G01*
X33401919Y67710116D01*
X33428389Y67618937D01*
X33451156Y67528267D01*
X33464370Y67455340D01*
X33463644Y67421663D01*
X33443982Y67414068D01*
X33379489Y67401428D01*
X33288967Y67389762D01*
X33232700Y67383614D01*
X33175239Y67381084D01*
X33138789Y67395014D01*
X33114320Y67435268D01*
X33092802Y67511710D01*
X33065205Y67634207D01*
X33030825Y67786260D01*
X32873704Y67786260D01*
X32813202Y67785448D01*
X32746650Y67777467D01*
X32710732Y67755260D01*
X32688337Y67711968D01*
X32668811Y67633369D01*
X32660091Y67540080D01*
X32657395Y67471601D01*
X32633726Y67370480D01*
X32581328Y67311334D01*
X32494971Y67286120D01*
X32461913Y67283027D01*
X32351756Y67275218D01*
X32238686Y67269806D01*
X32092423Y67264937D01*
X32113986Y67489396D01*
X32122285Y67579815D01*
X32134720Y67722055D01*
X32149441Y67895290D01*
X32165259Y68085489D01*
X32169803Y68141312D01*
X32700451Y68141312D01*
X32705913Y68097317D01*
X32723481Y68080665D01*
X32755904Y68079243D01*
X32838440Y68086605D01*
X32894049Y68107164D01*
X32912443Y68151300D01*
X32904907Y68230468D01*
X32889691Y68304052D01*
X32860108Y68420570D01*
X32825416Y68539282D01*
X32766007Y68727537D01*
X32745800Y68611687D01*
X32733950Y68529341D01*
X32720418Y68410299D01*
X32709008Y68285861D01*
X32704347Y68224758D01*
X32700451Y68141312D01*
X32169803Y68141312D01*
X32180981Y68278620D01*
X32191082Y68404117D01*
X32213869Y68684939D01*
X32233149Y68914915D01*
X32249729Y69098994D01*
X32264411Y69242124D01*
X32278001Y69349253D01*
X32291303Y69425328D01*
X32305120Y69475298D01*
X32320258Y69504111D01*
X32337520Y69516715D01*
X32357710Y69518057D01*
X32381634Y69513086D01*
X32435570Y69503268D01*
X32529528Y69490335D01*
X32639556Y69477848D01*
X32729007Y69466164D01*
X32819141Y69442875D01*
X32860682Y69411272D01*
X32863823Y69404043D01*
X32883678Y69348517D01*
X32917162Y69248619D01*
X32961670Y69112576D01*
X33014597Y68948613D01*
X33073335Y68764956D01*
X33135281Y68569832D01*
X33197828Y68371467D01*
X33258371Y68178087D01*
X33266687Y68151300D01*
X33314304Y67997917D01*
X33363022Y67839185D01*
G37*
G36*
X30575072Y69177220D02*
G01*
X30680094Y69160056D01*
X30806500Y69136131D01*
X31110605Y69075085D01*
X31378588Y68264139D01*
X31464416Y68003677D01*
X31533696Y67790640D01*
X31586996Y67621553D01*
X31625555Y67490915D01*
X31650611Y67393229D01*
X31663401Y67322995D01*
X31665164Y67274714D01*
X31657138Y67242886D01*
X31640560Y67222014D01*
X31616669Y67206596D01*
X31513722Y67158388D01*
X31420455Y67139581D01*
X31351681Y67166833D01*
X31298896Y67244096D01*
X31253595Y67375322D01*
X31212483Y67517022D01*
X31165338Y67669409D01*
X31116592Y67819017D01*
X31069863Y67955297D01*
X31028771Y68067699D01*
X30996935Y68145674D01*
X30977976Y68178672D01*
X30977919Y68178706D01*
X30969054Y68156279D01*
X30961693Y68081747D01*
X30956104Y67960884D01*
X30952554Y67799464D01*
X30951312Y67603260D01*
X30950687Y67414074D01*
X30948235Y67249914D01*
X30943519Y67130976D01*
X30936110Y67050545D01*
X30925582Y67001902D01*
X30911506Y66978333D01*
X30883054Y66960765D01*
X30809180Y66926299D01*
X30716010Y66890015D01*
X30668776Y66872836D01*
X30599728Y66848417D01*
X30545033Y66835975D01*
X30500514Y66840852D01*
X30461994Y66868388D01*
X30425297Y66923921D01*
X30386246Y67012793D01*
X30340663Y67140344D01*
X30284373Y67311912D01*
X30213197Y67532839D01*
X30207950Y67549064D01*
X30109353Y67854838D01*
X30027689Y68110336D01*
X29961691Y68320037D01*
X29910096Y68488418D01*
X29871637Y68619959D01*
X29845050Y68719136D01*
X29829070Y68790429D01*
X29822431Y68838316D01*
X29823869Y68867275D01*
X29832117Y68881785D01*
X29843289Y68889229D01*
X29899648Y68917154D01*
X29977008Y68949005D01*
X30056880Y68977933D01*
X30120774Y68997087D01*
X30150202Y68999620D01*
X30152040Y68995656D01*
X30168190Y68950353D01*
X30197309Y68863356D01*
X30235976Y68744999D01*
X30280765Y68605614D01*
X30294646Y68562534D01*
X30340192Y68427290D01*
X30380727Y68315673D01*
X30412276Y68238270D01*
X30430866Y68205672D01*
X30435458Y68207190D01*
X30445417Y68249897D01*
X30452794Y68345451D01*
X30457376Y68490247D01*
X30458951Y68680675D01*
X30459695Y68808666D01*
X30462619Y68955662D01*
X30467369Y69073876D01*
X30473526Y69153595D01*
X30480673Y69185105D01*
X30504136Y69185712D01*
X30575072Y69177220D01*
G37*
G36*
X29935687Y67105932D02*
G01*
X30028138Y66991711D01*
X30102236Y66895589D01*
X30151469Y66826139D01*
X30169327Y66791932D01*
X30156252Y66767398D01*
X30105042Y66723409D01*
X30032459Y66677874D01*
X29957314Y66642192D01*
X29898420Y66627765D01*
X29898386Y66627765D01*
X29858853Y66649590D01*
X29799290Y66706704D01*
X29732578Y66786757D01*
X29729818Y66790403D01*
X29667965Y66867353D01*
X29619272Y66919489D01*
X29594068Y66935703D01*
X29576438Y66925773D01*
X29519095Y66892995D01*
X29440114Y66847587D01*
X29304629Y66769518D01*
X29361469Y66604514D01*
X29384809Y66529162D01*
X29405407Y66440366D01*
X29410067Y66383575D01*
X29388345Y66347196D01*
X29316212Y66288064D01*
X29199088Y66217490D01*
X29173403Y66203616D01*
X29079861Y66154534D01*
X29009842Y66120041D01*
X28976913Y66106891D01*
X28976845Y66106893D01*
X28962174Y66133497D01*
X28933372Y66206738D01*
X28893510Y66318039D01*
X28845661Y66458827D01*
X28792898Y66620524D01*
X28712020Y66873226D01*
X28619792Y67161662D01*
X28542782Y67402929D01*
X28479567Y67601568D01*
X28456074Y67675751D01*
X29010833Y67675751D01*
X29011476Y67668389D01*
X29024325Y67611384D01*
X29049652Y67521589D01*
X29082157Y67416331D01*
X29116543Y67312937D01*
X29147512Y67228734D01*
X29167576Y67182718D01*
X29205431Y67133236D01*
X29256575Y67129503D01*
X29337486Y67166086D01*
X29417958Y67209728D01*
X29309337Y67345942D01*
X29241386Y67430135D01*
X29147641Y67542239D01*
X29074802Y67624040D01*
X29027616Y67670293D01*
X29010833Y67675751D01*
X28456074Y67675751D01*
X28428723Y67762118D01*
X28388825Y67889119D01*
X28358449Y67987110D01*
X28336171Y68060632D01*
X28320566Y68114223D01*
X28310209Y68152423D01*
X28303678Y68179772D01*
X28284245Y68269179D01*
X28534087Y68335180D01*
X28662427Y68365614D01*
X28774127Y68382052D01*
X28836210Y68376104D01*
X28836255Y68376082D01*
X28870868Y68346595D01*
X28935497Y68279886D01*
X29023344Y68183419D01*
X29127610Y68064659D01*
X29241497Y67931072D01*
X29319033Y67838855D01*
X29466565Y67663488D01*
X29618903Y67482512D01*
X29762027Y67312582D01*
X29848724Y67209728D01*
X29881916Y67170351D01*
X29935687Y67105932D01*
G37*
G36*
X37781981Y68568558D02*
G01*
X37913570Y68513871D01*
X38097362Y68430536D01*
X38070840Y68260450D01*
X38070392Y68257597D01*
X38048986Y68140831D01*
X38018832Y67999143D01*
X37986307Y67862552D01*
X37978019Y67829313D01*
X37955072Y67727721D01*
X37942014Y67653757D01*
X37941475Y67621562D01*
X37941923Y67621306D01*
X37964722Y67641265D01*
X38013331Y67699574D01*
X38080919Y67787652D01*
X38160653Y67896917D01*
X38243743Y68011305D01*
X38319025Y68111275D01*
X38377639Y68185259D01*
X38411320Y68222519D01*
X38415773Y68225972D01*
X38447522Y68237469D01*
X38495481Y68230307D01*
X38571137Y68201349D01*
X38685975Y68147456D01*
X38690103Y68145439D01*
X38817331Y68077769D01*
X38891743Y68024742D01*
X38915964Y67984500D01*
X38915458Y67980222D01*
X38901492Y67930223D01*
X38870499Y67835607D01*
X38825325Y67704184D01*
X38768812Y67543769D01*
X38703803Y67362172D01*
X38633144Y67167207D01*
X38559677Y66966686D01*
X38486245Y66768421D01*
X38415693Y66580225D01*
X38350864Y66409911D01*
X38294602Y66265289D01*
X38249750Y66154174D01*
X38158143Y65934124D01*
X38008490Y66009286D01*
X37943418Y66042275D01*
X37878738Y66075905D01*
X37850355Y66091860D01*
X37852293Y66103465D01*
X37870160Y66160417D01*
X37903395Y66256434D01*
X37948743Y66382204D01*
X38002951Y66528420D01*
X38036418Y66618661D01*
X38085860Y66756546D01*
X38124370Y66869846D01*
X38148654Y66948736D01*
X38155422Y66983394D01*
X38147746Y66981087D01*
X38110516Y66944575D01*
X38048133Y66873206D01*
X37966743Y66774127D01*
X37872494Y66654485D01*
X37821591Y66589211D01*
X37727007Y66470881D01*
X37645234Y66372332D01*
X37583655Y66302364D01*
X37549657Y66269776D01*
X37505420Y66261063D01*
X37436997Y66276170D01*
X37368806Y66309532D01*
X37319751Y66351520D01*
X37308735Y66392504D01*
X37319551Y66425768D01*
X37343095Y66510021D01*
X37373333Y66625967D01*
X37407226Y66761071D01*
X37441734Y66902797D01*
X37473819Y67038607D01*
X37500442Y67155966D01*
X37518562Y67242338D01*
X37525142Y67285186D01*
X37518412Y67289452D01*
X37489118Y67257788D01*
X37441971Y67189015D01*
X37382859Y67091163D01*
X37347544Y67029938D01*
X37242273Y66850036D01*
X37159831Y66714478D01*
X37096676Y66618075D01*
X37049268Y66555639D01*
X37014067Y66521982D01*
X36987531Y66511915D01*
X36978405Y66512668D01*
X36918203Y66530246D01*
X36834188Y66565264D01*
X36741861Y66609885D01*
X36656723Y66656273D01*
X36594273Y66696591D01*
X36570012Y66723002D01*
X36572118Y66728971D01*
X36595563Y66776617D01*
X36641980Y66865335D01*
X36707617Y66988268D01*
X36788720Y67138559D01*
X36881538Y67309349D01*
X36982318Y67493784D01*
X37087307Y67685004D01*
X37192752Y67876153D01*
X37294902Y68060374D01*
X37390003Y68230809D01*
X37474304Y68380602D01*
X37544051Y68502895D01*
X37573236Y68546255D01*
X37622751Y68585075D01*
X37688687Y68592401D01*
X37781981Y68568558D01*
G37*
G36*
X39764859Y67385363D02*
G01*
X39810466Y67354955D01*
X39894082Y67291391D01*
X39981490Y67218370D01*
X40116729Y67099396D01*
X39943541Y66890035D01*
X39922293Y66864249D01*
X39814929Y66731948D01*
X39699152Y66586782D01*
X39596579Y66455805D01*
X39595483Y66454386D01*
X39440640Y66254002D01*
X39318437Y66095048D01*
X39226289Y65973011D01*
X39161611Y65883379D01*
X39121819Y65821639D01*
X39104327Y65783280D01*
X39106551Y65763788D01*
X39125906Y65758651D01*
X39159806Y65763357D01*
X39205668Y65773393D01*
X39250808Y65787137D01*
X39311494Y65818853D01*
X39379847Y65871144D01*
X39461200Y65949225D01*
X39560886Y66058312D01*
X39684239Y66203621D01*
X39836593Y66390366D01*
X39939678Y66518133D01*
X40043791Y66646925D01*
X40132769Y66756735D01*
X40199551Y66838849D01*
X40237074Y66884554D01*
X40298321Y66957891D01*
X40483254Y66811401D01*
X40508629Y66790845D01*
X40589265Y66718565D01*
X40644846Y66657716D01*
X40664557Y66619730D01*
X40664496Y66619181D01*
X40644738Y66580659D01*
X40594456Y66505422D01*
X40519673Y66401281D01*
X40426410Y66276048D01*
X40320690Y66137534D01*
X40208535Y65993550D01*
X40095968Y65851906D01*
X39989010Y65720415D01*
X39893684Y65606886D01*
X39816012Y65519132D01*
X39680716Y65391727D01*
X39481114Y65260432D01*
X39270871Y65182128D01*
X39267906Y65181437D01*
X39160942Y65162923D01*
X39055836Y65153593D01*
X38985928Y65156486D01*
X38950359Y65179865D01*
X38932746Y65237571D01*
X38913137Y65340531D01*
X38895750Y65426015D01*
X38881351Y65470937D01*
X38864486Y65484165D01*
X38839705Y65474574D01*
X38801554Y65451032D01*
X38757948Y65427638D01*
X38717459Y65421331D01*
X38669356Y65441234D01*
X38593932Y65491153D01*
X38550973Y65522149D01*
X38464890Y65590752D01*
X38401511Y65649470D01*
X38335975Y65719973D01*
X38444954Y65866857D01*
X38457241Y65883204D01*
X38514193Y65957198D01*
X38599811Y66066964D01*
X38708583Y66205493D01*
X38834997Y66365775D01*
X38973540Y66540801D01*
X39118700Y66723562D01*
X39683467Y67433383D01*
X39764859Y67385363D01*
G37*
G36*
X41169700Y66016638D02*
G01*
X41225093Y65955907D01*
X41293435Y65877682D01*
X41333535Y65815958D01*
X41343232Y65761198D01*
X41320366Y65703868D01*
X41262778Y65634431D01*
X41168306Y65543353D01*
X41034792Y65421096D01*
X41007136Y65395730D01*
X40855525Y65256663D01*
X40693396Y65107936D01*
X40538483Y64965817D01*
X40408524Y64846579D01*
X40288127Y64737039D01*
X40161890Y64623848D01*
X40048150Y64523420D01*
X39961882Y64449082D01*
X39952493Y64441219D01*
X39870351Y64375828D01*
X39804892Y64329387D01*
X39769556Y64311511D01*
X39763729Y64313211D01*
X39723234Y64344117D01*
X39659566Y64405893D01*
X39583697Y64488113D01*
X39521277Y64561227D01*
X39469444Y64631807D01*
X39449776Y64679029D01*
X39456803Y64712572D01*
X39458431Y64714845D01*
X39492328Y64750742D01*
X39562308Y64819185D01*
X39662436Y64914674D01*
X39786779Y65031705D01*
X39929400Y65164776D01*
X40084365Y65308383D01*
X40245740Y65457025D01*
X40407589Y65605200D01*
X40563977Y65747404D01*
X40708970Y65878134D01*
X40836633Y65991890D01*
X41034041Y66166378D01*
X41169700Y66016638D01*
G37*
G36*
X25992218Y66048418D02*
G01*
X26036846Y66013277D01*
X26152511Y65920987D01*
X26298119Y65803734D01*
X26463967Y65669418D01*
X26640353Y65525940D01*
X26817574Y65381199D01*
X26985927Y65243097D01*
X27135710Y65119534D01*
X27257220Y65018409D01*
X27276062Y65002418D01*
X27356836Y64928885D01*
X27415440Y64867486D01*
X27440270Y64830154D01*
X27439168Y64820397D01*
X27412024Y64769664D01*
X27356348Y64694370D01*
X27280999Y64606930D01*
X27113797Y64425206D01*
X26784969Y64693817D01*
X26752159Y64720632D01*
X26608961Y64837711D01*
X26503955Y64922606D01*
X26431256Y64978675D01*
X26384982Y65009278D01*
X26359247Y65017777D01*
X26348168Y65007530D01*
X26345861Y64981897D01*
X26346443Y64944239D01*
X26363332Y64845729D01*
X26421856Y64732480D01*
X26525929Y64607231D01*
X26679362Y64464490D01*
X26761692Y64394394D01*
X26852181Y64314607D01*
X26905380Y64255807D01*
X26924404Y64206944D01*
X26912367Y64156966D01*
X26872382Y64094821D01*
X26807562Y64009458D01*
X26660657Y63815401D01*
X26575319Y63869433D01*
X26501507Y63921943D01*
X26391467Y64012354D01*
X26273213Y64119037D01*
X26160327Y64229157D01*
X26066389Y64329882D01*
X26004979Y64408380D01*
X25953234Y64511892D01*
X25912683Y64687286D01*
X25897378Y64846579D01*
X25735109Y64848568D01*
X25718363Y64849020D01*
X25552373Y64880032D01*
X25402634Y64953073D01*
X25279447Y65059476D01*
X25193114Y65190569D01*
X25153936Y65337683D01*
X25152602Y65358786D01*
X25157289Y65417543D01*
X25183456Y65456203D01*
X25240200Y65479141D01*
X25336616Y65490730D01*
X25481803Y65495346D01*
X25528672Y65495944D01*
X25614025Y65493825D01*
X25665213Y65481270D01*
X25699260Y65451731D01*
X25733187Y65398661D01*
X25745883Y65378699D01*
X25834089Y65286430D01*
X25942083Y65227988D01*
X26051353Y65214111D01*
X26056342Y65214745D01*
X26079669Y65222077D01*
X26082318Y65238713D01*
X26059423Y65270079D01*
X26006112Y65321605D01*
X25917517Y65398720D01*
X25788769Y65506851D01*
X25724930Y65560502D01*
X25615526Y65654620D01*
X25527846Y65732920D01*
X25469591Y65788446D01*
X25448461Y65814242D01*
X25451480Y65821955D01*
X25483099Y65866155D01*
X25541811Y65936812D01*
X25618494Y66022741D01*
X25788526Y66207611D01*
X25992218Y66048418D01*
G37*
G36*
X41756867Y65180131D02*
G01*
X41843792Y65141114D01*
X41944176Y65089569D01*
X42044512Y65031706D01*
X42114037Y64985229D01*
X42160364Y64938805D01*
X42184470Y64881804D01*
X42188714Y64802746D01*
X42175454Y64690152D01*
X42147046Y64532541D01*
X42120367Y64407333D01*
X42082142Y64283940D01*
X42033068Y64195056D01*
X41965270Y64127426D01*
X41870874Y64067798D01*
X41800312Y64032988D01*
X41708858Y64002245D01*
X41609095Y63988891D01*
X41489201Y63992644D01*
X41337354Y64013221D01*
X41141732Y64050338D01*
X41129618Y64052802D01*
X40938672Y64086797D01*
X40797447Y64101204D01*
X40701568Y64096483D01*
X40671993Y64090761D01*
X40619331Y64076109D01*
X40611879Y64056098D01*
X40640745Y64019472D01*
X40652193Y64008115D01*
X40740967Y63955511D01*
X40863811Y63919085D01*
X41001255Y63905020D01*
X41037423Y63904710D01*
X41096875Y63900901D01*
X41134888Y63886799D01*
X41151524Y63855126D01*
X41146846Y63798605D01*
X41120918Y63709958D01*
X41073802Y63581907D01*
X41005562Y63407174D01*
X40974845Y63328999D01*
X40786409Y63392692D01*
X40669286Y63440997D01*
X40537514Y63511014D01*
X40413593Y63590443D01*
X40312970Y63669328D01*
X40251092Y63737712D01*
X40245503Y63748244D01*
X40236526Y63790430D01*
X40240432Y63856312D01*
X40258404Y63956505D01*
X40291625Y64101628D01*
X40317427Y64203358D01*
X40351752Y64324635D01*
X40382445Y64418474D01*
X40405029Y64470323D01*
X40440940Y64506150D01*
X40516999Y64559289D01*
X40611416Y64611638D01*
X40688053Y64646116D01*
X40761899Y64669346D01*
X40840792Y64679868D01*
X40934955Y64677396D01*
X41054614Y64661641D01*
X41209994Y64632315D01*
X41411320Y64589132D01*
X41503805Y64569219D01*
X41632161Y64544748D01*
X41723059Y64533567D01*
X41788336Y64534495D01*
X41839831Y64546350D01*
X41848171Y64549412D01*
X41903192Y64580282D01*
X41919805Y64610655D01*
X41913580Y64620565D01*
X41862692Y64652149D01*
X41777338Y64681735D01*
X41675026Y64704100D01*
X41573261Y64714023D01*
X41567303Y64714175D01*
X41489856Y64726444D01*
X41464652Y64757588D01*
X41466185Y64765953D01*
X41485934Y64818668D01*
X41522336Y64900830D01*
X41567577Y64996249D01*
X41613844Y65088729D01*
X41653322Y65162080D01*
X41678196Y65200108D01*
X41696911Y65200410D01*
X41756867Y65180131D01*
G37*
G36*
X25068886Y64458335D02*
G01*
X25162442Y64418253D01*
X25284610Y64346700D01*
X25326412Y64321847D01*
X25419358Y64268711D01*
X25544055Y64198792D01*
X25689453Y64118273D01*
X25844504Y64033338D01*
X25956988Y63971528D01*
X26108792Y63886462D01*
X26244016Y63808860D01*
X26351163Y63745345D01*
X26418737Y63702540D01*
X26544369Y63616103D01*
X26340733Y63246620D01*
X26315476Y63200827D01*
X26240135Y63064635D01*
X26173223Y62944246D01*
X26121228Y62851313D01*
X26090639Y62797491D01*
X26088751Y62794279D01*
X26051488Y62740187D01*
X26025543Y62717845D01*
X26019399Y62719256D01*
X25971377Y62737775D01*
X25889041Y62773260D01*
X25785867Y62819970D01*
X25564831Y62922095D01*
X25697113Y63166748D01*
X25829395Y63411402D01*
X25671247Y63488965D01*
X25596782Y63521290D01*
X25516007Y63546113D01*
X25466461Y63548630D01*
X25437391Y63523758D01*
X25390219Y63458470D01*
X25341221Y63370469D01*
X25310690Y63310588D01*
X25269598Y63246718D01*
X25230211Y63217308D01*
X25180328Y63210205D01*
X25115382Y63216749D01*
X25021530Y63249820D01*
X24953418Y63302154D01*
X24927138Y63363978D01*
X24938496Y63411594D01*
X24975212Y63494160D01*
X25028507Y63586716D01*
X25077420Y63664580D01*
X25115328Y63729027D01*
X25129823Y63759514D01*
X25115084Y63775539D01*
X25062702Y63813933D01*
X24986307Y63863790D01*
X24900597Y63915597D01*
X24820273Y63959842D01*
X24817394Y63961304D01*
X24781723Y63973235D01*
X24751752Y63960724D01*
X24717020Y63914612D01*
X24667062Y63825741D01*
X24666880Y63825404D01*
X24601361Y63704289D01*
X24553533Y63627341D01*
X24511864Y63588746D01*
X24464821Y63582686D01*
X24400872Y63603348D01*
X24308485Y63644915D01*
X24296933Y63650217D01*
X24205505Y63697270D01*
X24140961Y63739391D01*
X24116641Y63768019D01*
X24117420Y63773490D01*
X24136246Y63824019D01*
X24175057Y63906712D01*
X24226964Y64006670D01*
X24299609Y64124302D01*
X24382517Y64218003D01*
X24486430Y64294112D01*
X24623428Y64361443D01*
X24805591Y64428809D01*
X24896050Y64456350D01*
X24986052Y64470012D01*
X25068886Y64458335D01*
G37*
G36*
X42739837Y62839561D02*
G01*
X42619007Y62755535D01*
X42463163Y62649819D01*
X42268052Y62518726D01*
X42029419Y62358567D01*
X41936749Y62296373D01*
X41758013Y62176851D01*
X41597721Y62070233D01*
X41461788Y61980417D01*
X41356126Y61911303D01*
X41286652Y61866792D01*
X41259278Y61850782D01*
X41249452Y61858850D01*
X41217913Y61903472D01*
X41176063Y61972063D01*
X41133851Y62047312D01*
X41101227Y62111907D01*
X41088142Y62148537D01*
X41099830Y62161878D01*
X41149794Y62197538D01*
X41225713Y62243645D01*
X41270726Y62269413D01*
X41366306Y62327220D01*
X41420876Y62371860D01*
X41441401Y62414636D01*
X41434846Y62466854D01*
X41408174Y62539819D01*
X41389017Y62586500D01*
X41356514Y62644601D01*
X41318048Y62668642D01*
X41257779Y62672609D01*
X41235724Y62671803D01*
X41135010Y62663110D01*
X41029224Y62648536D01*
X40897901Y62626255D01*
X40837196Y62773715D01*
X41684137Y62773715D01*
X41684222Y62729384D01*
X41709112Y62663248D01*
X41715053Y62651863D01*
X41746266Y62595837D01*
X41762570Y62573033D01*
X41764788Y62573967D01*
X41800054Y62595584D01*
X41868367Y62639981D01*
X41957704Y62699373D01*
X41999537Y62727887D01*
X42105118Y62805106D01*
X42176758Y62866110D01*
X42209331Y62906176D01*
X42197713Y62920581D01*
X42173764Y62917796D01*
X42101829Y62902467D01*
X42004373Y62877764D01*
X41897762Y62848281D01*
X41798360Y62818613D01*
X41722533Y62793353D01*
X41686646Y62777097D01*
X41684137Y62773715D01*
X40837196Y62773715D01*
X40804531Y62853064D01*
X40788588Y62892076D01*
X40749080Y62991549D01*
X40721623Y63064906D01*
X40711397Y63098498D01*
X40711422Y63099285D01*
X40716721Y63110729D01*
X40735486Y63122771D01*
X40773895Y63137016D01*
X40838123Y63155070D01*
X40934348Y63178539D01*
X41068745Y63209030D01*
X41247492Y63248147D01*
X41476764Y63297497D01*
X41538731Y63310804D01*
X41758229Y63358275D01*
X41979426Y63406571D01*
X42187729Y63452480D01*
X42368550Y63492792D01*
X42507298Y63524295D01*
X42869327Y63607797D01*
X42904190Y63459685D01*
X42913166Y63419501D01*
X42938633Y63287100D01*
X42957768Y63163065D01*
X42962677Y63130107D01*
X42967808Y63094680D01*
X42967708Y63063372D01*
X42958123Y63032495D01*
X42934798Y62998363D01*
X42893478Y62957287D01*
X42830640Y62906176D01*
X42829910Y62905582D01*
X42739837Y62839561D01*
G37*
G36*
X25789159Y62144437D02*
G01*
X25754000Y62054912D01*
X25724950Y61989911D01*
X25707564Y61964823D01*
X25689992Y61969050D01*
X25626482Y61989315D01*
X25529604Y62022516D01*
X25411959Y62064409D01*
X25136848Y62163995D01*
X25035948Y62109917D01*
X24992961Y62085364D01*
X24901572Y62029743D01*
X24787945Y61958132D01*
X24667263Y61880000D01*
X24575637Y61822116D01*
X24469748Y61761096D01*
X24386138Y61719534D01*
X24337481Y61704185D01*
X24305383Y61708507D01*
X24216996Y61736905D01*
X24106797Y61784646D01*
X23991984Y61843288D01*
X23889752Y61904391D01*
X23817299Y61959514D01*
X23756060Y62023861D01*
X23645586Y62191224D01*
X23587716Y62372310D01*
X23585736Y62515108D01*
X23992919Y62515108D01*
X24065415Y62420980D01*
X24086227Y62396861D01*
X24170129Y62323489D01*
X24264622Y62263873D01*
X24345364Y62224876D01*
X24431757Y62190926D01*
X24492135Y62184675D01*
X24541057Y62205659D01*
X24593081Y62253413D01*
X24628203Y62292568D01*
X24651520Y62334133D01*
X24634873Y62354743D01*
X24566650Y62379509D01*
X24406830Y62433545D01*
X24264033Y62476507D01*
X24150493Y62504870D01*
X24078445Y62515108D01*
X23992919Y62515108D01*
X23585736Y62515108D01*
X23585110Y62560236D01*
X23588882Y62584630D01*
X23610021Y62653085D01*
X23654122Y62707373D01*
X23735664Y62767418D01*
X23814843Y62817089D01*
X23934931Y62887155D01*
X24052916Y62951433D01*
X24235819Y63046515D01*
X24385983Y62993937D01*
X24422657Y62980991D01*
X24532686Y62941494D01*
X24672427Y62890717D01*
X24833470Y62831777D01*
X25007403Y62767791D01*
X25185816Y62701877D01*
X25360295Y62637153D01*
X25522431Y62576735D01*
X25663811Y62523742D01*
X25776024Y62481290D01*
X25850659Y62452497D01*
X25879304Y62440481D01*
X25879730Y62439943D01*
X25875711Y62406237D01*
X25855571Y62335491D01*
X25855120Y62334133D01*
X25824868Y62243093D01*
X25789159Y62144437D01*
G37*
G36*
X43407786Y62051227D02*
G01*
X43464799Y62020285D01*
X43508564Y61938767D01*
X43540966Y61803390D01*
X43544317Y61782317D01*
X43544765Y61741810D01*
X43523916Y61715235D01*
X43470161Y61693173D01*
X43371890Y61666204D01*
X43259456Y61638091D01*
X43110579Y61603139D01*
X42970696Y61572299D01*
X42954513Y61568872D01*
X42845665Y61544839D01*
X42758290Y61523959D01*
X42710034Y61510420D01*
X42710000Y61510407D01*
X42694452Y61493450D01*
X42735814Y61475202D01*
X42834333Y61455612D01*
X42990261Y61434632D01*
X43203844Y61412211D01*
X43225506Y61410098D01*
X43368174Y61393887D01*
X43490142Y61376256D01*
X43579061Y61359197D01*
X43622584Y61344701D01*
X43635505Y61331340D01*
X43644092Y61300500D01*
X43638780Y61246904D01*
X43618148Y61159804D01*
X43580776Y61028449D01*
X43555211Y60942925D01*
X43522335Y60837288D01*
X43497470Y60762647D01*
X43484609Y60731340D01*
X43475287Y60728003D01*
X43417986Y60712990D01*
X43314581Y60687957D01*
X43171929Y60654505D01*
X42996885Y60614232D01*
X42796306Y60568738D01*
X42577046Y60519622D01*
X42463435Y60494431D01*
X42250471Y60447807D01*
X42058313Y60406512D01*
X41894098Y60372032D01*
X41764967Y60345856D01*
X41678058Y60329473D01*
X41640510Y60324370D01*
X41616304Y60334823D01*
X41591009Y60374393D01*
X41567125Y60452415D01*
X41540898Y60578462D01*
X41521231Y60683664D01*
X41775325Y60744008D01*
X41788436Y60747108D01*
X41947965Y60783321D01*
X42122164Y60820773D01*
X42275599Y60851826D01*
X42318063Y60860219D01*
X42429577Y60884272D01*
X42515872Y60905763D01*
X42561051Y60920849D01*
X42567301Y60926775D01*
X42544491Y60945045D01*
X42464974Y60966825D01*
X42329546Y60991958D01*
X42139004Y61020289D01*
X41894147Y61051660D01*
X41880429Y61053325D01*
X41738775Y61071482D01*
X41616874Y61088743D01*
X41527327Y61103230D01*
X41482732Y61113060D01*
X41460977Y61134378D01*
X41425339Y61202973D01*
X41388001Y61303945D01*
X41354056Y61422994D01*
X41328596Y61545823D01*
X41314302Y61633665D01*
X42004928Y61772854D01*
X42095989Y61791253D01*
X42313693Y61835576D01*
X42527590Y61879545D01*
X42724430Y61920414D01*
X42890965Y61955440D01*
X43013943Y61981877D01*
X43124185Y62005219D01*
X43247739Y62029282D01*
X43344009Y62045662D01*
X43398412Y62051710D01*
X43407786Y62051227D01*
G37*
G36*
X23403348Y61549717D02*
G01*
X23505844Y61537721D01*
X23630570Y61518972D01*
X23639827Y61517437D01*
X23763828Y61495770D01*
X23919892Y61466967D01*
X24099932Y61432666D01*
X24295862Y61394506D01*
X24499594Y61354127D01*
X24703043Y61313169D01*
X24898121Y61273272D01*
X25076742Y61236074D01*
X25230820Y61203215D01*
X25352267Y61176335D01*
X25432996Y61157073D01*
X25464922Y61147069D01*
X25466133Y61138166D01*
X25461747Y61083293D01*
X25449702Y60989031D01*
X25431930Y60867208D01*
X25410365Y60729652D01*
X25386942Y60588191D01*
X25363594Y60454651D01*
X25342254Y60340861D01*
X25324856Y60258648D01*
X25313333Y60219840D01*
X25298041Y60213744D01*
X25234893Y60205691D01*
X25135300Y60200169D01*
X25012316Y60198118D01*
X24929599Y60199039D01*
X24824022Y60203458D01*
X24751888Y60210701D01*
X24725433Y60219840D01*
X24730538Y60248930D01*
X24746147Y60320436D01*
X24768424Y60415336D01*
X24775661Y60445795D01*
X24801606Y60574098D01*
X24807906Y60659889D01*
X24794319Y60713298D01*
X24760605Y60744457D01*
X24738861Y60752087D01*
X24664040Y60770385D01*
X24549741Y60794122D01*
X24406917Y60821069D01*
X24246522Y60848999D01*
X24183749Y60859603D01*
X23993846Y60892748D01*
X23804017Y60927238D01*
X23633302Y60959569D01*
X23500741Y60986238D01*
X23394298Y61009510D01*
X23302201Y61033286D01*
X23249079Y61054595D01*
X23224837Y61077778D01*
X23219376Y61107173D01*
X23223532Y61153031D01*
X23237534Y61239663D01*
X23257668Y61340622D01*
X23280045Y61438036D01*
X23300772Y61514037D01*
X23315960Y61550756D01*
X23335829Y61553674D01*
X23403348Y61549717D01*
G37*
G36*
X25113554Y59970769D02*
G01*
X25161732Y59970006D01*
X25237033Y59966419D01*
X25260566Y59611630D01*
X25273123Y59404740D01*
X25279385Y59242337D01*
X25278084Y59122822D01*
X25268343Y59038729D01*
X25249282Y58982597D01*
X25220025Y58946960D01*
X25179692Y58924356D01*
X25135905Y58913261D01*
X25044841Y58901815D01*
X24938413Y58896648D01*
X24761432Y58894812D01*
X24743169Y59046864D01*
X24738147Y59093436D01*
X24728571Y59217096D01*
X24724653Y59324724D01*
X24724402Y59450532D01*
X24572349Y59429735D01*
X24523630Y59422996D01*
X24413377Y59404351D01*
X24347810Y59380409D01*
X24317381Y59341629D01*
X24312539Y59278472D01*
X24323734Y59181398D01*
X24331440Y59113262D01*
X24333567Y59018867D01*
X24320289Y58971475D01*
X24297769Y58959756D01*
X24228435Y58942430D01*
X24135683Y58930227D01*
X23979361Y58917263D01*
X23958943Y59178257D01*
X23938526Y59439251D01*
X23759457Y59425352D01*
X23710369Y59421613D01*
X23607651Y59411230D01*
X23547250Y59391679D01*
X23517970Y59351134D01*
X23508613Y59277770D01*
X23507982Y59159760D01*
X23507882Y59112793D01*
X23503217Y59007707D01*
X23483640Y58943562D01*
X23438397Y58910202D01*
X23356736Y58897469D01*
X23227904Y58895207D01*
X23078157Y58894812D01*
X23057831Y59084610D01*
X23050623Y59155944D01*
X23044515Y59260803D01*
X23050557Y59348766D01*
X23073265Y59429747D01*
X23117157Y59513664D01*
X23186748Y59610431D01*
X23286555Y59729967D01*
X23421095Y59882187D01*
X23493501Y59963304D01*
X24289966Y59968448D01*
X24296234Y59968488D01*
X24508706Y59969707D01*
X24705029Y59970560D01*
X24876848Y59971031D01*
X25015808Y59971106D01*
X25113554Y59970769D01*
G37*
G36*
X41993216Y60041565D02*
G01*
X42056967Y60037174D01*
X42216702Y60024377D01*
X42370663Y60009924D01*
X42492817Y59996182D01*
X42536501Y59991009D01*
X42660029Y59978597D01*
X42817846Y59964664D01*
X42994223Y59950562D01*
X43173432Y59937643D01*
X43349972Y59925424D01*
X43536628Y59909992D01*
X43676478Y59892036D01*
X43775775Y59867966D01*
X43840772Y59834190D01*
X43877723Y59787115D01*
X43892880Y59723151D01*
X43892498Y59638705D01*
X43882830Y59530185D01*
X43878344Y59483692D01*
X43869745Y59415896D01*
X43853689Y59366591D01*
X43821945Y59330838D01*
X43766283Y59303698D01*
X43678470Y59280232D01*
X43550276Y59255503D01*
X43373470Y59224571D01*
X43294173Y59209786D01*
X43190063Y59186106D01*
X43131263Y59166042D01*
X43123856Y59151377D01*
X43160820Y59138973D01*
X43244341Y59118134D01*
X43359950Y59092755D01*
X43494552Y59065855D01*
X43586664Y59047148D01*
X43721137Y59014479D01*
X43815588Y58983824D01*
X43861289Y58957756D01*
X43867743Y58947608D01*
X43887275Y58876498D01*
X43896155Y58769228D01*
X43893706Y58642548D01*
X43879251Y58513209D01*
X43861648Y58406749D01*
X43655111Y58390815D01*
X43654210Y58390746D01*
X43469777Y58376688D01*
X43264640Y58361334D01*
X43048608Y58345392D01*
X42831489Y58329567D01*
X42623090Y58314566D01*
X42433220Y58301093D01*
X42271687Y58289856D01*
X42148298Y58281561D01*
X42072862Y58276913D01*
X42015994Y58273883D01*
X41899307Y58267785D01*
X41804960Y58262997D01*
X41696351Y58257640D01*
X41696351Y58431414D01*
X41698745Y58510478D01*
X41706616Y58578897D01*
X41718073Y58605241D01*
X41723976Y58605586D01*
X41775981Y58610336D01*
X41870879Y58619793D01*
X41997648Y58632843D01*
X42145268Y58648375D01*
X42192701Y58653391D01*
X42338182Y58668479D01*
X42461451Y58680825D01*
X42550716Y58689269D01*
X42594185Y58692646D01*
X42620730Y58697560D01*
X42603088Y58713384D01*
X42531419Y58739487D01*
X42407262Y58775328D01*
X42232155Y58820362D01*
X42153839Y58839650D01*
X41987131Y58880552D01*
X41866282Y58911210D01*
X41784010Y58935025D01*
X41733029Y58955395D01*
X41706057Y58975721D01*
X41695809Y58999400D01*
X41695002Y59029833D01*
X41696351Y59070419D01*
X41698609Y59118725D01*
X41712975Y59166407D01*
X41748576Y59201978D01*
X41814419Y59230648D01*
X41919512Y59257624D01*
X42072862Y59288114D01*
X42198574Y59312617D01*
X42330085Y59339676D01*
X42433739Y59362442D01*
X42493110Y59376780D01*
X42540729Y59392501D01*
X42542820Y59405836D01*
X42506145Y59422382D01*
X42472679Y59430732D01*
X42384621Y59443874D01*
X42265328Y59456124D01*
X42130787Y59465641D01*
X41969668Y59474766D01*
X41850408Y59486004D01*
X41772070Y59505450D01*
X41726075Y59539621D01*
X41703842Y59595035D01*
X41696794Y59678209D01*
X41696351Y59795659D01*
X41696351Y60060769D01*
X41993216Y60041565D01*
G37*
G36*
X24674740Y57809625D02*
G01*
X24856787Y57798586D01*
X25053015Y57840648D01*
X25083929Y57850765D01*
X25198037Y57875465D01*
X25275774Y57862282D01*
X25326397Y57807145D01*
X25359162Y57705982D01*
X25367703Y57661842D01*
X25384047Y57545222D01*
X25390536Y57445819D01*
X25390446Y57408119D01*
X25385688Y57368497D01*
X25367546Y57340710D01*
X25327195Y57320990D01*
X25255812Y57305573D01*
X25144575Y57290693D01*
X24984661Y57272583D01*
X24935349Y57267462D01*
X24759581Y57259348D01*
X24618715Y57274659D01*
X24496984Y57316383D01*
X24378620Y57387510D01*
X24297327Y57445396D01*
X24228968Y57316537D01*
X24203354Y57272418D01*
X24154957Y57206757D01*
X24116678Y57175733D01*
X24100811Y57173068D01*
X24031837Y57167626D01*
X23927979Y57163156D01*
X23804930Y57160429D01*
X23537111Y57157069D01*
X23421811Y57261237D01*
X23375190Y57305620D01*
X23241664Y57473297D01*
X23148260Y57671852D01*
X23107663Y57786916D01*
X23496187Y57786916D01*
X23576105Y57718173D01*
X23627317Y57681558D01*
X23701117Y57657353D01*
X23806461Y57652789D01*
X23861006Y57654346D01*
X23959376Y57662312D01*
X24021282Y57681595D01*
X24061911Y57718907D01*
X24096451Y57780961D01*
X24144217Y57881129D01*
X24027313Y57881129D01*
X23943362Y57875055D01*
X23825565Y57858078D01*
X23703298Y57834022D01*
X23496187Y57786916D01*
X23107663Y57786916D01*
X23106827Y57789286D01*
X23271201Y58030451D01*
X23316502Y58094294D01*
X23394478Y58193506D01*
X23463530Y58269106D01*
X23512648Y58308417D01*
X23546866Y58320581D01*
X23636463Y58342758D01*
X23756624Y58366206D01*
X23891045Y58387518D01*
X23900274Y58388820D01*
X24050423Y58411169D01*
X24233587Y58440043D01*
X24427453Y58471856D01*
X24609707Y58503021D01*
X24657666Y58511411D01*
X24840425Y58542483D01*
X24975855Y58562772D01*
X25071794Y58572267D01*
X25136083Y58570955D01*
X25176559Y58558824D01*
X25201063Y58535861D01*
X25217433Y58502054D01*
X25237692Y58430439D01*
X25254842Y58330507D01*
X25264515Y58228364D01*
X25264936Y58143577D01*
X25254327Y58095714D01*
X25227038Y58081938D01*
X25152120Y58060973D01*
X25043100Y58037875D01*
X24912657Y58015618D01*
X24807317Y57999037D01*
X24676762Y57976977D01*
X24571353Y57957462D01*
X24507184Y57943359D01*
X24420297Y57919601D01*
X24495139Y57881129D01*
X24542233Y57856921D01*
X24674740Y57809625D01*
G37*
G36*
X43169524Y57737416D02*
G01*
X43332875Y57697316D01*
X43507851Y57653358D01*
X43637507Y57618796D01*
X43728193Y57591442D01*
X43786261Y57569105D01*
X43818062Y57549597D01*
X43829947Y57530726D01*
X43828268Y57510303D01*
X43824302Y57496266D01*
X43805342Y57426153D01*
X43782250Y57338084D01*
X43780982Y57333194D01*
X43764625Y57278973D01*
X43742786Y57242302D01*
X43707014Y57222602D01*
X43648857Y57219291D01*
X43559863Y57231787D01*
X43431581Y57259511D01*
X43255559Y57301881D01*
X43200664Y57315230D01*
X43041456Y57352698D01*
X42929216Y57375944D01*
X42856940Y57385537D01*
X42817629Y57382045D01*
X42804280Y57366038D01*
X42809892Y57338084D01*
X42816669Y57320889D01*
X42897282Y57181961D01*
X43016914Y57069489D01*
X43181313Y56979246D01*
X43396226Y56907007D01*
X43447732Y56893116D01*
X43549933Y56864623D01*
X43622377Y56843106D01*
X43651921Y56832400D01*
X43652299Y56826871D01*
X43644130Y56779193D01*
X43625033Y56694115D01*
X43597939Y56585063D01*
X43569171Y56476662D01*
X43545062Y56402895D01*
X43521611Y56364011D01*
X43491884Y56348908D01*
X43448947Y56346483D01*
X43437313Y56346948D01*
X43354871Y56359116D01*
X43238989Y56384286D01*
X43107275Y56417769D01*
X42977335Y56454873D01*
X42866777Y56490908D01*
X42793207Y56521182D01*
X42694799Y56581490D01*
X42544182Y56717376D01*
X42437989Y56878033D01*
X42365635Y57030975D01*
X42154084Y57080712D01*
X42034720Y57110067D01*
X41874152Y57152088D01*
X41729665Y57192279D01*
X41516798Y57254110D01*
X41534986Y57372124D01*
X41540199Y57402078D01*
X41565653Y57514519D01*
X41597329Y57625302D01*
X41641484Y57760468D01*
X41951301Y57676645D01*
X42056403Y57649023D01*
X42175680Y57619791D01*
X42267335Y57599755D01*
X42317301Y57592164D01*
X42325158Y57592902D01*
X42384462Y57613173D01*
X42472761Y57655607D01*
X42574055Y57712691D01*
X42774624Y57833877D01*
X43169524Y57737416D01*
G37*
G36*
X25857523Y56119851D02*
G01*
X25899193Y56024502D01*
X25929263Y55945651D01*
X25940821Y55897903D01*
X25940821Y55897893D01*
X25940039Y55885389D01*
X25934224Y55874260D01*
X25918172Y55863374D01*
X25886679Y55851604D01*
X25834543Y55837818D01*
X25756559Y55820887D01*
X25647524Y55799681D01*
X25502235Y55773071D01*
X25315489Y55739927D01*
X25082081Y55699118D01*
X24796808Y55649516D01*
X24637607Y55621929D01*
X24418705Y55584257D01*
X24221558Y55550630D01*
X24053226Y55522237D01*
X23920769Y55500267D01*
X23831250Y55485908D01*
X23791726Y55480348D01*
X23756141Y55496616D01*
X23718314Y55568483D01*
X23687594Y55697291D01*
X23664081Y55882725D01*
X23646567Y56070980D01*
X23743808Y56126437D01*
X23762159Y56137221D01*
X23775797Y56145470D01*
X24449259Y56145470D01*
X24565109Y56146383D01*
X24641083Y56152273D01*
X24742943Y56168656D01*
X24845097Y56191232D01*
X24928269Y56215686D01*
X24973186Y56237705D01*
X24974823Y56240393D01*
X24969493Y56280206D01*
X24942509Y56344402D01*
X24895685Y56434951D01*
X24751333Y56354334D01*
X24695251Y56321713D01*
X24599623Y56261043D01*
X24528120Y56209593D01*
X24449259Y56145470D01*
X23775797Y56145470D01*
X23832331Y56179666D01*
X23941479Y56246467D01*
X24082810Y56333440D01*
X24249534Y56436401D01*
X24434858Y56551168D01*
X24631992Y56673556D01*
X24735962Y56737852D01*
X24924189Y56852453D01*
X25092106Y56952345D01*
X25233995Y57034259D01*
X25344139Y57094923D01*
X25416823Y57131067D01*
X25446330Y57139422D01*
X25448757Y57136093D01*
X25469824Y57091820D01*
X25499612Y57017317D01*
X25530422Y56933396D01*
X25554555Y56860867D01*
X25564310Y56820541D01*
X25564296Y56820436D01*
X25539785Y56803577D01*
X25477465Y56767659D01*
X25390536Y56720297D01*
X25328782Y56686254D01*
X25254692Y56634031D01*
X25224696Y56581104D01*
X25232978Y56512112D01*
X25273726Y56411693D01*
X25293503Y56369428D01*
X25326735Y56316791D01*
X25364746Y56299616D01*
X25425142Y56305565D01*
X25512499Y56323868D01*
X25604835Y56348604D01*
X25670660Y56367017D01*
X25715092Y56375085D01*
X25732000Y56358812D01*
X25767016Y56301612D01*
X25798990Y56240393D01*
X25811161Y56217090D01*
X25857523Y56119851D01*
G37*
G36*
X42031896Y56661387D02*
G01*
X42134262Y56623162D01*
X42265361Y56564142D01*
X42369101Y56514580D01*
X42436856Y56471268D01*
X42468439Y56423607D01*
X42467022Y56359448D01*
X42435773Y56266639D01*
X42377865Y56133032D01*
X42358341Y56088421D01*
X42329448Y56028171D01*
X42299965Y55993915D01*
X42259269Y55984801D01*
X42196742Y55999976D01*
X42101761Y56038586D01*
X41963707Y56099779D01*
X41912058Y56122095D01*
X41809581Y56162921D01*
X41732210Y56189039D01*
X41693652Y56195584D01*
X41688950Y56191980D01*
X41697637Y56158835D01*
X41738388Y56101657D01*
X41801585Y56030698D01*
X41877606Y55956205D01*
X41956832Y55888429D01*
X42029643Y55837619D01*
X42037065Y55833370D01*
X42108442Y55796819D01*
X42208533Y55749943D01*
X42323810Y55698555D01*
X42440742Y55648467D01*
X42545799Y55605494D01*
X42625453Y55575446D01*
X42666172Y55564139D01*
X42679558Y55572096D01*
X42672226Y55608700D01*
X42634960Y55680208D01*
X42565258Y55792270D01*
X42543629Y55825640D01*
X42494925Y55905110D01*
X42479795Y55954372D01*
X42504017Y55983957D01*
X42573370Y56004394D01*
X42693632Y56026213D01*
X42777114Y56040718D01*
X42881169Y56054377D01*
X42949224Y56049307D01*
X42994565Y56019812D01*
X43030480Y55960199D01*
X43070253Y55864771D01*
X43108079Y55758982D01*
X43138926Y55649374D01*
X43152979Y55567907D01*
X43158951Y55462771D01*
X42840365Y55295758D01*
X42793262Y55271167D01*
X42661121Y55205637D01*
X42553479Y55163505D01*
X42457526Y55144999D01*
X42360450Y55150344D01*
X42249439Y55179766D01*
X42111684Y55233491D01*
X41934371Y55311745D01*
X41857944Y55346827D01*
X41633652Y55461337D01*
X41459323Y55573087D01*
X41329472Y55687625D01*
X41238614Y55810502D01*
X41181265Y55947268D01*
X41151939Y56103473D01*
X41139770Y56223096D01*
X41134915Y56321839D01*
X41146713Y56391484D01*
X41182669Y56441954D01*
X41250286Y56483167D01*
X41357069Y56525044D01*
X41510522Y56577506D01*
X41611575Y56611614D01*
X41748102Y56653930D01*
X41853725Y56676507D01*
X41943353Y56679080D01*
X42031896Y56661387D01*
G37*
G36*
X25926777Y53160174D02*
G01*
X25967630Y53136596D01*
X26033959Y53078539D01*
X26116232Y52996564D01*
X26204918Y52901230D01*
X26290487Y52803099D01*
X26363408Y52712731D01*
X26414150Y52640685D01*
X26433182Y52597522D01*
X26428004Y52588579D01*
X26390451Y52597742D01*
X26323831Y52637505D01*
X26236785Y52701744D01*
X26137951Y52784332D01*
X26035969Y52879144D01*
X26032086Y52882961D01*
X25935160Y52981643D01*
X25877242Y53049879D01*
X25853349Y53094496D01*
X25858501Y53122321D01*
X25877394Y53140096D01*
X25925296Y53160262D01*
X25926777Y53160174D01*
G37*
G36*
X27228753Y53160280D02*
G01*
X27254446Y53135900D01*
X27274490Y53110604D01*
X27279875Y53083306D01*
X27260379Y53048251D01*
X27209890Y52995170D01*
X27122297Y52913790D01*
X27107168Y52900064D01*
X27001594Y52809057D01*
X26896216Y52724937D01*
X26811779Y52664368D01*
X26761333Y52633477D01*
X26699969Y52601559D01*
X26670716Y52594488D01*
X26669880Y52595629D01*
X26681668Y52628988D01*
X26728667Y52694364D01*
X26804713Y52784421D01*
X26903640Y52891825D01*
X27019284Y53009240D01*
X27023839Y53013721D01*
X27110592Y53097855D01*
X27166928Y53146699D01*
X27202947Y53165694D01*
X27228753Y53160280D01*
G37*
G36*
X39809237Y52994000D02*
G01*
X39862165Y52949363D01*
X39938532Y52868045D01*
X40004455Y52794341D01*
X40107427Y52673695D01*
X40173189Y52586555D01*
X40204862Y52528567D01*
X40205563Y52495379D01*
X40198705Y52485954D01*
X40166273Y52465165D01*
X40165144Y52465405D01*
X40134150Y52488815D01*
X40072002Y52544953D01*
X39987132Y52625980D01*
X39887969Y52724052D01*
X39630282Y52982939D01*
X39713565Y53003842D01*
X39720287Y53005471D01*
X39766395Y53010016D01*
X39809237Y52994000D01*
G37*
G36*
X41053514Y53025224D02*
G01*
X41059179Y52978142D01*
X41041331Y52928823D01*
X40988605Y52851173D01*
X40911613Y52759701D01*
X40821094Y52666203D01*
X40727785Y52582476D01*
X40642424Y52520315D01*
X40610121Y52501093D01*
X40547185Y52470797D01*
X40516792Y52474604D01*
X40508894Y52511879D01*
X40510647Y52519576D01*
X40541056Y52567586D01*
X40601417Y52640636D01*
X40681489Y52728168D01*
X40771028Y52819623D01*
X40859791Y52904441D01*
X40937534Y52972066D01*
X40994014Y53011937D01*
X41025360Y53027122D01*
X41053514Y53025224D01*
G37*
G36*
X35358547Y52845465D02*
G01*
X35414440Y52795432D01*
X35498360Y52715032D01*
X35434853Y52647432D01*
X35398937Y52603609D01*
X35386760Y52554734D01*
X35405912Y52484239D01*
X35419750Y52443798D01*
X35437798Y52358722D01*
X35423632Y52304942D01*
X35375314Y52268815D01*
X35301886Y52240540D01*
X35246967Y52246393D01*
X35193349Y52292441D01*
X35168657Y52323595D01*
X35155005Y52373232D01*
X35173088Y52444493D01*
X35176909Y52456392D01*
X35192302Y52553217D01*
X35189913Y52655303D01*
X35189457Y52658621D01*
X35184171Y52736822D01*
X35202057Y52783966D01*
X35252074Y52824433D01*
X35277174Y52840561D01*
X35320595Y52859114D01*
X35358547Y52845465D01*
G37*
G36*
X26381343Y52287960D02*
G01*
X26386518Y52255928D01*
X26347054Y52189814D01*
X26262601Y52089109D01*
X26132811Y51953303D01*
X26071998Y51892808D01*
X25992757Y51816350D01*
X25934978Y51763561D01*
X25908165Y51743326D01*
X25891311Y51749980D01*
X25852863Y51785840D01*
X25843497Y51799066D01*
X25838957Y51832419D01*
X25865389Y51877856D01*
X25928963Y51948567D01*
X25940606Y51960595D01*
X26039668Y52056165D01*
X26142778Y52145848D01*
X26238737Y52220826D01*
X26316343Y52272280D01*
X26364395Y52291391D01*
X26381343Y52287960D01*
G37*
G36*
X26734910Y52301887D02*
G01*
X26806753Y52250731D01*
X26896467Y52176682D01*
X26993512Y52089555D01*
X27087342Y51999165D01*
X27167417Y51915325D01*
X27223193Y51847851D01*
X27244128Y51806557D01*
X27239230Y51789086D01*
X27207925Y51744682D01*
X27194049Y51736541D01*
X27163030Y51743324D01*
X27114367Y51778186D01*
X27041274Y51846342D01*
X26936971Y51953007D01*
X26843500Y52054209D01*
X26751862Y52164054D01*
X26694148Y52247956D01*
X26673288Y52301522D01*
X26692209Y52320353D01*
X26734910Y52301887D01*
G37*
G36*
X26576004Y53311353D02*
G01*
X26627268Y53270634D01*
X26662481Y53222840D01*
X26692096Y53111198D01*
X26687382Y52963059D01*
X26648061Y52784911D01*
X26625492Y52704849D01*
X26616687Y52647659D01*
X26627333Y52610539D01*
X26658349Y52574674D01*
X26685951Y52550355D01*
X26726086Y52533574D01*
X26785688Y52534073D01*
X26883224Y52549809D01*
X26962658Y52563255D01*
X27123915Y52578999D01*
X27242277Y52569962D01*
X27324571Y52535929D01*
X27366345Y52487792D01*
X27388307Y52416895D01*
X27381165Y52349982D01*
X27343127Y52308971D01*
X27322091Y52302466D01*
X27215102Y52292452D01*
X27071004Y52303616D01*
X26902690Y52335190D01*
X26814947Y52354566D01*
X26744356Y52363645D01*
X26696325Y52356710D01*
X26652653Y52333648D01*
X26584761Y52289163D01*
X26639302Y52113922D01*
X26654294Y52063671D01*
X26686561Y51917656D01*
X26689787Y51800894D01*
X26664931Y51697796D01*
X26642159Y51652881D01*
X26602194Y51630395D01*
X26527360Y51630746D01*
X26418700Y51639738D01*
X26410727Y51813512D01*
X26410539Y51881727D01*
X26422035Y52021790D01*
X26445108Y52146579D01*
X26465092Y52226211D01*
X26473186Y52286571D01*
X26462772Y52325484D01*
X26432780Y52361572D01*
X26430765Y52363620D01*
X26397266Y52392583D01*
X26361059Y52402884D01*
X26304550Y52395208D01*
X26210144Y52370241D01*
X26203003Y52368248D01*
X26016042Y52323081D01*
X25876610Y52305602D01*
X25781271Y52316173D01*
X25726587Y52355155D01*
X25709122Y52422909D01*
X25709730Y52447048D01*
X25728352Y52532949D01*
X25777026Y52586149D01*
X25861220Y52608406D01*
X25986402Y52601475D01*
X26158039Y52567113D01*
X26248745Y52546098D01*
X26344234Y52529386D01*
X26404191Y52530653D01*
X26440559Y52550821D01*
X26465279Y52590810D01*
X26476931Y52626890D01*
X26477027Y52701220D01*
X26451597Y52808500D01*
X26439763Y52853625D01*
X26420713Y52991906D01*
X26425627Y53121085D01*
X26452950Y53225992D01*
X26501124Y53291454D01*
X26536645Y53312578D01*
X26576004Y53311353D01*
G37*
G36*
X40181287Y52175523D02*
G01*
X40212944Y52164382D01*
X40211415Y52129992D01*
X40174332Y52068371D01*
X40099325Y51975535D01*
X39984024Y51847501D01*
X39905473Y51763201D01*
X39829736Y51684972D01*
X39778788Y51639584D01*
X39744531Y51621349D01*
X39718866Y51624579D01*
X39693695Y51643586D01*
X39659495Y51681832D01*
X39646559Y51715745D01*
X39669039Y51745104D01*
X39726325Y51802587D01*
X39807056Y51877159D01*
X39900284Y51959370D01*
X39995058Y52039766D01*
X40080430Y52108895D01*
X40145450Y52157305D01*
X40179167Y52175541D01*
X40181287Y52175523D01*
G37*
G36*
X40573394Y52129420D02*
G01*
X40658781Y52069828D01*
X40781541Y51967696D01*
X40867642Y51892221D01*
X40954281Y51813525D01*
X41008056Y51758343D01*
X41035573Y51718574D01*
X41043438Y51686118D01*
X41038257Y51652873D01*
X41020343Y51620600D01*
X40970784Y51596294D01*
X40954378Y51600743D01*
X40897725Y51639844D01*
X40822185Y51709914D01*
X40737724Y51799527D01*
X40654303Y51897255D01*
X40581886Y51991671D01*
X40530438Y52071347D01*
X40509920Y52124857D01*
X40524190Y52147160D01*
X40573394Y52129420D01*
G37*
G36*
X37077194Y62368673D02*
G01*
X37057193Y62294078D01*
X37031617Y62211003D01*
X37009565Y62139790D01*
X36998836Y62105145D01*
X36972404Y62007114D01*
X36955577Y61917391D01*
X36947255Y61822758D01*
X36946340Y61709999D01*
X36951734Y61565896D01*
X36962340Y61377231D01*
X36971843Y61217899D01*
X36984431Y61006857D01*
X37117529Y61024819D01*
X37138588Y61027739D01*
X37242103Y61043096D01*
X37372988Y61063527D01*
X37508046Y61085433D01*
X37637962Y61103009D01*
X37794870Y61113477D01*
X37918629Y61108947D01*
X38071794Y61089810D01*
X37975404Y60878296D01*
X37933353Y60785055D01*
X37905679Y60716288D01*
X37898937Y60678589D01*
X37911398Y60660375D01*
X37941331Y60650064D01*
X37992754Y60643602D01*
X38088799Y60638171D01*
X38215302Y60634431D01*
X38358438Y60632950D01*
X38432310Y60632609D01*
X38566234Y60629587D01*
X38652795Y60622807D01*
X38699344Y60611481D01*
X38713227Y60594819D01*
X38710441Y60580840D01*
X38688210Y60519734D01*
X38648584Y60427322D01*
X38597378Y60317522D01*
X38571420Y60263197D01*
X38525302Y60162918D01*
X38493427Y60088319D01*
X38481528Y60052513D01*
X38482683Y60047495D01*
X38520030Y60021671D01*
X38611024Y59992290D01*
X38757029Y59958978D01*
X38959407Y59921360D01*
X39062613Y59903061D01*
X39216507Y59872521D01*
X39323791Y59844974D01*
X39391597Y59817947D01*
X39427052Y59788967D01*
X39437286Y59755560D01*
X39424284Y59722991D01*
X39376493Y59654406D01*
X39300979Y59563855D01*
X39205587Y59461303D01*
X39122311Y59373416D01*
X39045338Y59286440D01*
X38993122Y59220600D01*
X38973889Y59185682D01*
X38976038Y59176681D01*
X39004158Y59125661D01*
X39058020Y59047785D01*
X39128913Y58955961D01*
X39157354Y58920410D01*
X39254293Y58795285D01*
X39359499Y58655042D01*
X39454740Y58523863D01*
X39473722Y58497103D01*
X39597436Y58320849D01*
X39688803Y58184806D01*
X39713220Y58144118D01*
X39749680Y58083363D01*
X39781926Y58010911D01*
X39787397Y57961841D01*
X39767952Y57930544D01*
X39725449Y57911409D01*
X39661745Y57898827D01*
X39604655Y57889570D01*
X39493433Y57870369D01*
X39356518Y57845920D01*
X39211541Y57819336D01*
X38884428Y57758513D01*
X38892955Y57334701D01*
X38901483Y56910889D01*
X38814281Y56914406D01*
X38767002Y56923358D01*
X38673321Y56952261D01*
X38553844Y56996138D01*
X38423289Y57049889D01*
X38296825Y57104432D01*
X38165491Y57158665D01*
X38072935Y57191543D01*
X38011100Y57204509D01*
X37971929Y57199009D01*
X37947362Y57176484D01*
X37929344Y57138378D01*
X37923929Y57119947D01*
X37912022Y57037309D01*
X37905503Y56922692D01*
X37905678Y56795040D01*
X37907484Y56659016D01*
X37899632Y56527998D01*
X37877664Y56445975D01*
X37838827Y56408309D01*
X37780371Y56410361D01*
X37699544Y56447491D01*
X37636075Y56474508D01*
X37557484Y56489909D01*
X37516334Y56489018D01*
X37505839Y56475177D01*
X37539668Y56433654D01*
X37606932Y56374743D01*
X37742662Y56299819D01*
X37901151Y56248994D01*
X38061846Y56230274D01*
X38101592Y56230040D01*
X38172767Y56225780D01*
X38233582Y56211474D01*
X38298354Y56181138D01*
X38381404Y56128792D01*
X38497049Y56048452D01*
X38530987Y56024362D01*
X38648788Y55935640D01*
X38732763Y55859840D01*
X38796073Y55783836D01*
X38851876Y55694500D01*
X38894606Y55622846D01*
X38971043Y55503439D01*
X39061186Y55369135D01*
X39153344Y55237650D01*
X39166629Y55219064D01*
X39281495Y55049464D01*
X39386742Y54879009D01*
X39477345Y54717142D01*
X39548282Y54573302D01*
X39594529Y54456933D01*
X39611061Y54377473D01*
X39602506Y54339818D01*
X39556279Y54253109D01*
X39474796Y54138357D01*
X39363535Y54001332D01*
X39227975Y53847804D01*
X39073595Y53683543D01*
X38905874Y53514318D01*
X38730290Y53345900D01*
X38552323Y53184058D01*
X38377451Y53034563D01*
X38211153Y52903184D01*
X38114196Y52831789D01*
X37891853Y52677782D01*
X37661976Y52530385D01*
X37430642Y52392598D01*
X37203927Y52267426D01*
X36987909Y52157870D01*
X36788666Y52066935D01*
X36612273Y51997622D01*
X36464809Y51952934D01*
X36352350Y51935875D01*
X36280973Y51949447D01*
X36239181Y51989750D01*
X36232822Y52059692D01*
X36234869Y52091561D01*
X36234608Y52178529D01*
X36231301Y52308434D01*
X36225376Y52472771D01*
X36217262Y52663032D01*
X36207384Y52870710D01*
X36196171Y53087299D01*
X36184049Y53304291D01*
X36171447Y53513181D01*
X36158791Y53705461D01*
X36146509Y53872624D01*
X36135029Y54006165D01*
X36120054Y54130986D01*
X36095784Y54290398D01*
X36064818Y54468701D01*
X36029168Y54656387D01*
X35990850Y54843951D01*
X35951877Y55021888D01*
X35914262Y55180692D01*
X35880020Y55310859D01*
X35851165Y55402881D01*
X35829711Y55447255D01*
X35809758Y55464927D01*
X35793969Y55466605D01*
X35789108Y55438747D01*
X35795436Y55374568D01*
X35811962Y55274851D01*
X35813216Y55267284D01*
X35842709Y55110111D01*
X35843170Y55107715D01*
X35894377Y54820853D01*
X35935974Y54541267D01*
X35936705Y54536351D01*
X35971033Y54244181D01*
X35998244Y53934313D01*
X36008998Y53761231D01*
X36019220Y53596718D01*
X36034843Y53221367D01*
X36045995Y52798232D01*
X36047072Y52747407D01*
X36052419Y52535080D01*
X36058586Y52342754D01*
X36065238Y52178014D01*
X36072038Y52048442D01*
X36078650Y51961622D01*
X36084737Y51925138D01*
X36087522Y51879839D01*
X36047528Y51828906D01*
X35976029Y51785038D01*
X35885730Y51758851D01*
X35848175Y51753707D01*
X35790396Y51752605D01*
X35763275Y51775351D01*
X35748158Y51831843D01*
X35747456Y51835631D01*
X35740445Y51903403D01*
X35734335Y52013342D01*
X35729760Y52151080D01*
X35727357Y52302252D01*
X35724288Y52449781D01*
X35715957Y52640269D01*
X35703879Y52822645D01*
X35689464Y52972007D01*
X35654317Y53261630D01*
X35614307Y53135493D01*
X35587990Y53067324D01*
X35537951Y53002114D01*
X35453034Y52950442D01*
X35347112Y52912652D01*
X35250364Y52914673D01*
X35153536Y52961695D01*
X35043663Y53057097D01*
X34984091Y53119350D01*
X34941141Y53179832D01*
X34922934Y53242895D01*
X34919156Y53331245D01*
X34920030Y53364305D01*
X34935205Y53472880D01*
X34964996Y53550847D01*
X34979817Y53575725D01*
X34995362Y53624279D01*
X34993307Y53688652D01*
X34974444Y53788767D01*
X34957182Y53855180D01*
X34939111Y53907689D01*
X35156851Y53907689D01*
X35171985Y53854410D01*
X35213289Y53820075D01*
X35262314Y53823674D01*
X35271408Y53830584D01*
X35278544Y53847812D01*
X35478530Y53847812D01*
X35490987Y53696486D01*
X35516659Y53563133D01*
X35554596Y53467170D01*
X35571210Y53440923D01*
X35609919Y53385200D01*
X35631097Y53362999D01*
X35632506Y53365704D01*
X35636670Y53408681D01*
X35639983Y53495898D01*
X35642135Y53616901D01*
X35642820Y53761231D01*
X35641788Y53905264D01*
X35636488Y54079651D01*
X35626063Y54200342D01*
X35609808Y54269813D01*
X35587015Y54290540D01*
X35556981Y54264999D01*
X35518998Y54195667D01*
X35497053Y54126709D01*
X35480235Y53997692D01*
X35478894Y53879836D01*
X35478530Y53847812D01*
X35278544Y53847812D01*
X35291810Y53879836D01*
X35275959Y53934052D01*
X35230082Y53965776D01*
X35200882Y53963716D01*
X35161289Y53927660D01*
X35156851Y53907689D01*
X34939111Y53907689D01*
X34910380Y53991171D01*
X34856198Y54112857D01*
X34810404Y54209727D01*
X34781521Y54317676D01*
X34787883Y54423350D01*
X34827960Y54550456D01*
X34878424Y54680787D01*
X34839546Y54742589D01*
X35341668Y54742589D01*
X35363352Y54681725D01*
X35429137Y54605166D01*
X35486447Y54548308D01*
X35541683Y54503508D01*
X35573145Y54499879D01*
X35583645Y54541267D01*
X35575998Y54631519D01*
X35553018Y54774480D01*
X35520745Y54959806D01*
X35448990Y54892702D01*
X35434890Y54879389D01*
X35365156Y54803298D01*
X35341668Y54742589D01*
X34839546Y54742589D01*
X34797775Y54808990D01*
X34759472Y54874574D01*
X34705417Y55012045D01*
X34696919Y55145746D01*
X34731426Y55294348D01*
X34751530Y55359875D01*
X34764984Y55421519D01*
X35267063Y55421519D01*
X35269955Y55415794D01*
X35305346Y55383875D01*
X35368026Y55339681D01*
X35391810Y55324492D01*
X35451191Y55288787D01*
X35480806Y55274515D01*
X35481800Y55274851D01*
X35480297Y55307964D01*
X35460181Y55394241D01*
X35421774Y55532274D01*
X35416126Y55544694D01*
X35389960Y55546525D01*
X35338355Y55505504D01*
X35332051Y55499516D01*
X35285812Y55450637D01*
X35267063Y55421519D01*
X34764984Y55421519D01*
X34767139Y55431393D01*
X34765937Y55466352D01*
X34754721Y55470755D01*
X34698635Y55472717D01*
X34616389Y55464485D01*
X34565615Y55455829D01*
X34516929Y55438725D01*
X34491582Y55406413D01*
X34487031Y55348591D01*
X34500732Y55254961D01*
X34530141Y55115222D01*
X34605864Y54741644D01*
X34693407Y54200674D01*
X34756916Y53644076D01*
X34797776Y53058924D01*
X34817371Y52432292D01*
X34818881Y52316687D01*
X34820738Y52059223D01*
X34819752Y51855853D01*
X34815942Y51707520D01*
X34809327Y51615163D01*
X34799927Y51579724D01*
X34797895Y51578548D01*
X34744294Y51564566D01*
X34667968Y51559150D01*
X34595519Y51562730D01*
X34553548Y51575738D01*
X34547985Y51604823D01*
X34543258Y51683403D01*
X34540180Y51801527D01*
X34538993Y51949602D01*
X34539937Y52118032D01*
X34538211Y52492943D01*
X34523224Y52910966D01*
X34495663Y53331113D01*
X34456633Y53743429D01*
X34407235Y54137954D01*
X34348573Y54504733D01*
X34281750Y54833808D01*
X34207870Y55115222D01*
X34191606Y55168451D01*
X34152161Y55290192D01*
X34122648Y55363569D01*
X34099417Y55394282D01*
X34078817Y55388034D01*
X34057197Y55350524D01*
X34043651Y55307631D01*
X34043653Y55233031D01*
X34067158Y55125244D01*
X34077605Y55085392D01*
X34115560Y54922112D01*
X34154459Y54731331D01*
X34190430Y54533942D01*
X34219601Y54350836D01*
X34238101Y54202908D01*
X34247679Y54114938D01*
X34265305Y53981256D01*
X34283263Y53869840D01*
X34305299Y53730475D01*
X34330109Y53519387D01*
X34352245Y53272557D01*
X34370891Y53002101D01*
X34385232Y52720135D01*
X34394452Y52438775D01*
X34397734Y52170136D01*
X34397834Y51542039D01*
X34303706Y51530358D01*
X34171079Y51520772D01*
X33993396Y51517879D01*
X33783385Y51521005D01*
X33553614Y51529456D01*
X33316654Y51542538D01*
X33085074Y51559557D01*
X32871444Y51579819D01*
X32688332Y51602629D01*
X32548310Y51627294D01*
X32042925Y51752927D01*
X31554404Y51903335D01*
X31107333Y52072292D01*
X30706723Y52257898D01*
X30357583Y52458253D01*
X30054741Y52665761D01*
X29635623Y52992522D01*
X29228737Y53354041D01*
X28848145Y53737606D01*
X28507909Y54130502D01*
X28409729Y54256898D01*
X28278333Y54434339D01*
X28135800Y54633738D01*
X27989871Y54843782D01*
X27848286Y55053157D01*
X27718787Y55250550D01*
X27609113Y55424648D01*
X27527005Y55564139D01*
X27505930Y55603647D01*
X27441937Y55735910D01*
X27371259Y55895163D01*
X27302151Y56061759D01*
X27242868Y56216053D01*
X27201664Y56338400D01*
X27197005Y56363356D01*
X27202995Y56400882D01*
X27229083Y56442143D01*
X27280362Y56491199D01*
X27361925Y56552109D01*
X27478866Y56628933D01*
X27636277Y56725729D01*
X27839252Y56846558D01*
X27873052Y56866504D01*
X28033132Y56961085D01*
X28179366Y57047661D01*
X28302738Y57120885D01*
X28394232Y57175406D01*
X28444833Y57205876D01*
X28471594Y57225233D01*
X28510947Y57269256D01*
X28550876Y57338220D01*
X28596890Y57442258D01*
X28654500Y57591505D01*
X28656535Y57596979D01*
X28703101Y57726814D01*
X28739613Y57837211D01*
X28762455Y57916641D01*
X28768013Y57953577D01*
X28761366Y57961141D01*
X28712746Y57991189D01*
X28628463Y58032705D01*
X28521498Y58079080D01*
X28487689Y58093270D01*
X28369042Y58148347D01*
X28266418Y58203400D01*
X28198965Y58248378D01*
X28112448Y58321177D01*
X28177889Y58438043D01*
X28191710Y58461132D01*
X28251478Y58548239D01*
X28331693Y58654196D01*
X28418967Y58761063D01*
X28447157Y58794380D01*
X28539483Y58906179D01*
X28624617Y59012795D01*
X28687116Y59094995D01*
X28734629Y59162676D01*
X28759130Y59210693D01*
X28755889Y59244143D01*
X28728697Y59279883D01*
X28692497Y59312047D01*
X28615667Y59370590D01*
X28512613Y59443884D01*
X28395382Y59523136D01*
X28289267Y59594769D01*
X28197735Y59659992D01*
X28135782Y59708147D01*
X28112999Y59732134D01*
X28135038Y59792505D01*
X28148815Y59810147D01*
X28571849Y59810147D01*
X28573136Y59784149D01*
X28596439Y59753296D01*
X28648746Y59711475D01*
X28737044Y59652575D01*
X28868319Y59570484D01*
X28989786Y59492237D01*
X29106216Y59409755D01*
X29192098Y59340139D01*
X29237379Y59291004D01*
X29239354Y59287680D01*
X29268186Y59230830D01*
X29261139Y59194547D01*
X29213569Y59151660D01*
X29187029Y59129153D01*
X29117104Y59065699D01*
X29026656Y58980572D01*
X28928575Y58885799D01*
X28830164Y58784786D01*
X28717914Y58654388D01*
X28636896Y58540263D01*
X28591716Y58449127D01*
X28586977Y58387693D01*
X28612592Y58357543D01*
X28692308Y58307732D01*
X28819141Y58249571D01*
X28987755Y58185749D01*
X29030894Y58168442D01*
X29104357Y58126253D01*
X29140546Y58085812D01*
X29135968Y58036678D01*
X29102149Y57948538D01*
X29042506Y57834269D01*
X28993184Y57742731D01*
X28923352Y57592436D01*
X28864407Y57441450D01*
X28820711Y57302577D01*
X28796626Y57188619D01*
X28796516Y57112379D01*
X28801472Y57093708D01*
X28812629Y57069182D01*
X28833532Y57055617D01*
X28871771Y57054066D01*
X28934938Y57065580D01*
X29030623Y57091210D01*
X29166417Y57132008D01*
X29349911Y57189025D01*
X29374973Y57196827D01*
X29508816Y57237908D01*
X29620648Y57271280D01*
X29699397Y57293689D01*
X29733990Y57301881D01*
X29750243Y57287006D01*
X29774502Y57224695D01*
X29798889Y57124107D01*
X29820814Y56996459D01*
X29837685Y56852965D01*
X29845745Y56790126D01*
X29868023Y56678765D01*
X29897857Y56567311D01*
X29930763Y56470032D01*
X29962258Y56401201D01*
X29987855Y56375085D01*
X30008040Y56387235D01*
X30065540Y56429009D01*
X30150184Y56493520D01*
X30252191Y56573428D01*
X30374294Y56668977D01*
X30556730Y56805545D01*
X30700233Y56903875D01*
X30803857Y56963335D01*
X30866655Y56983295D01*
X30906626Y56970342D01*
X30952786Y56922615D01*
X30970348Y56895804D01*
X31011507Y56874112D01*
X31084136Y56880484D01*
X31087792Y56881156D01*
X31157575Y56885845D01*
X31183011Y56868758D01*
X31181914Y56864358D01*
X31147446Y56845951D01*
X31079670Y56838483D01*
X30976329Y56838483D01*
X31115667Y56574214D01*
X31158507Y56495779D01*
X31217821Y56396246D01*
X31266497Y56325017D01*
X31296927Y56293857D01*
X31337182Y56305115D01*
X31406956Y56359182D01*
X31499869Y56452383D01*
X31502010Y56454701D01*
X31602156Y56558867D01*
X31710060Y56664612D01*
X31802728Y56749390D01*
X31825926Y56769354D01*
X31894393Y56825383D01*
X31936605Y56849070D01*
X31966165Y56845293D01*
X31996678Y56818930D01*
X32003971Y56810690D01*
X32045496Y56749822D01*
X32099187Y56657029D01*
X32155321Y56548860D01*
X32166833Y56525580D01*
X32224637Y56413560D01*
X32278448Y56316173D01*
X32317914Y56252302D01*
X32373976Y56172961D01*
X32481079Y56227601D01*
X32490565Y56232675D01*
X32569256Y56283852D01*
X32667833Y56358390D01*
X32767253Y56442023D01*
X32794475Y56466151D01*
X32903787Y56557124D01*
X32984547Y56609156D01*
X33045829Y56625068D01*
X33096708Y56607679D01*
X33146260Y56559811D01*
X33159560Y56544032D01*
X33220620Y56472991D01*
X33301791Y56379808D01*
X33389229Y56280405D01*
X33562589Y56084356D01*
X33767503Y56274075D01*
X33822080Y56323607D01*
X33904197Y56393976D01*
X33965000Y56440727D01*
X33994226Y56455642D01*
X34018922Y56434390D01*
X34072941Y56377848D01*
X34147063Y56295979D01*
X34232870Y56198544D01*
X34321947Y56095305D01*
X34405879Y55996022D01*
X34476250Y55910458D01*
X34524644Y55848373D01*
X34542646Y55819529D01*
X34556932Y55804882D01*
X34607811Y55796353D01*
X34610034Y55796437D01*
X34668635Y55820878D01*
X34756031Y55885289D01*
X34865298Y55984608D01*
X34918844Y56035875D01*
X35018721Y56119716D01*
X35101752Y56161783D01*
X35181905Y56163992D01*
X35273147Y56128259D01*
X35389443Y56056499D01*
X35404558Y56046516D01*
X35531112Y55973943D01*
X35624142Y55942752D01*
X35681651Y55953268D01*
X35701643Y56005815D01*
X35703362Y56040386D01*
X35717709Y56143438D01*
X35742743Y56261419D01*
X35773802Y56376253D01*
X35806222Y56469863D01*
X35835342Y56524175D01*
X35872050Y56554557D01*
X35931353Y56572296D01*
X36014023Y56566350D01*
X36129447Y56535795D01*
X36287015Y56479708D01*
X36392245Y56438997D01*
X36468764Y56413719D01*
X36518610Y56412351D01*
X36548429Y56441623D01*
X36564867Y56508263D01*
X36574569Y56618999D01*
X36584181Y56780559D01*
X36590376Y56872011D01*
X36600470Y56996459D01*
X36610386Y57094265D01*
X36618667Y57149829D01*
X36637846Y57189900D01*
X36689427Y57211915D01*
X36775044Y57196611D01*
X36899740Y57143883D01*
X36970453Y57112261D01*
X37048772Y57091917D01*
X37109717Y57100628D01*
X37138726Y57110441D01*
X37171227Y57105862D01*
X37178221Y57057749D01*
X37191314Y57009499D01*
X37238690Y56959609D01*
X37330274Y56899405D01*
X37398173Y56858694D01*
X37486607Y56803460D01*
X37547492Y56762777D01*
X37612657Y56715569D01*
X37612657Y56931870D01*
X37612739Y56953300D01*
X37615821Y57096230D01*
X37622462Y57259821D01*
X37631438Y57412754D01*
X37650218Y57677338D01*
X37725565Y57660020D01*
X37798352Y57637849D01*
X37885009Y57602623D01*
X37961296Y57575135D01*
X38037061Y57562543D01*
X38080322Y57553720D01*
X38105017Y57523034D01*
X38124289Y57493535D01*
X38187276Y57457345D01*
X38298320Y57413313D01*
X38461747Y57359457D01*
X38485444Y57352486D01*
X38552299Y57337789D01*
X38585729Y57338504D01*
X38588490Y57357167D01*
X38587492Y57423648D01*
X38581470Y57525834D01*
X38571020Y57651031D01*
X38563046Y57743001D01*
X38555485Y57854565D01*
X38552676Y57934639D01*
X38555262Y57970164D01*
X38559291Y57973309D01*
X38605496Y57988051D01*
X38690529Y58006068D01*
X38799886Y58024160D01*
X38808073Y58025370D01*
X38942692Y58048279D01*
X39074808Y58075399D01*
X39176923Y58101118D01*
X39321721Y58144118D01*
X39278285Y58228113D01*
X39256311Y58264276D01*
X39202206Y58344330D01*
X39125080Y58453646D01*
X39031640Y58582749D01*
X38928589Y58722167D01*
X38843623Y58836695D01*
X38752922Y58960836D01*
X38679241Y59063787D01*
X38628542Y59137201D01*
X38606785Y59172734D01*
X38605406Y59183055D01*
X38628459Y59232808D01*
X38686002Y59292965D01*
X38765685Y59360434D01*
X38878311Y59458621D01*
X38952646Y59528961D01*
X38993410Y59576539D01*
X39005324Y59606439D01*
X38993110Y59623747D01*
X38985410Y59627618D01*
X38915374Y59651758D01*
X38805051Y59680500D01*
X38668704Y59710648D01*
X38520595Y59739001D01*
X38374986Y59762363D01*
X38263251Y59780591D01*
X38161297Y59801517D01*
X38094458Y59820116D01*
X38019083Y59848774D01*
X38177900Y60109463D01*
X38228164Y60192762D01*
X38284268Y60288038D01*
X38322554Y60355937D01*
X38336716Y60385503D01*
X38331856Y60387838D01*
X38283567Y60392971D01*
X38191792Y60397101D01*
X38066736Y60399854D01*
X37918604Y60400855D01*
X37500491Y60400855D01*
X37590924Y60617512D01*
X37603672Y60648782D01*
X37639492Y60747052D01*
X37659820Y60820445D01*
X37660555Y60854972D01*
X37637845Y60860222D01*
X37566211Y60858407D01*
X37458584Y60847606D01*
X37326943Y60829332D01*
X37183267Y60805101D01*
X37039536Y60776428D01*
X36996793Y60766701D01*
X36928683Y60745556D01*
X36901583Y60721789D01*
X36903916Y60687840D01*
X36905837Y60645479D01*
X36864525Y60632554D01*
X36851960Y60630833D01*
X36827528Y60615433D01*
X36801052Y60579260D01*
X36770128Y60516520D01*
X36732350Y60421419D01*
X36685314Y60288165D01*
X36626617Y60110964D01*
X36553852Y59884023D01*
X36527252Y59798732D01*
X36490001Y59667402D01*
X36469483Y59569228D01*
X36463169Y59490366D01*
X36468529Y59416967D01*
X36473669Y59371707D01*
X36473574Y59366283D01*
X36472284Y59292397D01*
X36450339Y59212719D01*
X36402644Y59108371D01*
X36393337Y59089617D01*
X36358351Y59013234D01*
X36336704Y58945741D01*
X36325675Y58870447D01*
X36322543Y58770661D01*
X36324584Y58629693D01*
X36327741Y58530889D01*
X36334196Y58415150D01*
X36342256Y58330242D01*
X36350872Y58289711D01*
X36358533Y58262842D01*
X36370751Y58186961D01*
X36383936Y58077084D01*
X36396310Y57946620D01*
X36404818Y57851135D01*
X36418487Y57717243D01*
X36431789Y57606541D01*
X36442767Y57536317D01*
X36448083Y57508063D01*
X36449635Y57460197D01*
X36429721Y57458380D01*
X36406646Y57458439D01*
X36396237Y57410629D01*
X36394963Y57394565D01*
X36365662Y57308911D01*
X36303721Y57200181D01*
X36217259Y57081217D01*
X36114397Y56964860D01*
X36039013Y56896552D01*
X35944989Y56833710D01*
X35833304Y56782701D01*
X35697256Y56741950D01*
X35530142Y56709879D01*
X35325260Y56684914D01*
X35075907Y56665478D01*
X34775380Y56649995D01*
X34678908Y56645639D01*
X34526562Y56636918D01*
X34417263Y56626889D01*
X34341132Y56614142D01*
X34288288Y56597266D01*
X34248850Y56574852D01*
X34245046Y56572166D01*
X34183024Y56539770D01*
X34149979Y56551569D01*
X34123734Y56573703D01*
X34056599Y56612613D01*
X33966931Y56655513D01*
X33896726Y56687980D01*
X33787682Y56743978D01*
X33702737Y56793951D01*
X33689722Y56802201D01*
X33591536Y56850259D01*
X33495079Y56879664D01*
X33489793Y56880601D01*
X33432561Y56896015D01*
X33390570Y56926023D01*
X33351448Y56983638D01*
X33302821Y57081873D01*
X33272245Y57143977D01*
X33199702Y57265634D01*
X33111914Y57375254D01*
X32999651Y57482139D01*
X32853681Y57595593D01*
X32664773Y57724919D01*
X32643975Y57738662D01*
X32501021Y57837705D01*
X32368621Y57939505D01*
X32234692Y58054351D01*
X32087152Y58192532D01*
X31913919Y58364337D01*
X31786910Y58493067D01*
X31635119Y58649352D01*
X31516312Y58776620D01*
X31425493Y58881644D01*
X31357669Y58971196D01*
X31307845Y59052049D01*
X31271026Y59130975D01*
X31242218Y59214748D01*
X31216427Y59310139D01*
X31205397Y59356124D01*
X31182843Y59468086D01*
X31171090Y59556137D01*
X31172516Y59604334D01*
X31188172Y59628526D01*
X31216634Y59621653D01*
X31269898Y59575427D01*
X31271281Y59574104D01*
X31318380Y59534781D01*
X31350781Y59527886D01*
X31373000Y59559771D01*
X31389556Y59636783D01*
X31404964Y59765273D01*
X31422281Y59930945D01*
X31121631Y60252943D01*
X31063680Y60315255D01*
X30887529Y60509541D01*
X30747629Y60674968D01*
X30639310Y60819888D01*
X30557899Y60952655D01*
X30498727Y61081620D01*
X30457123Y61215139D01*
X30428416Y61361562D01*
X30422709Y61408281D01*
X30615370Y61408281D01*
X30620660Y61339577D01*
X30624785Y61323597D01*
X30684807Y61170957D01*
X30788330Y60988763D01*
X30932784Y60781611D01*
X30992071Y60704747D01*
X31094802Y60586342D01*
X31197854Y60493993D01*
X31319328Y60412591D01*
X31477325Y60327024D01*
X31526305Y60300874D01*
X31639989Y60221076D01*
X31705264Y60131071D01*
X31728966Y60017825D01*
X31717931Y59868305D01*
X31710820Y59807540D01*
X31701597Y59686601D01*
X31694232Y59541253D01*
X31689875Y59391022D01*
X31684307Y59061805D01*
X31801612Y58884181D01*
X31886586Y58769796D01*
X32016539Y58619518D01*
X32172408Y58456649D01*
X32343002Y58292357D01*
X32517129Y58137809D01*
X32683596Y58004171D01*
X32758118Y57949526D01*
X32851839Y57885081D01*
X32922479Y57841662D01*
X32958738Y57826564D01*
X32989725Y57830493D01*
X33068575Y57857084D01*
X33094527Y57903519D01*
X33091908Y57911194D01*
X33058519Y57957303D01*
X32991510Y58034488D01*
X32896960Y58136151D01*
X32780948Y58255693D01*
X32649552Y58386515D01*
X32620148Y58415398D01*
X32430657Y58606774D01*
X32280425Y58770039D01*
X32164114Y58912179D01*
X32076382Y59040181D01*
X32011891Y59161030D01*
X31965300Y59281713D01*
X31962484Y59290561D01*
X31944647Y59362672D01*
X31952599Y59408722D01*
X31989956Y59453968D01*
X32050451Y59514463D01*
X32123898Y59445463D01*
X32126175Y59443287D01*
X32185002Y59364507D01*
X32225268Y59272764D01*
X32239702Y59227441D01*
X32314503Y59075373D01*
X32422085Y58926909D01*
X32547595Y58803664D01*
X32558693Y58795078D01*
X32636420Y58741176D01*
X32745670Y58671386D01*
X32873085Y58593606D01*
X33005309Y58515730D01*
X33128984Y58445655D01*
X33230755Y58391277D01*
X33297264Y58360492D01*
X33339309Y58370969D01*
X33392953Y58426840D01*
X33451821Y58518301D01*
X33511422Y58634779D01*
X33567266Y58765701D01*
X33614863Y58900492D01*
X33649723Y59028579D01*
X33667355Y59139390D01*
X33663269Y59222349D01*
X33651818Y59258661D01*
X33627216Y59286483D01*
X33576973Y59298009D01*
X33484967Y59300285D01*
X33433224Y59301524D01*
X33353896Y59312524D01*
X33326226Y59333943D01*
X33333621Y59375029D01*
X33369999Y59444510D01*
X34177269Y59444510D01*
X34198829Y59242733D01*
X34205768Y59184899D01*
X34227162Y59078793D01*
X34263288Y58994259D01*
X34323592Y58905794D01*
X34326844Y58901523D01*
X34388980Y58809020D01*
X34418994Y58728968D01*
X34426796Y58635404D01*
X34438422Y58538195D01*
X34480133Y58453985D01*
X34560343Y58374857D01*
X34687457Y58289663D01*
X34764323Y58253941D01*
X34859732Y58234674D01*
X34991562Y58229445D01*
X35150942Y58239618D01*
X35280695Y58275318D01*
X35375687Y58341215D01*
X35445860Y58441961D01*
X35505826Y58559505D01*
X35412469Y58637443D01*
X35361073Y58671970D01*
X35251703Y58723292D01*
X35126375Y58763766D01*
X35026396Y58793089D01*
X34936175Y58827791D01*
X34882466Y58858412D01*
X34870014Y58870379D01*
X34857012Y58894519D01*
X34871595Y58921445D01*
X34921082Y58960230D01*
X35012797Y59019948D01*
X35115450Y59081770D01*
X35240275Y59150597D01*
X35346351Y59202908D01*
X35411181Y59234355D01*
X35474082Y59272144D01*
X35498404Y59297551D01*
X35499771Y59311978D01*
X35514434Y59366283D01*
X35514274Y59381924D01*
X35490888Y59396324D01*
X35434310Y59407052D01*
X35336298Y59415549D01*
X35188607Y59423258D01*
X35073683Y59430151D01*
X34935239Y59443546D01*
X34825816Y59460104D01*
X34759863Y59477981D01*
X34747144Y59483885D01*
X34720324Y59499546D01*
X34723217Y59510034D01*
X34762874Y59516871D01*
X34846347Y59521580D01*
X34980686Y59525686D01*
X35092315Y59529379D01*
X35197681Y59536343D01*
X35266336Y59547749D01*
X35310350Y59565844D01*
X35341792Y59592871D01*
X35361984Y59616057D01*
X35370850Y59636476D01*
X35349427Y59646338D01*
X35288511Y59648675D01*
X35178894Y59646519D01*
X35056603Y59646589D01*
X34920670Y59652300D01*
X34811619Y59662562D01*
X34750909Y59669743D01*
X34685862Y59669473D01*
X34620046Y59654601D01*
X34536673Y59620923D01*
X34418953Y59564235D01*
X34177269Y59444510D01*
X33369999Y59444510D01*
X33383024Y59469388D01*
X33474566Y59584015D01*
X33603242Y59713006D01*
X33764046Y59850455D01*
X33870854Y59934949D01*
X33962613Y60003889D01*
X34030573Y60047272D01*
X34086026Y60071080D01*
X34140261Y60081296D01*
X34204569Y60083904D01*
X34226674Y60084394D01*
X34352567Y60096824D01*
X34457909Y60122612D01*
X34530247Y60157721D01*
X34557127Y60198118D01*
X34556937Y60200239D01*
X34528187Y60235771D01*
X34458576Y60284845D01*
X34359649Y60339210D01*
X34162172Y60436858D01*
X34082922Y60360932D01*
X34049356Y60329894D01*
X33993658Y60287376D01*
X33970731Y60285838D01*
X33979161Y60321524D01*
X34017531Y60390676D01*
X34084426Y60489536D01*
X34178429Y60614349D01*
X34251062Y60702529D01*
X34362387Y60815266D01*
X34452860Y60874146D01*
X34474512Y60882616D01*
X34536361Y60899366D01*
X34585575Y60887602D01*
X34650543Y60842828D01*
X34671838Y60825967D01*
X34724359Y60777472D01*
X34745382Y60746278D01*
X34744348Y60742647D01*
X34710352Y60721493D01*
X34643229Y60702902D01*
X34587432Y60687186D01*
X34525740Y60643727D01*
X34511291Y60588659D01*
X34541204Y60531279D01*
X34612599Y60480882D01*
X34722596Y60446764D01*
X34744596Y60441187D01*
X34830116Y60405995D01*
X34937688Y60349039D01*
X35049257Y60279561D01*
X35109007Y60240143D01*
X35223429Y60173523D01*
X35317793Y60135252D01*
X35408179Y60118097D01*
X35547982Y60104664D01*
X35607552Y60231038D01*
X35660225Y60356775D01*
X35687447Y60474977D01*
X35682569Y60590690D01*
X35647432Y60726791D01*
X35629839Y60787710D01*
X35598307Y60919668D01*
X35567197Y61073252D01*
X35541224Y61226283D01*
X35526550Y61320406D01*
X35500504Y61475048D01*
X35474656Y61615915D01*
X35452897Y61721209D01*
X35450567Y61731567D01*
X35442083Y61784125D01*
X35689877Y61784125D01*
X35825839Y61655663D01*
X35890843Y61590553D01*
X35942145Y61531197D01*
X35961802Y61497063D01*
X35960880Y61490719D01*
X35938841Y61441955D01*
X35896637Y61375565D01*
X35888736Y61364229D01*
X35859148Y61310998D01*
X35842345Y61249270D01*
X35835368Y61162612D01*
X35835259Y61034595D01*
X35839654Y60906978D01*
X35851385Y60809986D01*
X35874249Y60733431D01*
X35912174Y60658084D01*
X35954491Y60571361D01*
X36002735Y60448967D01*
X36042915Y60324073D01*
X36048249Y60304959D01*
X36085115Y60179942D01*
X36115037Y60101126D01*
X36143947Y60059517D01*
X36177778Y60046125D01*
X36222463Y60051959D01*
X36222941Y60052074D01*
X36262550Y60070037D01*
X36296246Y60109785D01*
X36330969Y60182716D01*
X36373657Y60300225D01*
X36408293Y60409893D01*
X36444871Y60575573D01*
X36449543Y60710631D01*
X36423319Y60825756D01*
X36415014Y60849711D01*
X36410816Y60888892D01*
X36428320Y60928993D01*
X36474646Y60982622D01*
X36556910Y61062389D01*
X36721344Y61217899D01*
X36709039Y61388015D01*
X36701861Y61463474D01*
X36690031Y61539889D01*
X36678018Y61576847D01*
X36668779Y61580136D01*
X36617495Y61573370D01*
X36542251Y61548729D01*
X36425200Y61501894D01*
X36425200Y61614757D01*
X36423822Y61659809D01*
X36409853Y61713411D01*
X36370057Y61755958D01*
X36291472Y61805990D01*
X36222991Y61842948D01*
X36079755Y61893110D01*
X35948227Y61894651D01*
X35816363Y61848654D01*
X35689877Y61784125D01*
X35442083Y61784125D01*
X35422262Y61906925D01*
X35408268Y62099174D01*
X35408286Y62109635D01*
X35836975Y62109635D01*
X36138328Y62109240D01*
X36227615Y62108595D01*
X36350034Y62105910D01*
X36445131Y62101652D01*
X36497606Y62096368D01*
X36542677Y62091822D01*
X36603216Y62105491D01*
X36627936Y62139790D01*
X36627825Y62141245D01*
X36600634Y62173170D01*
X36536842Y62216575D01*
X36452769Y62262494D01*
X36364735Y62301958D01*
X36289057Y62326001D01*
X36212053Y62327706D01*
X36095915Y62299026D01*
X35981552Y62244043D01*
X35892148Y62171764D01*
X35836975Y62109635D01*
X35408286Y62109635D01*
X35408598Y62290064D01*
X35423266Y62461341D01*
X35426242Y62475023D01*
X36554501Y62475023D01*
X36570069Y62442633D01*
X36576874Y62435103D01*
X36635468Y62403838D01*
X36695848Y62409743D01*
X36738922Y62445963D01*
X36745595Y62505644D01*
X36743441Y62513784D01*
X36727834Y62548529D01*
X36696764Y62551858D01*
X36631688Y62527297D01*
X36578713Y62501945D01*
X36554501Y62475023D01*
X35426242Y62475023D01*
X35452284Y62594755D01*
X35474888Y62657091D01*
X35503817Y62721739D01*
X35523271Y62746807D01*
X35530940Y62744830D01*
X35577177Y62720622D01*
X35644033Y62677692D01*
X35681151Y62652614D01*
X35733685Y62626145D01*
X35779724Y62629518D01*
X35846541Y62660406D01*
X35867252Y62669753D01*
X35957861Y62700575D01*
X36078396Y62732715D01*
X36208571Y62760561D01*
X36260402Y62770207D01*
X36379747Y62792537D01*
X36476456Y62810789D01*
X36533368Y62821731D01*
X36578309Y62840584D01*
X36614682Y62898108D01*
X36609460Y62981062D01*
X36561533Y63079300D01*
X36551321Y63094537D01*
X36520471Y63148811D01*
X36506677Y63201748D01*
X36510254Y63267421D01*
X36531517Y63359902D01*
X36570779Y63493265D01*
X36572378Y63498555D01*
X36589124Y63569365D01*
X36592701Y63639956D01*
X36582430Y63729031D01*
X36557631Y63855294D01*
X36555627Y63864596D01*
X36485564Y64129094D01*
X36393086Y64390326D01*
X36284254Y64634635D01*
X36165128Y64848364D01*
X36041768Y65017855D01*
X35944202Y65130722D01*
X35627175Y65144049D01*
X35589556Y65145606D01*
X35457078Y65152371D01*
X35363912Y65165132D01*
X35295239Y65191954D01*
X35236237Y65240898D01*
X35172086Y65320029D01*
X35087964Y65437409D01*
X34997287Y65564840D01*
X34954196Y65456805D01*
X34937679Y65419074D01*
X34901018Y65368755D01*
X34858852Y65362435D01*
X34814058Y65358572D01*
X34757020Y65321316D01*
X34705133Y65284176D01*
X34610695Y65264968D01*
X34510775Y65283604D01*
X34426796Y65338939D01*
X34423827Y65342040D01*
X34358702Y65391093D01*
X34296781Y65411345D01*
X34239201Y65435088D01*
X34186449Y65512714D01*
X34176936Y65531639D01*
X34139442Y65590407D01*
X34110410Y65614082D01*
X34103659Y65612249D01*
X34057300Y65585845D01*
X33982156Y65534619D01*
X33890793Y65466986D01*
X33876203Y65455839D01*
X33742873Y65359829D01*
X33631589Y65296551D01*
X33524100Y65259516D01*
X33402158Y65242231D01*
X33247510Y65238207D01*
X33220286Y65238379D01*
X33071941Y65245078D01*
X32960143Y65263416D01*
X32866906Y65296132D01*
X32825083Y65314893D01*
X32761047Y65342545D01*
X32732052Y65353421D01*
X32727031Y65341272D01*
X32715708Y65286072D01*
X32702654Y65201368D01*
X32686869Y65098443D01*
X32663032Y65005844D01*
X32626893Y64947194D01*
X32569214Y64909027D01*
X32480761Y64877879D01*
X32473987Y64875820D01*
X32368675Y64837575D01*
X32285464Y64796410D01*
X32235488Y64758829D01*
X32229878Y64731335D01*
X32250053Y64729032D01*
X32313260Y64737768D01*
X32401538Y64757745D01*
X32463341Y64773090D01*
X32531783Y64784170D01*
X32574895Y64777071D01*
X32611327Y64751213D01*
X32638984Y64724737D01*
X32647289Y64696973D01*
X32611327Y64664596D01*
X32574739Y64638587D01*
X32515462Y64600555D01*
X32495118Y64583713D01*
X32498902Y64553573D01*
X32542430Y64500960D01*
X32612659Y64426204D01*
X32563598Y64216437D01*
X32562578Y64212058D01*
X32538391Y64096852D01*
X32521286Y63994285D01*
X32514908Y63926094D01*
X32489324Y63778855D01*
X32406378Y63629444D01*
X32266290Y63485351D01*
X32069367Y63346978D01*
X32025872Y63321043D01*
X31934746Y63269967D01*
X31875504Y63245185D01*
X31836037Y63242646D01*
X31804238Y63258300D01*
X31782474Y63271679D01*
X31721901Y63292924D01*
X31669036Y63295678D01*
X31646408Y63277237D01*
X31646409Y63277153D01*
X31664478Y63243953D01*
X31707632Y63192213D01*
X31768855Y63127044D01*
X31707632Y63041063D01*
X31671814Y62989500D01*
X31651917Y62945847D01*
X31669674Y62920885D01*
X31727377Y62898022D01*
X31808345Y62869796D01*
X31857854Y62410069D01*
X31878063Y62223405D01*
X31892378Y62085588D01*
X31900222Y61990082D01*
X31901142Y61929193D01*
X31894685Y61895228D01*
X31880397Y61880492D01*
X31857825Y61877293D01*
X31826517Y61877936D01*
X31806609Y61879567D01*
X31747225Y61902712D01*
X31672651Y61958580D01*
X31573096Y62053975D01*
X31544994Y62082202D01*
X31403421Y62209017D01*
X31276472Y62291417D01*
X31153465Y62335072D01*
X31023717Y62345654D01*
X30929410Y62337123D01*
X30861694Y62310575D01*
X30800802Y62255724D01*
X30794799Y62248917D01*
X30734674Y62158036D01*
X30694416Y62060221D01*
X30691988Y62050576D01*
X30668335Y61935163D01*
X30647223Y61797362D01*
X30630276Y61653038D01*
X30619117Y61518056D01*
X30615370Y61408281D01*
X30422709Y61408281D01*
X30407934Y61529243D01*
X30386545Y61745316D01*
X30285177Y61768591D01*
X30176748Y61780251D01*
X30021468Y61774814D01*
X29842131Y61751949D01*
X29654473Y61713042D01*
X29630813Y61707216D01*
X29554856Y61687332D01*
X29509124Y61665547D01*
X29491862Y61631479D01*
X29501311Y61574747D01*
X29535714Y61484968D01*
X29593313Y61351759D01*
X29598242Y61340358D01*
X29638092Y61246319D01*
X29666277Y61176540D01*
X29676967Y61145402D01*
X29676634Y61144222D01*
X29646630Y61129751D01*
X29582839Y61113751D01*
X29502672Y61095808D01*
X29387790Y61065440D01*
X29265240Y61029437D01*
X29147755Y60991896D01*
X29048064Y60956916D01*
X28978900Y60928593D01*
X28952992Y60911026D01*
X28962903Y60889301D01*
X29001280Y60828377D01*
X29061832Y60740324D01*
X29137363Y60635883D01*
X29215409Y60529411D01*
X29295383Y60416161D01*
X29345542Y60337274D01*
X29369411Y60286292D01*
X29370517Y60256758D01*
X29352389Y60242214D01*
X29140241Y60163667D01*
X28929557Y60072445D01*
X28762659Y59983915D01*
X28643977Y59900469D01*
X28577942Y59824495D01*
X28571849Y59810147D01*
X28148815Y59810147D01*
X28200779Y59876688D01*
X28303081Y59975509D01*
X28434754Y60082053D01*
X28588604Y60189407D01*
X28599072Y60196215D01*
X28713417Y60272908D01*
X28806880Y60339704D01*
X28870069Y60389634D01*
X28893593Y60415729D01*
X28880081Y60448113D01*
X28840249Y60518692D01*
X28780361Y60616401D01*
X28706728Y60730609D01*
X28636099Y60840486D01*
X28575021Y60941141D01*
X28533677Y61015858D01*
X28518472Y61053648D01*
X28525107Y61070361D01*
X28561996Y61098122D01*
X28636673Y61131948D01*
X28755276Y61174485D01*
X28923946Y61228378D01*
X29022217Y61260908D01*
X29139537Y61307829D01*
X29215514Y61349694D01*
X29242532Y61382811D01*
X29228667Y61418250D01*
X29192106Y61487864D01*
X29140798Y61576466D01*
X29090825Y61665352D01*
X29057591Y61736008D01*
X29048300Y61773121D01*
X29052234Y61779295D01*
X29094929Y61808125D01*
X29166373Y61838510D01*
X29240194Y61860172D01*
X29362778Y61890685D01*
X29515995Y61925636D01*
X29686073Y61962153D01*
X29859239Y61997365D01*
X30021720Y62028400D01*
X30159742Y62052385D01*
X30259533Y62066449D01*
X30275824Y62068261D01*
X30368967Y62084105D01*
X30422359Y62108861D01*
X30452023Y62149438D01*
X30476767Y62191479D01*
X30532130Y62268146D01*
X30600757Y62352342D01*
X30615283Y62369313D01*
X30679648Y62454884D01*
X30711222Y62526553D01*
X30719613Y62604720D01*
X30721731Y62637943D01*
X30747750Y62751351D01*
X30796595Y62870860D01*
X30842909Y62981151D01*
X30875409Y63113197D01*
X30896648Y63282611D01*
X30898908Y63306508D01*
X30918489Y63460050D01*
X30945385Y63616712D01*
X30974476Y63746009D01*
X30977348Y63756654D01*
X31007367Y63868516D01*
X31046784Y64016154D01*
X31090812Y64181603D01*
X31134660Y64346895D01*
X31144978Y64385589D01*
X31186754Y64537262D01*
X31226338Y64673861D01*
X31259681Y64781703D01*
X31282733Y64847107D01*
X31315030Y64911987D01*
X31395373Y65036501D01*
X31495966Y65165776D01*
X31601592Y65280871D01*
X31697038Y65362846D01*
X31728099Y65385994D01*
X31802798Y65454423D01*
X31851440Y65517001D01*
X31867368Y65541548D01*
X31929547Y65615300D01*
X32020687Y65709243D01*
X32129456Y65812780D01*
X32244522Y65915316D01*
X32354552Y66006254D01*
X32448214Y66074999D01*
X32459285Y66082251D01*
X32595996Y66158382D01*
X32747668Y66216523D01*
X32924919Y66259291D01*
X33138368Y66289301D01*
X33398632Y66309170D01*
X33523264Y66317043D01*
X33716633Y66334694D01*
X33865590Y66356157D01*
X33963398Y66380579D01*
X34039375Y66400493D01*
X34168975Y66422080D01*
X34334959Y66441530D01*
X34525979Y66457295D01*
X34581909Y66460919D01*
X34784105Y66470424D01*
X34944990Y66469365D01*
X35077505Y66455793D01*
X35194589Y66427761D01*
X35309186Y66383317D01*
X35434236Y66320515D01*
X35447171Y66313585D01*
X35565345Y66257920D01*
X35666214Y66229962D01*
X35775562Y66222292D01*
X35802337Y66222038D01*
X35897709Y66213546D01*
X35976374Y66187238D01*
X36050222Y66135312D01*
X36131141Y66049964D01*
X36231021Y65923392D01*
X36238683Y65913322D01*
X36341318Y65785529D01*
X36458270Y65649476D01*
X36565703Y65532971D01*
X36585845Y65511931D01*
X36678738Y65407729D01*
X36761640Y65304398D01*
X36818632Y65221538D01*
X36833301Y65196095D01*
X36869494Y65121114D01*
X36877671Y65063952D01*
X36862438Y65001463D01*
X36851727Y64968307D01*
X36834038Y64870004D01*
X36844243Y64772611D01*
X36885426Y64661012D01*
X36960673Y64520087D01*
X37013047Y64426226D01*
X37057705Y64333273D01*
X37091774Y64239840D01*
X37116346Y64137731D01*
X37132509Y64018750D01*
X37141353Y63874703D01*
X37143970Y63697394D01*
X37141447Y63478626D01*
X37134877Y63210205D01*
X37133254Y63152221D01*
X37126780Y62935735D01*
X37125372Y62898108D01*
X37120424Y62765846D01*
X37113236Y62633375D01*
X37104267Y62529142D01*
X37101040Y62505644D01*
X37092570Y62443968D01*
X37077194Y62368673D01*
G37*
G36*
X40448212Y53139807D02*
G01*
X40476205Y53101101D01*
X40496802Y53015005D01*
X40502677Y52899503D01*
X40493253Y52769260D01*
X40467952Y52638939D01*
X40445328Y52548380D01*
X40439940Y52494632D01*
X40453872Y52460761D01*
X40488923Y52428749D01*
X40538386Y52400610D01*
X40610263Y52395946D01*
X40683946Y52411941D01*
X40792596Y52424084D01*
X40911907Y52429702D01*
X41024857Y52428527D01*
X41114426Y52420287D01*
X41163592Y52404714D01*
X41185076Y52371805D01*
X41193953Y52299053D01*
X41177411Y52222596D01*
X41138390Y52169830D01*
X41128706Y52165480D01*
X41064049Y52157821D01*
X40966115Y52161086D01*
X40852963Y52173468D01*
X40742650Y52193163D01*
X40653233Y52218362D01*
X40584960Y52239620D01*
X40534716Y52235379D01*
X40481190Y52199699D01*
X40457421Y52179623D01*
X40429210Y52142886D01*
X40426641Y52095038D01*
X40445461Y52013970D01*
X40459368Y51946118D01*
X40474181Y51823387D01*
X40479932Y51699660D01*
X40479914Y51681144D01*
X40477596Y51587372D01*
X40467364Y51533987D01*
X40443500Y51505755D01*
X40400285Y51487441D01*
X40336851Y51473491D01*
X40269657Y51490541D01*
X40231399Y51554963D01*
X40219270Y51669582D01*
X40222292Y51734032D01*
X40238400Y51863014D01*
X40263752Y51986599D01*
X40264112Y51987980D01*
X40287319Y52083336D01*
X40293848Y52140738D01*
X40282919Y52177729D01*
X40253753Y52211856D01*
X40247454Y52218087D01*
X40215166Y52243639D01*
X40177450Y52252029D01*
X40117513Y52243804D01*
X40018563Y52219511D01*
X39934249Y52201601D01*
X39801558Y52184443D01*
X39688254Y52181354D01*
X39538655Y52190023D01*
X39538655Y52450684D01*
X39722310Y52459375D01*
X39884297Y52454382D01*
X40051221Y52419820D01*
X40126400Y52395948D01*
X40181404Y52386093D01*
X40217856Y52397255D01*
X40255358Y52430456D01*
X40268360Y52443922D01*
X40295637Y52485191D01*
X40298907Y52536512D01*
X40281237Y52620407D01*
X40267550Y52691918D01*
X40253627Y52815988D01*
X40248233Y52940836D01*
X40248268Y52966955D01*
X40250685Y53058675D01*
X40260746Y53110028D01*
X40283781Y53135479D01*
X40325121Y53149494D01*
X40386507Y53155023D01*
X40448212Y53139807D01*
G37*
G36*
X38807316Y50538524D02*
G01*
X38890547Y50390910D01*
X38914486Y50348603D01*
X38983372Y50225339D01*
X39039003Y50123523D01*
X39076189Y50052753D01*
X39089738Y50022626D01*
X39084432Y50015801D01*
X39041437Y49983797D01*
X38964616Y49934223D01*
X38865280Y49874542D01*
X38819000Y49847995D01*
X38720646Y49794499D01*
X38644912Y49757305D01*
X38605286Y49743225D01*
X38598973Y49743318D01*
X38582508Y49747875D01*
X38563251Y49764702D01*
X38535943Y49801363D01*
X38495327Y49865423D01*
X38436144Y49964449D01*
X38353136Y50106004D01*
X38216921Y50338974D01*
X37735213Y50418111D01*
X37531931Y50453788D01*
X37366626Y50488306D01*
X37255637Y50518866D01*
X37200670Y50545062D01*
X37161949Y50593951D01*
X37110090Y50677764D01*
X37056762Y50777873D01*
X37056056Y50779308D01*
X36981347Y50979869D01*
X36947685Y51184959D01*
X36948762Y51210349D01*
X37503525Y51210349D01*
X37548422Y51042316D01*
X37639490Y50903476D01*
X37676872Y50866860D01*
X37748416Y50825120D01*
X37841495Y50814310D01*
X37869921Y50814730D01*
X37934444Y50819783D01*
X37960205Y50828722D01*
X37954283Y50843462D01*
X37925552Y50900284D01*
X37878384Y50988495D01*
X37818832Y51096624D01*
X37735156Y51246597D01*
X37661747Y51376482D01*
X37609150Y51464761D01*
X37573267Y51516172D01*
X37550000Y51535452D01*
X37535250Y51527335D01*
X37524919Y51496560D01*
X37514909Y51447862D01*
X37506653Y51399470D01*
X37503525Y51210349D01*
X36948762Y51210349D01*
X36955979Y51380422D01*
X37007136Y51552102D01*
X37032420Y51601554D01*
X37112368Y51722721D01*
X37203137Y51822356D01*
X37293871Y51889741D01*
X37373717Y51914156D01*
X37398849Y51912801D01*
X37488153Y51900819D01*
X37605676Y51879174D01*
X37737208Y51851162D01*
X37868540Y51820076D01*
X37985462Y51789211D01*
X38073766Y51761860D01*
X38119243Y51741318D01*
X38119327Y51741248D01*
X38146722Y51704961D01*
X38196355Y51626372D01*
X38263072Y51514151D01*
X38341719Y51376965D01*
X38427140Y51223485D01*
X38489441Y51110221D01*
X38596949Y50915810D01*
X38645373Y50828722D01*
X38706179Y50719367D01*
X38807316Y50538524D01*
G37*
G36*
X29548390Y50826058D02*
G01*
X29477854Y50613225D01*
X29400754Y50379049D01*
X29324549Y50146222D01*
X29256700Y49937439D01*
X29201026Y49766494D01*
X29155515Y49631566D01*
X29121031Y49538279D01*
X29094346Y49479599D01*
X29072231Y49448490D01*
X29051458Y49437917D01*
X29028797Y49440846D01*
X28972456Y49462049D01*
X28886688Y49505334D01*
X28805489Y49555779D01*
X28744963Y49603113D01*
X28721209Y49637063D01*
X28731116Y49680773D01*
X28757321Y49760886D01*
X28794116Y49859830D01*
X28794173Y49859975D01*
X28828879Y49958802D01*
X28849842Y50039154D01*
X28852524Y50083648D01*
X28832249Y50106147D01*
X28770786Y50147854D01*
X28685490Y50192759D01*
X28532953Y50264088D01*
X28446066Y50156499D01*
X28424229Y50129567D01*
X28355270Y50045576D01*
X28298252Y49977464D01*
X28237326Y49906020D01*
X28023110Y50008431D01*
X28002159Y50018559D01*
X27892413Y50074976D01*
X27798695Y50128251D01*
X27739391Y50168044D01*
X27669887Y50225244D01*
X27942142Y50541499D01*
X27962387Y50565044D01*
X27984379Y50590801D01*
X28779134Y50590801D01*
X28781084Y50584740D01*
X28816217Y50552803D01*
X28881485Y50515569D01*
X28901380Y50506205D01*
X28965109Y50478081D01*
X28997699Y50466762D01*
X29001210Y50467993D01*
X29026434Y50503625D01*
X29062457Y50578750D01*
X29104469Y50680177D01*
X29147658Y50794713D01*
X29187215Y50909168D01*
X29218328Y51010352D01*
X29236187Y51085072D01*
X29235981Y51120138D01*
X29231390Y51119183D01*
X29197671Y51089765D01*
X29139734Y51029372D01*
X29066427Y50948259D01*
X28986603Y50856680D01*
X28909111Y50764889D01*
X28842802Y50683143D01*
X28796526Y50621695D01*
X28779134Y50590801D01*
X27984379Y50590801D01*
X28072396Y50693884D01*
X28177697Y50818542D01*
X28267200Y50925831D01*
X28329818Y51002565D01*
X28385703Y51071553D01*
X28478894Y51183805D01*
X28588145Y51313175D01*
X28707514Y51452848D01*
X28831060Y51596009D01*
X28952839Y51735842D01*
X29066910Y51865534D01*
X29167332Y51978269D01*
X29248161Y52067231D01*
X29303457Y52125606D01*
X29327277Y52146579D01*
X29347018Y52135771D01*
X29403514Y52093709D01*
X29485638Y52027290D01*
X29583364Y51944427D01*
X29816915Y51742275D01*
X29775155Y51560676D01*
X29763698Y51515104D01*
X29731121Y51399749D01*
X29686468Y51251914D01*
X29634079Y51085817D01*
X29633835Y51085072D01*
X29578295Y50915678D01*
X29548390Y50826058D01*
G37*
G36*
X30857014Y51393039D02*
G01*
X30904118Y51383044D01*
X31013984Y51360223D01*
X31127768Y51337048D01*
X31289744Y51304456D01*
X31263870Y51139030D01*
X31250573Y51064252D01*
X31224724Y50936198D01*
X31192246Y50786595D01*
X31157189Y50634595D01*
X31076382Y50295587D01*
X31191236Y50249632D01*
X31221373Y50238072D01*
X31285894Y50217385D01*
X31316461Y50214047D01*
X31321510Y50226983D01*
X31339684Y50287319D01*
X31367934Y50387969D01*
X31403557Y50519233D01*
X31443854Y50671416D01*
X31468175Y50764133D01*
X31506870Y50910848D01*
X31539548Y51033766D01*
X31563344Y51122136D01*
X31575396Y51165205D01*
X31583997Y51182660D01*
X31606459Y51193821D01*
X31652148Y51192506D01*
X31732038Y51178129D01*
X31857101Y51150100D01*
X31897805Y51140541D01*
X32012272Y51110822D01*
X32082759Y51085407D01*
X32119510Y51059818D01*
X32132768Y51029575D01*
X32132371Y51021838D01*
X32122439Y50965385D01*
X32100939Y50862550D01*
X32069566Y50720503D01*
X32030018Y50546414D01*
X31983993Y50347452D01*
X31933188Y50130788D01*
X31879298Y49903590D01*
X31824023Y49673030D01*
X31769058Y49446276D01*
X31716101Y49230498D01*
X31666849Y49032867D01*
X31623000Y48860551D01*
X31586249Y48720721D01*
X31581196Y48702161D01*
X31565170Y48656169D01*
X31541659Y48629110D01*
X31501060Y48620511D01*
X31433767Y48629900D01*
X31330178Y48656803D01*
X31180688Y48700749D01*
X31119832Y48719652D01*
X31040135Y48750415D01*
X31002493Y48778307D01*
X30997209Y48809054D01*
X30999838Y48820331D01*
X31015193Y48883952D01*
X31040591Y48987875D01*
X31073215Y49120591D01*
X31110245Y49270590D01*
X31125184Y49331411D01*
X31159389Y49474213D01*
X31186929Y49594224D01*
X31205294Y49680322D01*
X31211973Y49721384D01*
X31209584Y49730870D01*
X31172936Y49770617D01*
X31106109Y49811419D01*
X31072662Y49826822D01*
X31023165Y49842100D01*
X30988194Y49831750D01*
X30961313Y49787971D01*
X30936090Y49702964D01*
X30906090Y49568928D01*
X30900014Y49540591D01*
X30853311Y49325061D01*
X30815826Y49159112D01*
X30785414Y49036320D01*
X30759929Y48950257D01*
X30737226Y48894498D01*
X30715160Y48862615D01*
X30691587Y48848184D01*
X30664360Y48844777D01*
X30653180Y48845011D01*
X30567454Y48856318D01*
X30463884Y48880964D01*
X30357378Y48913909D01*
X30262844Y48950112D01*
X30195191Y48984534D01*
X30169327Y49012134D01*
X30169604Y49016885D01*
X30178738Y49071791D01*
X30199511Y49173428D01*
X30230176Y49314425D01*
X30268984Y49487409D01*
X30314189Y49685007D01*
X30364042Y49899845D01*
X30416797Y50124552D01*
X30470706Y50351754D01*
X30524021Y50574079D01*
X30574994Y50784154D01*
X30621879Y50974606D01*
X30662928Y51138062D01*
X30696393Y51267150D01*
X30720527Y51354496D01*
X30733581Y51392729D01*
X30738132Y51396689D01*
X30783788Y51402493D01*
X30857014Y51393039D01*
G37*
G36*
X36599545Y49813806D02*
G01*
X36651973Y49616387D01*
X36699898Y49432810D01*
X36741077Y49271374D01*
X36773267Y49140378D01*
X36794226Y49048122D01*
X36801711Y49002903D01*
X36801476Y49001224D01*
X36771446Y48976347D01*
X36701470Y48942899D01*
X36606422Y48905926D01*
X36501178Y48870471D01*
X36400614Y48841577D01*
X36319604Y48824289D01*
X36273025Y48823648D01*
X36264904Y48828601D01*
X36231524Y48875613D01*
X36202670Y48950463D01*
X36202614Y48950668D01*
X36183011Y49022280D01*
X36152469Y49134417D01*
X36115157Y49271757D01*
X36075242Y49418979D01*
X36056937Y49486091D01*
X36021284Y49611176D01*
X35995021Y49690270D01*
X35974955Y49730611D01*
X35957892Y49739435D01*
X35940637Y49723979D01*
X35929629Y49707501D01*
X35883605Y49597842D01*
X35859096Y49466958D01*
X35862132Y49344041D01*
X35863521Y49336211D01*
X35881184Y49249380D01*
X35907447Y49132424D01*
X35937166Y49008350D01*
X35944437Y48978396D01*
X35967616Y48872311D01*
X35981482Y48790939D01*
X35983248Y48749913D01*
X35979036Y48744484D01*
X35933594Y48719560D01*
X35850244Y48687625D01*
X35742912Y48654222D01*
X35711903Y48645582D01*
X35602442Y48616531D01*
X35515435Y48595596D01*
X35467458Y48586833D01*
X35447626Y48594987D01*
X35418379Y48639284D01*
X35383993Y48727687D01*
X35341593Y48866591D01*
X35306691Y48994010D01*
X35267012Y49167645D01*
X35248816Y49308875D01*
X35251741Y49430839D01*
X35275428Y49546675D01*
X35319514Y49669522D01*
X35403192Y49871485D01*
X35255302Y49930184D01*
X35197789Y49954268D01*
X35132586Y49993193D01*
X35092371Y50046417D01*
X35057995Y50133694D01*
X35036075Y50218256D01*
X35015678Y50349549D01*
X35007311Y50479339D01*
X35011974Y50547274D01*
X35586810Y50547274D01*
X35592242Y50434604D01*
X35597260Y50378783D01*
X35620375Y50252553D01*
X35655696Y50179349D01*
X35688573Y50154898D01*
X35753344Y50127640D01*
X35823896Y50110634D01*
X35880613Y50108202D01*
X35903877Y50124667D01*
X35903586Y50128431D01*
X35893731Y50177083D01*
X35872736Y50263861D01*
X35844506Y50374016D01*
X35812947Y50492799D01*
X35781966Y50605461D01*
X35755469Y50697252D01*
X35737362Y50753423D01*
X35711178Y50822867D01*
X35644518Y50729252D01*
X35613209Y50679964D01*
X35592622Y50622429D01*
X35586810Y50547274D01*
X35011974Y50547274D01*
X35019130Y50651520D01*
X35066333Y50805143D01*
X35156278Y50936043D01*
X35296098Y51058521D01*
X35340067Y51090823D01*
X35447747Y51166140D01*
X35532159Y51210950D01*
X35608445Y51226431D01*
X35691745Y51213765D01*
X35797202Y51174131D01*
X35939955Y51108711D01*
X36027324Y51066222D01*
X36152041Y50998791D01*
X36242869Y50940408D01*
X36289791Y50897132D01*
X36294870Y50886192D01*
X36316018Y50824253D01*
X36348364Y50718062D01*
X36389663Y50575919D01*
X36437674Y50406123D01*
X36490153Y50216973D01*
X36515375Y50124667D01*
X36544858Y50016767D01*
X36599545Y49813806D01*
G37*
G36*
X34171428Y48956734D02*
G01*
X34185846Y48887305D01*
X34213594Y48741636D01*
X34233655Y48618717D01*
X34244299Y48529789D01*
X34243798Y48486096D01*
X34225816Y48462830D01*
X34171859Y48444858D01*
X34072916Y48439839D01*
X34015347Y48441550D01*
X33931925Y48450067D01*
X33883796Y48463243D01*
X33864758Y48490978D01*
X33839027Y48562706D01*
X33817016Y48658295D01*
X33801218Y48747452D01*
X33781356Y48841778D01*
X33758040Y48896881D01*
X33721955Y48923250D01*
X33663786Y48931378D01*
X33574218Y48931756D01*
X33391679Y48931756D01*
X33360412Y48808666D01*
X33356311Y48792361D01*
X33328886Y48677714D01*
X33304877Y48569726D01*
X33280609Y48453877D01*
X32674573Y48453877D01*
X32683683Y48555245D01*
X32685949Y48573264D01*
X32697132Y48647021D01*
X32716215Y48765997D01*
X32741879Y48922428D01*
X32772802Y49108545D01*
X32807667Y49316585D01*
X32817597Y49375445D01*
X33427724Y49375445D01*
X33438004Y49351212D01*
X33481182Y49339974D01*
X33569702Y49337229D01*
X33720868Y49337229D01*
X33646696Y49683388D01*
X33644220Y49694881D01*
X33614474Y49823460D01*
X33587231Y49925367D01*
X33565414Y49990554D01*
X33551949Y50008972D01*
X33545222Y49994678D01*
X33528339Y49932269D01*
X33507595Y49833995D01*
X33486032Y49713497D01*
X33474863Y49646259D01*
X33454975Y49528910D01*
X33438993Y49437607D01*
X33429613Y49387913D01*
X33427724Y49375445D01*
X32817597Y49375445D01*
X32845154Y49538779D01*
X32883942Y49767362D01*
X32922712Y49994567D01*
X32960145Y50212628D01*
X32994921Y50413780D01*
X33025720Y50590254D01*
X33051223Y50734286D01*
X33070110Y50838109D01*
X33081062Y50893957D01*
X33098030Y50934112D01*
X33138381Y50954244D01*
X33218796Y50959122D01*
X33223987Y50959060D01*
X33300584Y50951396D01*
X33403716Y50933603D01*
X33516634Y50909524D01*
X33622590Y50883002D01*
X33704835Y50857881D01*
X33746621Y50838004D01*
X33753332Y50825781D01*
X33774887Y50758564D01*
X33806837Y50635038D01*
X33849077Y50455639D01*
X33901503Y50220800D01*
X33964012Y49930958D01*
X33992998Y49794780D01*
X34040646Y49570951D01*
X34089133Y49343207D01*
X34090406Y49337229D01*
X34134160Y49131738D01*
X34171428Y48956734D01*
G37*
%TD*%
M02*
