%TF.GenerationSoftware,KiCad,Pcbnew,(6.0.7)*%
%TF.CreationDate,2022-08-02T16:10:14+02:00*%
%TF.ProjectId,school_meteo,7363686f-6f6c-45f6-9d65-74656f2e6b69,rev?*%
%TF.SameCoordinates,Original*%
%TF.FileFunction,Soldermask,Top*%
%TF.FilePolarity,Negative*%
%FSLAX46Y46*%
G04 Gerber Fmt 4.6, Leading zero omitted, Abs format (unit mm)*
G04 Created by KiCad (PCBNEW (6.0.7)) date 2022-08-02 16:10:14*
%MOMM*%
%LPD*%
G01*
G04 APERTURE LIST*
G04 Aperture macros list*
%AMRoundRect*
0 Rectangle with rounded corners*
0 $1 Rounding radius*
0 $2 $3 $4 $5 $6 $7 $8 $9 X,Y pos of 4 corners*
0 Add a 4 corners polygon primitive as box body*
4,1,4,$2,$3,$4,$5,$6,$7,$8,$9,$2,$3,0*
0 Add four circle primitives for the rounded corners*
1,1,$1+$1,$2,$3*
1,1,$1+$1,$4,$5*
1,1,$1+$1,$6,$7*
1,1,$1+$1,$8,$9*
0 Add four rect primitives between the rounded corners*
20,1,$1+$1,$2,$3,$4,$5,0*
20,1,$1+$1,$4,$5,$6,$7,0*
20,1,$1+$1,$6,$7,$8,$9,0*
20,1,$1+$1,$8,$9,$2,$3,0*%
G04 Aperture macros list end*
%ADD10C,3.200000*%
%ADD11R,1.900000X1.900000*%
%ADD12C,1.900000*%
%ADD13C,2.600000*%
%ADD14C,1.700000*%
%ADD15R,1.600000X1.600000*%
%ADD16C,1.600000*%
%ADD17C,1.400000*%
%ADD18O,1.400000X1.400000*%
%ADD19C,5.600000*%
%ADD20RoundRect,0.250000X-0.350000X-0.450000X0.350000X-0.450000X0.350000X0.450000X-0.350000X0.450000X0*%
%ADD21C,2.400000*%
%ADD22R,1.700000X1.700000*%
%ADD23R,2.900000X5.400000*%
%ADD24RoundRect,0.250000X0.350000X0.450000X-0.350000X0.450000X-0.350000X-0.450000X0.350000X-0.450000X0*%
%ADD25O,1.600000X1.600000*%
%ADD26R,1.100000X4.600000*%
%ADD27R,10.800000X9.400000*%
%ADD28RoundRect,0.075000X0.521491X-0.415425X-0.415425X0.521491X-0.521491X0.415425X0.415425X-0.521491X0*%
%ADD29RoundRect,0.075000X0.521491X0.415425X0.415425X0.521491X-0.521491X-0.415425X-0.415425X-0.521491X0*%
%ADD30RoundRect,0.305556X-0.794444X-1.694444X0.794444X-1.694444X0.794444X1.694444X-0.794444X1.694444X0*%
%ADD31O,2.200000X4.000000*%
%ADD32O,1.700000X1.700000*%
%ADD33C,1.500000*%
%ADD34R,1.200000X2.200000*%
%ADD35R,5.800000X6.400000*%
G04 APERTURE END LIST*
D10*
%TO.C,J5*%
X50730000Y7000000D03*
X39300000Y7000000D03*
D11*
X50730000Y13350000D03*
D12*
X49460000Y15890000D03*
X48190000Y13350000D03*
X46920000Y15890000D03*
X45650000Y13350000D03*
X44380000Y15890000D03*
X43110000Y13350000D03*
X41840000Y15890000D03*
D13*
X37165000Y10050000D03*
D12*
X40570000Y13350000D03*
D13*
X52865000Y10050000D03*
D12*
X39300000Y15890000D03*
D14*
X38230000Y4460000D03*
X38230000Y2430000D03*
X51800000Y4460000D03*
X51800000Y2430000D03*
%TD*%
D15*
%TO.C,C6*%
X50044887Y41000000D03*
D16*
X52044887Y41000000D03*
%TD*%
D17*
%TO.C,C3*%
X43750000Y42700000D03*
X46250000Y42700000D03*
%TD*%
%TO.C,R4*%
X29460000Y25400000D03*
D18*
X34540000Y25400000D03*
%TD*%
D19*
%TO.C,H3*%
X73000000Y70000000D03*
%TD*%
%TO.C,H4*%
X8000000Y70000000D03*
%TD*%
D17*
%TO.C,C8*%
X56050000Y39100000D03*
X58550000Y39100000D03*
%TD*%
%TO.C,C1*%
X30000000Y36750000D03*
X30000000Y34250000D03*
%TD*%
%TO.C,R10*%
X10540000Y57000000D03*
D18*
X5460000Y57000000D03*
%TD*%
D20*
%TO.C,FB1*%
X36800000Y29300000D03*
X38800000Y29300000D03*
%TD*%
D17*
%TO.C,C9*%
X56050000Y42700000D03*
X58550000Y42700000D03*
%TD*%
%TO.C,C5*%
X52450000Y35000000D03*
X54950000Y35000000D03*
%TD*%
D21*
%TO.C,J3*%
X71500000Y20500000D03*
X71500000Y32500000D03*
D22*
X69200000Y28020000D03*
D14*
X66660000Y27000000D03*
X69200000Y26000000D03*
X66660000Y24980000D03*
%TD*%
D19*
%TO.C,H1*%
X8000000Y5000000D03*
%TD*%
D23*
%TO.C,L1*%
X24100000Y25250000D03*
X14200000Y25250000D03*
%TD*%
D24*
%TO.C,FB2*%
X57400000Y27200000D03*
X55400000Y27200000D03*
%TD*%
D16*
%TO.C,R16*%
X41425000Y19390000D03*
D25*
X41425000Y27010000D03*
%TD*%
D17*
%TO.C,R12*%
X5460000Y60000000D03*
D18*
X10540000Y60000000D03*
%TD*%
D26*
%TO.C,U3*%
X23800000Y15000000D03*
X22100000Y15000000D03*
D27*
X20400000Y5850000D03*
D26*
X20400000Y15000000D03*
X18700000Y15000000D03*
X17000000Y15000000D03*
%TD*%
D17*
%TO.C,R6*%
X26840000Y38000000D03*
D18*
X21760000Y38000000D03*
%TD*%
D17*
%TO.C,R8*%
X26840000Y33200000D03*
D18*
X21760000Y33200000D03*
%TD*%
D17*
%TO.C,C14*%
X60250000Y29700000D03*
X62750000Y29700000D03*
%TD*%
D15*
%TO.C,C10*%
X58244887Y34400000D03*
D16*
X60244887Y34400000D03*
%TD*%
D17*
%TO.C,C15*%
X55600000Y23200000D03*
X55600000Y20700000D03*
%TD*%
D21*
%TO.C,J1*%
X71500000Y63500000D03*
X71500000Y51500000D03*
D22*
X69200000Y59020000D03*
D14*
X66660000Y58000000D03*
X69200000Y57000000D03*
X66660000Y55980000D03*
%TD*%
D15*
%TO.C,C4*%
X65744888Y69100000D03*
D16*
X67744888Y69100000D03*
%TD*%
D28*
%TO.C,U2*%
X45998788Y30112124D03*
X46352342Y30465678D03*
X46705895Y30819231D03*
X47059449Y31172785D03*
X47413002Y31526338D03*
X47766555Y31879891D03*
X48120109Y32233445D03*
X48473662Y32586998D03*
X48827215Y32940551D03*
X49180769Y33294105D03*
X49534322Y33647658D03*
X49887876Y34001212D03*
D29*
X49887876Y35998788D03*
X49534322Y36352342D03*
X49180769Y36705895D03*
X48827215Y37059449D03*
X48473662Y37413002D03*
X48120109Y37766555D03*
X47766555Y38120109D03*
X47413002Y38473662D03*
X47059449Y38827215D03*
X46705895Y39180769D03*
X46352342Y39534322D03*
X45998788Y39887876D03*
D28*
X44001212Y39887876D03*
X43647658Y39534322D03*
X43294105Y39180769D03*
X42940551Y38827215D03*
X42586998Y38473662D03*
X42233445Y38120109D03*
X41879891Y37766555D03*
X41526338Y37413002D03*
X41172785Y37059449D03*
X40819231Y36705895D03*
X40465678Y36352342D03*
X40112124Y35998788D03*
D29*
X40112124Y34001212D03*
X40465678Y33647658D03*
X40819231Y33294105D03*
X41172785Y32940551D03*
X41526338Y32586998D03*
X41879891Y32233445D03*
X42233445Y31879891D03*
X42586998Y31526338D03*
X42940551Y31172785D03*
X43294105Y30819231D03*
X43647658Y30465678D03*
X44001212Y30112124D03*
%TD*%
D17*
%TO.C,C12*%
X59100000Y22450000D03*
X59100000Y24950000D03*
%TD*%
%TO.C,C11*%
X5850000Y52900000D03*
X8350000Y52900000D03*
%TD*%
%TO.C,C16*%
X62600000Y24950000D03*
X62600000Y22450000D03*
%TD*%
%TO.C,R1*%
X37000000Y31960000D03*
D18*
X37000000Y37040000D03*
%TD*%
D17*
%TO.C,R2*%
X34540000Y30200000D03*
D18*
X29460000Y30200000D03*
%TD*%
D30*
%TO.C,J4*%
X59500000Y7400000D03*
X59500000Y15600000D03*
D31*
X64500000Y15600000D03*
X64500000Y7400000D03*
%TD*%
D17*
%TO.C,R9*%
X10540000Y63000000D03*
D18*
X5460000Y63000000D03*
%TD*%
D16*
%TO.C,R15*%
X52150000Y27010000D03*
D25*
X52150000Y19390000D03*
%TD*%
D21*
%TO.C,J2*%
X71500000Y48000000D03*
X71500000Y36000000D03*
D22*
X69200000Y43520000D03*
D14*
X66660000Y42500000D03*
X69200000Y41500000D03*
X66660000Y40480000D03*
%TD*%
D17*
%TO.C,R7*%
X26840000Y35600000D03*
D18*
X21760000Y35600000D03*
%TD*%
D22*
%TO.C,U1*%
X58860000Y71700000D03*
D32*
X56320000Y71700000D03*
X53780000Y71700000D03*
X51240000Y71700000D03*
X48700000Y71700000D03*
X46160000Y71700000D03*
X43620000Y71700000D03*
X41080000Y71700000D03*
X38540000Y71700000D03*
X36000000Y71700000D03*
X33460000Y71700000D03*
X30920000Y71700000D03*
X28380000Y71700000D03*
X25840000Y71700000D03*
X23300000Y71700000D03*
X20760000Y71700000D03*
X18220000Y71700000D03*
X15680000Y71700000D03*
X13140000Y71700000D03*
X13140000Y46300000D03*
X15680000Y46300000D03*
X18220000Y46300000D03*
X20760000Y46300000D03*
X23300000Y46300000D03*
X25840000Y46300000D03*
X28380000Y46300000D03*
X30920000Y46300000D03*
X33460000Y46300000D03*
X36000000Y46300000D03*
X38540000Y46300000D03*
X41080000Y46300000D03*
X43620000Y46300000D03*
X46160000Y46300000D03*
X48700000Y46300000D03*
X51240000Y46300000D03*
X53780000Y46300000D03*
X56320000Y46300000D03*
D22*
X58860000Y46300000D03*
%TD*%
D16*
%TO.C,R11*%
X49990000Y30000000D03*
D25*
X57610000Y30000000D03*
%TD*%
D17*
%TO.C,C2*%
X34000000Y36750000D03*
X34000000Y34250000D03*
%TD*%
%TO.C,R5*%
X26840000Y40400000D03*
D18*
X21760000Y40400000D03*
%TD*%
D17*
%TO.C,R3*%
X29460000Y27800000D03*
D18*
X34540000Y27800000D03*
%TD*%
D17*
%TO.C,C17*%
X32650000Y20000000D03*
X30150000Y20000000D03*
%TD*%
%TO.C,C7*%
X5750000Y46900000D03*
X8250000Y46900000D03*
%TD*%
D33*
%TO.C,Y1*%
X31550000Y41000000D03*
X36430000Y41000000D03*
%TD*%
D19*
%TO.C,H2*%
X73000000Y5000000D03*
%TD*%
D16*
%TO.C,R14*%
X37850000Y27010000D03*
D25*
X37850000Y19390000D03*
%TD*%
D16*
%TO.C,R17*%
X45000000Y27010000D03*
D25*
X45000000Y19390000D03*
%TD*%
D15*
%TO.C,C13*%
X71817620Y14000000D03*
D16*
X74317620Y14000000D03*
%TD*%
%TO.C,R13*%
X48575000Y27010000D03*
D25*
X48575000Y19390000D03*
%TD*%
D34*
%TO.C,D1*%
X32680000Y16200000D03*
X30400000Y16200000D03*
X28120000Y16200000D03*
D35*
X30400000Y9900000D03*
%TD*%
M02*
