%TF.GenerationSoftware,KiCad,Pcbnew,(6.0.7)*%
%TF.CreationDate,2022-08-02T16:10:14+02:00*%
%TF.ProjectId,school_meteo,7363686f-6f6c-45f6-9d65-74656f2e6b69,rev?*%
%TF.SameCoordinates,Original*%
%TF.FileFunction,Paste,Top*%
%TF.FilePolarity,Positive*%
%FSLAX46Y46*%
G04 Gerber Fmt 4.6, Leading zero omitted, Abs format (unit mm)*
G04 Created by KiCad (PCBNEW (6.0.7)) date 2022-08-02 16:10:14*
%MOMM*%
%LPD*%
G01*
G04 APERTURE LIST*
G04 Aperture macros list*
%AMRoundRect*
0 Rectangle with rounded corners*
0 $1 Rounding radius*
0 $2 $3 $4 $5 $6 $7 $8 $9 X,Y pos of 4 corners*
0 Add a 4 corners polygon primitive as box body*
4,1,4,$2,$3,$4,$5,$6,$7,$8,$9,$2,$3,0*
0 Add four circle primitives for the rounded corners*
1,1,$1+$1,$2,$3*
1,1,$1+$1,$4,$5*
1,1,$1+$1,$6,$7*
1,1,$1+$1,$8,$9*
0 Add four rect primitives between the rounded corners*
20,1,$1+$1,$2,$3,$4,$5,0*
20,1,$1+$1,$4,$5,$6,$7,0*
20,1,$1+$1,$6,$7,$8,$9,0*
20,1,$1+$1,$8,$9,$2,$3,0*%
G04 Aperture macros list end*
%ADD10RoundRect,0.250000X-0.350000X-0.450000X0.350000X-0.450000X0.350000X0.450000X-0.350000X0.450000X0*%
%ADD11R,2.900000X5.400000*%
%ADD12RoundRect,0.250000X0.350000X0.450000X-0.350000X0.450000X-0.350000X-0.450000X0.350000X-0.450000X0*%
%ADD13R,5.250000X4.550000*%
%ADD14R,1.100000X4.600000*%
%ADD15RoundRect,0.075000X0.521491X-0.415425X-0.415425X0.521491X-0.521491X0.415425X0.415425X-0.521491X0*%
%ADD16RoundRect,0.075000X0.521491X0.415425X0.415425X0.521491X-0.521491X-0.415425X-0.415425X-0.521491X0*%
%ADD17R,2.750000X3.050000*%
%ADD18R,1.200000X2.200000*%
G04 APERTURE END LIST*
D10*
%TO.C,FB1*%
X36800000Y29300000D03*
X38800000Y29300000D03*
%TD*%
D11*
%TO.C,L1*%
X24100000Y25250000D03*
X14200000Y25250000D03*
%TD*%
D12*
%TO.C,FB2*%
X57400000Y27200000D03*
X55400000Y27200000D03*
%TD*%
D13*
%TO.C,U3*%
X17625000Y8275000D03*
X23175000Y8275000D03*
X23175000Y3425000D03*
X17625000Y3425000D03*
D14*
X23800000Y15000000D03*
X22100000Y15000000D03*
X20400000Y15000000D03*
X18700000Y15000000D03*
X17000000Y15000000D03*
%TD*%
D15*
%TO.C,U2*%
X45998788Y30112124D03*
X46352342Y30465678D03*
X46705895Y30819231D03*
X47059449Y31172785D03*
X47413002Y31526338D03*
X47766555Y31879891D03*
X48120109Y32233445D03*
X48473662Y32586998D03*
X48827215Y32940551D03*
X49180769Y33294105D03*
X49534322Y33647658D03*
X49887876Y34001212D03*
D16*
X49887876Y35998788D03*
X49534322Y36352342D03*
X49180769Y36705895D03*
X48827215Y37059449D03*
X48473662Y37413002D03*
X48120109Y37766555D03*
X47766555Y38120109D03*
X47413002Y38473662D03*
X47059449Y38827215D03*
X46705895Y39180769D03*
X46352342Y39534322D03*
X45998788Y39887876D03*
D15*
X44001212Y39887876D03*
X43647658Y39534322D03*
X43294105Y39180769D03*
X42940551Y38827215D03*
X42586998Y38473662D03*
X42233445Y38120109D03*
X41879891Y37766555D03*
X41526338Y37413002D03*
X41172785Y37059449D03*
X40819231Y36705895D03*
X40465678Y36352342D03*
X40112124Y35998788D03*
D16*
X40112124Y34001212D03*
X40465678Y33647658D03*
X40819231Y33294105D03*
X41172785Y32940551D03*
X41526338Y32586998D03*
X41879891Y32233445D03*
X42233445Y31879891D03*
X42586998Y31526338D03*
X42940551Y31172785D03*
X43294105Y30819231D03*
X43647658Y30465678D03*
X44001212Y30112124D03*
%TD*%
D17*
%TO.C,D1*%
X28875000Y11575000D03*
X28875000Y8225000D03*
X31925000Y8225000D03*
X31925000Y11575000D03*
D18*
X32680000Y16200000D03*
X30400000Y16200000D03*
X28120000Y16200000D03*
%TD*%
M02*
