%TF.GenerationSoftware,KiCad,Pcbnew,(6.0.7)*%
%TF.CreationDate,2022-08-02T16:10:14+02:00*%
%TF.ProjectId,school_meteo,7363686f-6f6c-45f6-9d65-74656f2e6b69,rev?*%
%TF.SameCoordinates,Original*%
%TF.FileFunction,Legend,Top*%
%TF.FilePolarity,Positive*%
%FSLAX46Y46*%
G04 Gerber Fmt 4.6, Leading zero omitted, Abs format (unit mm)*
G04 Created by KiCad (PCBNEW (6.0.7)) date 2022-08-02 16:10:14*
%MOMM*%
%LPD*%
G01*
G04 APERTURE LIST*
%ADD10C,0.250000*%
%ADD11C,0.150000*%
%ADD12C,0.200000*%
%ADD13C,0.120000*%
G04 APERTURE END LIST*
D10*
X5500000Y12500000D02*
X5500000Y11500000D01*
X5500000Y11500000D02*
X6500000Y11500000D01*
X10500000Y30500000D02*
X10500000Y31500000D01*
X6500000Y31500000D02*
X5500000Y31500000D01*
X10500000Y31500000D02*
X9500000Y31500000D01*
X10500000Y11500000D02*
X10500000Y12500000D01*
X9500000Y11500000D02*
X10500000Y11500000D01*
X5500000Y31500000D02*
X5500000Y30500000D01*
X7485714Y12517857D02*
X7542857Y12689286D01*
X7542857Y12975000D01*
X7485714Y13089286D01*
X7428571Y13146428D01*
X7314285Y13203571D01*
X7199999Y13203571D01*
X7085714Y13146428D01*
X7028571Y13089286D01*
X6971428Y12975000D01*
X6914285Y12746428D01*
X6857142Y12632143D01*
X6799999Y12575000D01*
X6685714Y12517857D01*
X6571428Y12517857D01*
X6457142Y12575000D01*
X6399999Y12632143D01*
X6342857Y12746428D01*
X6342857Y13032143D01*
X6400000Y13203571D01*
X7485714Y14232143D02*
X7542857Y14117857D01*
X7542857Y13889286D01*
X7485714Y13775000D01*
X7428571Y13717857D01*
X7314285Y13660714D01*
X6971428Y13660714D01*
X6857142Y13717857D01*
X6800000Y13775000D01*
X6742857Y13889286D01*
X6742857Y14117857D01*
X6800000Y14232143D01*
X7542857Y14746429D02*
X6342857Y14746429D01*
X7542857Y15260714D02*
X6914285Y15260714D01*
X6800000Y15203571D01*
X6742857Y15089286D01*
X6742857Y14917857D01*
X6800000Y14803571D01*
X6857142Y14746429D01*
X7542857Y16003571D02*
X7485714Y15889286D01*
X7428571Y15832143D01*
X7314285Y15775000D01*
X6971428Y15775000D01*
X6857142Y15832143D01*
X6800000Y15889286D01*
X6742857Y16003571D01*
X6742857Y16175000D01*
X6800000Y16289286D01*
X6857142Y16346429D01*
X6971428Y16403571D01*
X7314285Y16403571D01*
X7428571Y16346429D01*
X7485714Y16289286D01*
X7542857Y16175000D01*
X7542857Y16003571D01*
X7542857Y17089286D02*
X7485714Y16975000D01*
X7428571Y16917857D01*
X7314285Y16860714D01*
X6971428Y16860714D01*
X6857142Y16917857D01*
X6800000Y16975000D01*
X6742857Y17089286D01*
X6742857Y17260714D01*
X6800000Y17375000D01*
X6857142Y17432143D01*
X6971428Y17489286D01*
X7314285Y17489286D01*
X7428571Y17432143D01*
X7485714Y17375000D01*
X7542857Y17260714D01*
X7542857Y17089286D01*
X7542857Y18175000D02*
X7485714Y18060714D01*
X7371428Y18003571D01*
X6342857Y18003571D01*
X7542857Y19546429D02*
X6342857Y19546429D01*
X7200000Y19946429D01*
X6342857Y20346429D01*
X7542857Y20346429D01*
X7485714Y21375000D02*
X7542857Y21260714D01*
X7542857Y21032143D01*
X7485714Y20917857D01*
X7371428Y20860714D01*
X6914285Y20860714D01*
X6800000Y20917857D01*
X6742857Y21032143D01*
X6742857Y21260714D01*
X6800000Y21375000D01*
X6914285Y21432143D01*
X7028571Y21432143D01*
X7142857Y20860714D01*
X6742857Y21775000D02*
X6742857Y22232143D01*
X6342857Y21946429D02*
X7371428Y21946429D01*
X7485714Y22003571D01*
X7542857Y22117857D01*
X7542857Y22232143D01*
X7485714Y23089286D02*
X7542857Y22975000D01*
X7542857Y22746429D01*
X7485714Y22632143D01*
X7371428Y22575000D01*
X6914285Y22575000D01*
X6800000Y22632143D01*
X6742857Y22746429D01*
X6742857Y22975000D01*
X6800000Y23089286D01*
X6914285Y23146429D01*
X7028571Y23146429D01*
X7142857Y22575000D01*
X7542857Y23832143D02*
X7485714Y23717857D01*
X7428571Y23660714D01*
X7314285Y23603571D01*
X6971428Y23603571D01*
X6857142Y23660714D01*
X6800000Y23717857D01*
X6742857Y23832143D01*
X6742857Y24003571D01*
X6800000Y24117857D01*
X6857142Y24175000D01*
X6971428Y24232143D01*
X7314285Y24232143D01*
X7428571Y24175000D01*
X7485714Y24117857D01*
X7542857Y24003571D01*
X7542857Y23832143D01*
X7485714Y24689286D02*
X7542857Y24860714D01*
X7542857Y25146429D01*
X7485714Y25260714D01*
X7428571Y25317857D01*
X7314285Y25375000D01*
X7200000Y25375000D01*
X7085714Y25317857D01*
X7028571Y25260714D01*
X6971428Y25146429D01*
X6914285Y24917857D01*
X6857142Y24803571D01*
X6800000Y24746429D01*
X6685714Y24689286D01*
X6571428Y24689286D01*
X6457142Y24746429D01*
X6400000Y24803571D01*
X6342857Y24917857D01*
X6342857Y25203571D01*
X6400000Y25375000D01*
X6742857Y25717857D02*
X6742857Y26175000D01*
X6342857Y25889286D02*
X7371428Y25889286D01*
X7485714Y25946429D01*
X7542857Y26060714D01*
X7542857Y26175000D01*
X7542857Y27089286D02*
X6914285Y27089286D01*
X6800000Y27032143D01*
X6742857Y26917857D01*
X6742857Y26689286D01*
X6800000Y26575000D01*
X7485714Y27089286D02*
X7542857Y26975000D01*
X7542857Y26689286D01*
X7485714Y26575000D01*
X7371428Y26517857D01*
X7257142Y26517857D01*
X7142857Y26575000D01*
X7085714Y26689286D01*
X7085714Y26975000D01*
X7028571Y27089286D01*
X6742857Y27489286D02*
X6742857Y27946428D01*
X6342857Y27660714D02*
X7371428Y27660714D01*
X7485714Y27717857D01*
X7542857Y27832143D01*
X7542857Y27946428D01*
X7542857Y28346428D02*
X6742857Y28346428D01*
X6342857Y28346428D02*
X6400000Y28289286D01*
X6457142Y28346428D01*
X6400000Y28403571D01*
X6342857Y28346428D01*
X6457142Y28346428D01*
X7542857Y29089286D02*
X7485714Y28975000D01*
X7428571Y28917857D01*
X7314285Y28860714D01*
X6971428Y28860714D01*
X6857142Y28917857D01*
X6800000Y28975000D01*
X6742857Y29089286D01*
X6742857Y29260714D01*
X6800000Y29375000D01*
X6857142Y29432143D01*
X6971428Y29489286D01*
X7314285Y29489286D01*
X7428571Y29432143D01*
X7485714Y29375000D01*
X7542857Y29260714D01*
X7542857Y29089286D01*
X6742857Y30003571D02*
X7542857Y30003571D01*
X6857142Y30003571D02*
X6800000Y30060714D01*
X6742857Y30175000D01*
X6742857Y30346428D01*
X6800000Y30460714D01*
X6914285Y30517857D01*
X7542857Y30517857D01*
X8842857Y19671428D02*
X10042857Y20071428D01*
X8842857Y20471428D01*
X10042857Y21500000D02*
X10042857Y20814285D01*
X10042857Y21157142D02*
X8842857Y21157142D01*
X9014285Y21042857D01*
X9128571Y20928571D01*
X9185714Y20814285D01*
X9928571Y22014285D02*
X9985714Y22071428D01*
X10042857Y22014285D01*
X9985714Y21957142D01*
X9928571Y22014285D01*
X10042857Y22014285D01*
X8842857Y22814285D02*
X8842857Y22928571D01*
X8900000Y23042857D01*
X8957142Y23100000D01*
X9071428Y23157142D01*
X9300000Y23214285D01*
X9585714Y23214285D01*
X9814285Y23157142D01*
X9928571Y23100000D01*
X9985714Y23042857D01*
X10042857Y22928571D01*
X10042857Y22814285D01*
X9985714Y22700000D01*
X9928571Y22642857D01*
X9814285Y22585714D01*
X9585714Y22528571D01*
X9300000Y22528571D01*
X9071428Y22585714D01*
X8957142Y22642857D01*
X8900000Y22700000D01*
X8842857Y22814285D01*
D11*
%TO.C,J5*%
X44666666Y10547619D02*
X44666666Y9833333D01*
X44619047Y9690476D01*
X44523809Y9595238D01*
X44380952Y9547619D01*
X44285714Y9547619D01*
X45619047Y10547619D02*
X45142857Y10547619D01*
X45095238Y10071428D01*
X45142857Y10119047D01*
X45238095Y10166666D01*
X45476190Y10166666D01*
X45571428Y10119047D01*
X45619047Y10071428D01*
X45666666Y9976190D01*
X45666666Y9738095D01*
X45619047Y9642857D01*
X45571428Y9595238D01*
X45476190Y9547619D01*
X45238095Y9547619D01*
X45142857Y9595238D01*
X45095238Y9642857D01*
%TO.C,C6*%
X53633333Y43242857D02*
X53585714Y43195238D01*
X53442857Y43147619D01*
X53347619Y43147619D01*
X53204761Y43195238D01*
X53109523Y43290476D01*
X53061904Y43385714D01*
X53014285Y43576190D01*
X53014285Y43719047D01*
X53061904Y43909523D01*
X53109523Y44004761D01*
X53204761Y44100000D01*
X53347619Y44147619D01*
X53442857Y44147619D01*
X53585714Y44100000D01*
X53633333Y44052380D01*
X54490476Y44147619D02*
X54300000Y44147619D01*
X54204761Y44100000D01*
X54157142Y44052380D01*
X54061904Y43909523D01*
X54014285Y43719047D01*
X54014285Y43338095D01*
X54061904Y43242857D01*
X54109523Y43195238D01*
X54204761Y43147619D01*
X54395238Y43147619D01*
X54490476Y43195238D01*
X54538095Y43242857D01*
X54585714Y43338095D01*
X54585714Y43576190D01*
X54538095Y43671428D01*
X54490476Y43719047D01*
X54395238Y43766666D01*
X54204761Y43766666D01*
X54109523Y43719047D01*
X54061904Y43671428D01*
X54014285Y43576190D01*
%TO.C,C3*%
X41233333Y41242857D02*
X41185714Y41195238D01*
X41042857Y41147619D01*
X40947619Y41147619D01*
X40804761Y41195238D01*
X40709523Y41290476D01*
X40661904Y41385714D01*
X40614285Y41576190D01*
X40614285Y41719047D01*
X40661904Y41909523D01*
X40709523Y42004761D01*
X40804761Y42100000D01*
X40947619Y42147619D01*
X41042857Y42147619D01*
X41185714Y42100000D01*
X41233333Y42052380D01*
X41566666Y42147619D02*
X42185714Y42147619D01*
X41852380Y41766666D01*
X41995238Y41766666D01*
X42090476Y41719047D01*
X42138095Y41671428D01*
X42185714Y41576190D01*
X42185714Y41338095D01*
X42138095Y41242857D01*
X42090476Y41195238D01*
X41995238Y41147619D01*
X41709523Y41147619D01*
X41614285Y41195238D01*
X41566666Y41242857D01*
%TO.C,R4*%
X31893333Y24947619D02*
X31560000Y25423809D01*
X31321904Y24947619D02*
X31321904Y25947619D01*
X31702857Y25947619D01*
X31798095Y25900000D01*
X31845714Y25852380D01*
X31893333Y25757142D01*
X31893333Y25614285D01*
X31845714Y25519047D01*
X31798095Y25471428D01*
X31702857Y25423809D01*
X31321904Y25423809D01*
X32750476Y25614285D02*
X32750476Y24947619D01*
X32512380Y25995238D02*
X32274285Y25280952D01*
X32893333Y25280952D01*
%TO.C,H3*%
X72238095Y73347619D02*
X72238095Y74347619D01*
X72238095Y73871428D02*
X72809523Y73871428D01*
X72809523Y73347619D02*
X72809523Y74347619D01*
X73190476Y74347619D02*
X73809523Y74347619D01*
X73476190Y73966666D01*
X73619047Y73966666D01*
X73714285Y73919047D01*
X73761904Y73871428D01*
X73809523Y73776190D01*
X73809523Y73538095D01*
X73761904Y73442857D01*
X73714285Y73395238D01*
X73619047Y73347619D01*
X73333333Y73347619D01*
X73238095Y73395238D01*
X73190476Y73442857D01*
%TO.C,H4*%
X7238095Y73347619D02*
X7238095Y74347619D01*
X7238095Y73871428D02*
X7809523Y73871428D01*
X7809523Y73347619D02*
X7809523Y74347619D01*
X8714285Y74014285D02*
X8714285Y73347619D01*
X8476190Y74395238D02*
X8238095Y73680952D01*
X8857142Y73680952D01*
%TO.C,C8*%
X60733333Y38742857D02*
X60685714Y38695238D01*
X60542857Y38647619D01*
X60447619Y38647619D01*
X60304761Y38695238D01*
X60209523Y38790476D01*
X60161904Y38885714D01*
X60114285Y39076190D01*
X60114285Y39219047D01*
X60161904Y39409523D01*
X60209523Y39504761D01*
X60304761Y39600000D01*
X60447619Y39647619D01*
X60542857Y39647619D01*
X60685714Y39600000D01*
X60733333Y39552380D01*
X61304761Y39219047D02*
X61209523Y39266666D01*
X61161904Y39314285D01*
X61114285Y39409523D01*
X61114285Y39457142D01*
X61161904Y39552380D01*
X61209523Y39600000D01*
X61304761Y39647619D01*
X61495238Y39647619D01*
X61590476Y39600000D01*
X61638095Y39552380D01*
X61685714Y39457142D01*
X61685714Y39409523D01*
X61638095Y39314285D01*
X61590476Y39266666D01*
X61495238Y39219047D01*
X61304761Y39219047D01*
X61209523Y39171428D01*
X61161904Y39123809D01*
X61114285Y39028571D01*
X61114285Y38838095D01*
X61161904Y38742857D01*
X61209523Y38695238D01*
X61304761Y38647619D01*
X61495238Y38647619D01*
X61590476Y38695238D01*
X61638095Y38742857D01*
X61685714Y38838095D01*
X61685714Y39028571D01*
X61638095Y39123809D01*
X61590476Y39171428D01*
X61495238Y39219047D01*
%TO.C,C1*%
X29833333Y31742857D02*
X29785714Y31695238D01*
X29642857Y31647619D01*
X29547619Y31647619D01*
X29404761Y31695238D01*
X29309523Y31790476D01*
X29261904Y31885714D01*
X29214285Y32076190D01*
X29214285Y32219047D01*
X29261904Y32409523D01*
X29309523Y32504761D01*
X29404761Y32600000D01*
X29547619Y32647619D01*
X29642857Y32647619D01*
X29785714Y32600000D01*
X29833333Y32552380D01*
X30785714Y31647619D02*
X30214285Y31647619D01*
X30500000Y31647619D02*
X30500000Y32647619D01*
X30404761Y32504761D01*
X30309523Y32409523D01*
X30214285Y32361904D01*
%TO.C,R10*%
X7357142Y56547619D02*
X7023809Y57023809D01*
X6785714Y56547619D02*
X6785714Y57547619D01*
X7166666Y57547619D01*
X7261904Y57500000D01*
X7309523Y57452380D01*
X7357142Y57357142D01*
X7357142Y57214285D01*
X7309523Y57119047D01*
X7261904Y57071428D01*
X7166666Y57023809D01*
X6785714Y57023809D01*
X8309523Y56547619D02*
X7738095Y56547619D01*
X8023809Y56547619D02*
X8023809Y57547619D01*
X7928571Y57404761D01*
X7833333Y57309523D01*
X7738095Y57261904D01*
X8928571Y57547619D02*
X9023809Y57547619D01*
X9119047Y57500000D01*
X9166666Y57452380D01*
X9214285Y57357142D01*
X9261904Y57166666D01*
X9261904Y56928571D01*
X9214285Y56738095D01*
X9166666Y56642857D01*
X9119047Y56595238D01*
X9023809Y56547619D01*
X8928571Y56547619D01*
X8833333Y56595238D01*
X8785714Y56642857D01*
X8738095Y56738095D01*
X8690476Y56928571D01*
X8690476Y57166666D01*
X8738095Y57357142D01*
X8785714Y57452380D01*
X8833333Y57500000D01*
X8928571Y57547619D01*
%TO.C,FB1*%
X40266666Y29371428D02*
X39933333Y29371428D01*
X39933333Y28847619D02*
X39933333Y29847619D01*
X40409523Y29847619D01*
X41123809Y29371428D02*
X41266666Y29323809D01*
X41314285Y29276190D01*
X41361904Y29180952D01*
X41361904Y29038095D01*
X41314285Y28942857D01*
X41266666Y28895238D01*
X41171428Y28847619D01*
X40790476Y28847619D01*
X40790476Y29847619D01*
X41123809Y29847619D01*
X41219047Y29800000D01*
X41266666Y29752380D01*
X41314285Y29657142D01*
X41314285Y29561904D01*
X41266666Y29466666D01*
X41219047Y29419047D01*
X41123809Y29371428D01*
X40790476Y29371428D01*
X42314285Y28847619D02*
X41742857Y28847619D01*
X42028571Y28847619D02*
X42028571Y29847619D01*
X41933333Y29704761D01*
X41838095Y29609523D01*
X41742857Y29561904D01*
%TO.C,C9*%
X60783333Y42342857D02*
X60735714Y42295238D01*
X60592857Y42247619D01*
X60497619Y42247619D01*
X60354761Y42295238D01*
X60259523Y42390476D01*
X60211904Y42485714D01*
X60164285Y42676190D01*
X60164285Y42819047D01*
X60211904Y43009523D01*
X60259523Y43104761D01*
X60354761Y43200000D01*
X60497619Y43247619D01*
X60592857Y43247619D01*
X60735714Y43200000D01*
X60783333Y43152380D01*
X61259523Y42247619D02*
X61450000Y42247619D01*
X61545238Y42295238D01*
X61592857Y42342857D01*
X61688095Y42485714D01*
X61735714Y42676190D01*
X61735714Y43057142D01*
X61688095Y43152380D01*
X61640476Y43200000D01*
X61545238Y43247619D01*
X61354761Y43247619D01*
X61259523Y43200000D01*
X61211904Y43152380D01*
X61164285Y43057142D01*
X61164285Y42819047D01*
X61211904Y42723809D01*
X61259523Y42676190D01*
X61354761Y42628571D01*
X61545238Y42628571D01*
X61640476Y42676190D01*
X61688095Y42723809D01*
X61735714Y42819047D01*
%TO.C,C5*%
X53533333Y37242857D02*
X53485714Y37195238D01*
X53342857Y37147619D01*
X53247619Y37147619D01*
X53104761Y37195238D01*
X53009523Y37290476D01*
X52961904Y37385714D01*
X52914285Y37576190D01*
X52914285Y37719047D01*
X52961904Y37909523D01*
X53009523Y38004761D01*
X53104761Y38100000D01*
X53247619Y38147619D01*
X53342857Y38147619D01*
X53485714Y38100000D01*
X53533333Y38052380D01*
X54438095Y38147619D02*
X53961904Y38147619D01*
X53914285Y37671428D01*
X53961904Y37719047D01*
X54057142Y37766666D01*
X54295238Y37766666D01*
X54390476Y37719047D01*
X54438095Y37671428D01*
X54485714Y37576190D01*
X54485714Y37338095D01*
X54438095Y37242857D01*
X54390476Y37195238D01*
X54295238Y37147619D01*
X54057142Y37147619D01*
X53961904Y37195238D01*
X53914285Y37242857D01*
%TO.C,J3*%
X74166666Y27047619D02*
X74166666Y26333333D01*
X74119047Y26190476D01*
X74023809Y26095238D01*
X73880952Y26047619D01*
X73785714Y26047619D01*
X74547619Y27047619D02*
X75166666Y27047619D01*
X74833333Y26666666D01*
X74976190Y26666666D01*
X75071428Y26619047D01*
X75119047Y26571428D01*
X75166666Y26476190D01*
X75166666Y26238095D01*
X75119047Y26142857D01*
X75071428Y26095238D01*
X74976190Y26047619D01*
X74690476Y26047619D01*
X74595238Y26095238D01*
X74547619Y26142857D01*
%TO.C,H1*%
X7238095Y8347619D02*
X7238095Y9347619D01*
X7238095Y8871428D02*
X7809523Y8871428D01*
X7809523Y8347619D02*
X7809523Y9347619D01*
X8809523Y8347619D02*
X8238095Y8347619D01*
X8523809Y8347619D02*
X8523809Y9347619D01*
X8428571Y9204761D01*
X8333333Y9109523D01*
X8238095Y9061904D01*
%TO.C,L1*%
X26983333Y30797619D02*
X26507142Y30797619D01*
X26507142Y31797619D01*
X27840476Y30797619D02*
X27269047Y30797619D01*
X27554761Y30797619D02*
X27554761Y31797619D01*
X27459523Y31654761D01*
X27364285Y31559523D01*
X27269047Y31511904D01*
%TO.C,FB2*%
X58866666Y27171428D02*
X58533333Y27171428D01*
X58533333Y26647619D02*
X58533333Y27647619D01*
X59009523Y27647619D01*
X59723809Y27171428D02*
X59866666Y27123809D01*
X59914285Y27076190D01*
X59961904Y26980952D01*
X59961904Y26838095D01*
X59914285Y26742857D01*
X59866666Y26695238D01*
X59771428Y26647619D01*
X59390476Y26647619D01*
X59390476Y27647619D01*
X59723809Y27647619D01*
X59819047Y27600000D01*
X59866666Y27552380D01*
X59914285Y27457142D01*
X59914285Y27361904D01*
X59866666Y27266666D01*
X59819047Y27219047D01*
X59723809Y27171428D01*
X59390476Y27171428D01*
X60342857Y27552380D02*
X60390476Y27600000D01*
X60485714Y27647619D01*
X60723809Y27647619D01*
X60819047Y27600000D01*
X60866666Y27552380D01*
X60914285Y27457142D01*
X60914285Y27361904D01*
X60866666Y27219047D01*
X60295238Y26647619D01*
X60914285Y26647619D01*
%TO.C,R16*%
X41877380Y22557142D02*
X41401190Y22223809D01*
X41877380Y21985714D02*
X40877380Y21985714D01*
X40877380Y22366666D01*
X40925000Y22461904D01*
X40972619Y22509523D01*
X41067857Y22557142D01*
X41210714Y22557142D01*
X41305952Y22509523D01*
X41353571Y22461904D01*
X41401190Y22366666D01*
X41401190Y21985714D01*
X41877380Y23509523D02*
X41877380Y22938095D01*
X41877380Y23223809D02*
X40877380Y23223809D01*
X41020238Y23128571D01*
X41115476Y23033333D01*
X41163095Y22938095D01*
X40877380Y24366666D02*
X40877380Y24176190D01*
X40925000Y24080952D01*
X40972619Y24033333D01*
X41115476Y23938095D01*
X41305952Y23890476D01*
X41686904Y23890476D01*
X41782142Y23938095D01*
X41829761Y23985714D01*
X41877380Y24080952D01*
X41877380Y24271428D01*
X41829761Y24366666D01*
X41782142Y24414285D01*
X41686904Y24461904D01*
X41448809Y24461904D01*
X41353571Y24414285D01*
X41305952Y24366666D01*
X41258333Y24271428D01*
X41258333Y24080952D01*
X41305952Y23985714D01*
X41353571Y23938095D01*
X41448809Y23890476D01*
%TO.C,R12*%
X7357142Y59547619D02*
X7023809Y60023809D01*
X6785714Y59547619D02*
X6785714Y60547619D01*
X7166666Y60547619D01*
X7261904Y60500000D01*
X7309523Y60452380D01*
X7357142Y60357142D01*
X7357142Y60214285D01*
X7309523Y60119047D01*
X7261904Y60071428D01*
X7166666Y60023809D01*
X6785714Y60023809D01*
X8309523Y59547619D02*
X7738095Y59547619D01*
X8023809Y59547619D02*
X8023809Y60547619D01*
X7928571Y60404761D01*
X7833333Y60309523D01*
X7738095Y60261904D01*
X8690476Y60452380D02*
X8738095Y60500000D01*
X8833333Y60547619D01*
X9071428Y60547619D01*
X9166666Y60500000D01*
X9214285Y60452380D01*
X9261904Y60357142D01*
X9261904Y60261904D01*
X9214285Y60119047D01*
X8642857Y59547619D01*
X9261904Y59547619D01*
%TO.C,U3*%
X26738095Y2047619D02*
X26738095Y1238095D01*
X26785714Y1142857D01*
X26833333Y1095238D01*
X26928571Y1047619D01*
X27119047Y1047619D01*
X27214285Y1095238D01*
X27261904Y1142857D01*
X27309523Y1238095D01*
X27309523Y2047619D01*
X27690476Y2047619D02*
X28309523Y2047619D01*
X27976190Y1666666D01*
X28119047Y1666666D01*
X28214285Y1619047D01*
X28261904Y1571428D01*
X28309523Y1476190D01*
X28309523Y1238095D01*
X28261904Y1142857D01*
X28214285Y1095238D01*
X28119047Y1047619D01*
X27833333Y1047619D01*
X27738095Y1095238D01*
X27690476Y1142857D01*
%TO.C,R6*%
X24133333Y37547619D02*
X23800000Y38023809D01*
X23561904Y37547619D02*
X23561904Y38547619D01*
X23942857Y38547619D01*
X24038095Y38500000D01*
X24085714Y38452380D01*
X24133333Y38357142D01*
X24133333Y38214285D01*
X24085714Y38119047D01*
X24038095Y38071428D01*
X23942857Y38023809D01*
X23561904Y38023809D01*
X24990476Y38547619D02*
X24800000Y38547619D01*
X24704761Y38500000D01*
X24657142Y38452380D01*
X24561904Y38309523D01*
X24514285Y38119047D01*
X24514285Y37738095D01*
X24561904Y37642857D01*
X24609523Y37595238D01*
X24704761Y37547619D01*
X24895238Y37547619D01*
X24990476Y37595238D01*
X25038095Y37642857D01*
X25085714Y37738095D01*
X25085714Y37976190D01*
X25038095Y38071428D01*
X24990476Y38119047D01*
X24895238Y38166666D01*
X24704761Y38166666D01*
X24609523Y38119047D01*
X24561904Y38071428D01*
X24514285Y37976190D01*
%TO.C,R8*%
X24133333Y32747619D02*
X23800000Y33223809D01*
X23561904Y32747619D02*
X23561904Y33747619D01*
X23942857Y33747619D01*
X24038095Y33700000D01*
X24085714Y33652380D01*
X24133333Y33557142D01*
X24133333Y33414285D01*
X24085714Y33319047D01*
X24038095Y33271428D01*
X23942857Y33223809D01*
X23561904Y33223809D01*
X24704761Y33319047D02*
X24609523Y33366666D01*
X24561904Y33414285D01*
X24514285Y33509523D01*
X24514285Y33557142D01*
X24561904Y33652380D01*
X24609523Y33700000D01*
X24704761Y33747619D01*
X24895238Y33747619D01*
X24990476Y33700000D01*
X25038095Y33652380D01*
X25085714Y33557142D01*
X25085714Y33509523D01*
X25038095Y33414285D01*
X24990476Y33366666D01*
X24895238Y33319047D01*
X24704761Y33319047D01*
X24609523Y33271428D01*
X24561904Y33223809D01*
X24514285Y33128571D01*
X24514285Y32938095D01*
X24561904Y32842857D01*
X24609523Y32795238D01*
X24704761Y32747619D01*
X24895238Y32747619D01*
X24990476Y32795238D01*
X25038095Y32842857D01*
X25085714Y32938095D01*
X25085714Y33128571D01*
X25038095Y33223809D01*
X24990476Y33271428D01*
X24895238Y33319047D01*
%TO.C,C14*%
X62307142Y31942857D02*
X62259523Y31895238D01*
X62116666Y31847619D01*
X62021428Y31847619D01*
X61878571Y31895238D01*
X61783333Y31990476D01*
X61735714Y32085714D01*
X61688095Y32276190D01*
X61688095Y32419047D01*
X61735714Y32609523D01*
X61783333Y32704761D01*
X61878571Y32800000D01*
X62021428Y32847619D01*
X62116666Y32847619D01*
X62259523Y32800000D01*
X62307142Y32752380D01*
X63259523Y31847619D02*
X62688095Y31847619D01*
X62973809Y31847619D02*
X62973809Y32847619D01*
X62878571Y32704761D01*
X62783333Y32609523D01*
X62688095Y32561904D01*
X64116666Y32514285D02*
X64116666Y31847619D01*
X63878571Y32895238D02*
X63640476Y32180952D01*
X64259523Y32180952D01*
%TO.C,C10*%
X61857142Y36742857D02*
X61809523Y36695238D01*
X61666666Y36647619D01*
X61571428Y36647619D01*
X61428571Y36695238D01*
X61333333Y36790476D01*
X61285714Y36885714D01*
X61238095Y37076190D01*
X61238095Y37219047D01*
X61285714Y37409523D01*
X61333333Y37504761D01*
X61428571Y37600000D01*
X61571428Y37647619D01*
X61666666Y37647619D01*
X61809523Y37600000D01*
X61857142Y37552380D01*
X62809523Y36647619D02*
X62238095Y36647619D01*
X62523809Y36647619D02*
X62523809Y37647619D01*
X62428571Y37504761D01*
X62333333Y37409523D01*
X62238095Y37361904D01*
X63428571Y37647619D02*
X63523809Y37647619D01*
X63619047Y37600000D01*
X63666666Y37552380D01*
X63714285Y37457142D01*
X63761904Y37266666D01*
X63761904Y37028571D01*
X63714285Y36838095D01*
X63666666Y36742857D01*
X63619047Y36695238D01*
X63523809Y36647619D01*
X63428571Y36647619D01*
X63333333Y36695238D01*
X63285714Y36742857D01*
X63238095Y36838095D01*
X63190476Y37028571D01*
X63190476Y37266666D01*
X63238095Y37457142D01*
X63285714Y37552380D01*
X63333333Y37600000D01*
X63428571Y37647619D01*
%TO.C,C15*%
X53757142Y18142857D02*
X53709523Y18095238D01*
X53566666Y18047619D01*
X53471428Y18047619D01*
X53328571Y18095238D01*
X53233333Y18190476D01*
X53185714Y18285714D01*
X53138095Y18476190D01*
X53138095Y18619047D01*
X53185714Y18809523D01*
X53233333Y18904761D01*
X53328571Y19000000D01*
X53471428Y19047619D01*
X53566666Y19047619D01*
X53709523Y19000000D01*
X53757142Y18952380D01*
X54709523Y18047619D02*
X54138095Y18047619D01*
X54423809Y18047619D02*
X54423809Y19047619D01*
X54328571Y18904761D01*
X54233333Y18809523D01*
X54138095Y18761904D01*
X55614285Y19047619D02*
X55138095Y19047619D01*
X55090476Y18571428D01*
X55138095Y18619047D01*
X55233333Y18666666D01*
X55471428Y18666666D01*
X55566666Y18619047D01*
X55614285Y18571428D01*
X55661904Y18476190D01*
X55661904Y18238095D01*
X55614285Y18142857D01*
X55566666Y18095238D01*
X55471428Y18047619D01*
X55233333Y18047619D01*
X55138095Y18095238D01*
X55090476Y18142857D01*
%TO.C,J1*%
X74166666Y58047619D02*
X74166666Y57333333D01*
X74119047Y57190476D01*
X74023809Y57095238D01*
X73880952Y57047619D01*
X73785714Y57047619D01*
X75166666Y57047619D02*
X74595238Y57047619D01*
X74880952Y57047619D02*
X74880952Y58047619D01*
X74785714Y57904761D01*
X74690476Y57809523D01*
X74595238Y57761904D01*
%TO.C,C4*%
X66578221Y72492857D02*
X66530602Y72445238D01*
X66387745Y72397619D01*
X66292507Y72397619D01*
X66149649Y72445238D01*
X66054411Y72540476D01*
X66006792Y72635714D01*
X65959173Y72826190D01*
X65959173Y72969047D01*
X66006792Y73159523D01*
X66054411Y73254761D01*
X66149649Y73350000D01*
X66292507Y73397619D01*
X66387745Y73397619D01*
X66530602Y73350000D01*
X66578221Y73302380D01*
X67435364Y73064285D02*
X67435364Y72397619D01*
X67197268Y73445238D02*
X66959173Y72730952D01*
X67578221Y72730952D01*
%TO.C,U2*%
X44238095Y35547619D02*
X44238095Y34738095D01*
X44285714Y34642857D01*
X44333333Y34595238D01*
X44428571Y34547619D01*
X44619047Y34547619D01*
X44714285Y34595238D01*
X44761904Y34642857D01*
X44809523Y34738095D01*
X44809523Y35547619D01*
X45238095Y35452380D02*
X45285714Y35500000D01*
X45380952Y35547619D01*
X45619047Y35547619D01*
X45714285Y35500000D01*
X45761904Y35452380D01*
X45809523Y35357142D01*
X45809523Y35261904D01*
X45761904Y35119047D01*
X45190476Y34547619D01*
X45809523Y34547619D01*
%TO.C,C12*%
X55057142Y25142857D02*
X55009523Y25095238D01*
X54866666Y25047619D01*
X54771428Y25047619D01*
X54628571Y25095238D01*
X54533333Y25190476D01*
X54485714Y25285714D01*
X54438095Y25476190D01*
X54438095Y25619047D01*
X54485714Y25809523D01*
X54533333Y25904761D01*
X54628571Y26000000D01*
X54771428Y26047619D01*
X54866666Y26047619D01*
X55009523Y26000000D01*
X55057142Y25952380D01*
X56009523Y25047619D02*
X55438095Y25047619D01*
X55723809Y25047619D02*
X55723809Y26047619D01*
X55628571Y25904761D01*
X55533333Y25809523D01*
X55438095Y25761904D01*
X56390476Y25952380D02*
X56438095Y26000000D01*
X56533333Y26047619D01*
X56771428Y26047619D01*
X56866666Y26000000D01*
X56914285Y25952380D01*
X56961904Y25857142D01*
X56961904Y25761904D01*
X56914285Y25619047D01*
X56342857Y25047619D01*
X56961904Y25047619D01*
%TO.C,C11*%
X6457142Y49542857D02*
X6409523Y49495238D01*
X6266666Y49447619D01*
X6171428Y49447619D01*
X6028571Y49495238D01*
X5933333Y49590476D01*
X5885714Y49685714D01*
X5838095Y49876190D01*
X5838095Y50019047D01*
X5885714Y50209523D01*
X5933333Y50304761D01*
X6028571Y50400000D01*
X6171428Y50447619D01*
X6266666Y50447619D01*
X6409523Y50400000D01*
X6457142Y50352380D01*
X7409523Y49447619D02*
X6838095Y49447619D01*
X7123809Y49447619D02*
X7123809Y50447619D01*
X7028571Y50304761D01*
X6933333Y50209523D01*
X6838095Y50161904D01*
X8361904Y49447619D02*
X7790476Y49447619D01*
X8076190Y49447619D02*
X8076190Y50447619D01*
X7980952Y50304761D01*
X7885714Y50209523D01*
X7790476Y50161904D01*
%TO.C,C16*%
X61957142Y26742857D02*
X61909523Y26695238D01*
X61766666Y26647619D01*
X61671428Y26647619D01*
X61528571Y26695238D01*
X61433333Y26790476D01*
X61385714Y26885714D01*
X61338095Y27076190D01*
X61338095Y27219047D01*
X61385714Y27409523D01*
X61433333Y27504761D01*
X61528571Y27600000D01*
X61671428Y27647619D01*
X61766666Y27647619D01*
X61909523Y27600000D01*
X61957142Y27552380D01*
X62909523Y26647619D02*
X62338095Y26647619D01*
X62623809Y26647619D02*
X62623809Y27647619D01*
X62528571Y27504761D01*
X62433333Y27409523D01*
X62338095Y27361904D01*
X63766666Y27647619D02*
X63576190Y27647619D01*
X63480952Y27600000D01*
X63433333Y27552380D01*
X63338095Y27409523D01*
X63290476Y27219047D01*
X63290476Y26838095D01*
X63338095Y26742857D01*
X63385714Y26695238D01*
X63480952Y26647619D01*
X63671428Y26647619D01*
X63766666Y26695238D01*
X63814285Y26742857D01*
X63861904Y26838095D01*
X63861904Y27076190D01*
X63814285Y27171428D01*
X63766666Y27219047D01*
X63671428Y27266666D01*
X63480952Y27266666D01*
X63385714Y27219047D01*
X63338095Y27171428D01*
X63290476Y27076190D01*
%TO.C,R1*%
X37452380Y34333333D02*
X36976190Y34000000D01*
X37452380Y33761904D02*
X36452380Y33761904D01*
X36452380Y34142857D01*
X36500000Y34238095D01*
X36547619Y34285714D01*
X36642857Y34333333D01*
X36785714Y34333333D01*
X36880952Y34285714D01*
X36928571Y34238095D01*
X36976190Y34142857D01*
X36976190Y33761904D01*
X37452380Y35285714D02*
X37452380Y34714285D01*
X37452380Y35000000D02*
X36452380Y35000000D01*
X36595238Y34904761D01*
X36690476Y34809523D01*
X36738095Y34714285D01*
%TO.C,R2*%
X31833333Y29767619D02*
X31500000Y30243809D01*
X31261904Y29767619D02*
X31261904Y30767619D01*
X31642857Y30767619D01*
X31738095Y30720000D01*
X31785714Y30672380D01*
X31833333Y30577142D01*
X31833333Y30434285D01*
X31785714Y30339047D01*
X31738095Y30291428D01*
X31642857Y30243809D01*
X31261904Y30243809D01*
X32214285Y30672380D02*
X32261904Y30720000D01*
X32357142Y30767619D01*
X32595238Y30767619D01*
X32690476Y30720000D01*
X32738095Y30672380D01*
X32785714Y30577142D01*
X32785714Y30481904D01*
X32738095Y30339047D01*
X32166666Y29767619D01*
X32785714Y29767619D01*
%TO.C,J4*%
X61666666Y12047619D02*
X61666666Y11333333D01*
X61619047Y11190476D01*
X61523809Y11095238D01*
X61380952Y11047619D01*
X61285714Y11047619D01*
X62571428Y11714285D02*
X62571428Y11047619D01*
X62333333Y12095238D02*
X62095238Y11380952D01*
X62714285Y11380952D01*
D12*
X58166666Y20847619D02*
X58500000Y19847619D01*
X58833333Y20847619D01*
X59738095Y19942857D02*
X59690476Y19895238D01*
X59547619Y19847619D01*
X59452380Y19847619D01*
X59309523Y19895238D01*
X59214285Y19990476D01*
X59166666Y20085714D01*
X59119047Y20276190D01*
X59119047Y20419047D01*
X59166666Y20609523D01*
X59214285Y20704761D01*
X59309523Y20800000D01*
X59452380Y20847619D01*
X59547619Y20847619D01*
X59690476Y20800000D01*
X59738095Y20752380D01*
X60738095Y19942857D02*
X60690476Y19895238D01*
X60547619Y19847619D01*
X60452380Y19847619D01*
X60309523Y19895238D01*
X60214285Y19990476D01*
X60166666Y20085714D01*
X60119047Y20276190D01*
X60119047Y20419047D01*
X60166666Y20609523D01*
X60214285Y20704761D01*
X60309523Y20800000D01*
X60452380Y20847619D01*
X60547619Y20847619D01*
X60690476Y20800000D01*
X60738095Y20752380D01*
D11*
%TO.C,R9*%
X7833333Y62547619D02*
X7500000Y63023809D01*
X7261904Y62547619D02*
X7261904Y63547619D01*
X7642857Y63547619D01*
X7738095Y63500000D01*
X7785714Y63452380D01*
X7833333Y63357142D01*
X7833333Y63214285D01*
X7785714Y63119047D01*
X7738095Y63071428D01*
X7642857Y63023809D01*
X7261904Y63023809D01*
X8309523Y62547619D02*
X8500000Y62547619D01*
X8595238Y62595238D01*
X8642857Y62642857D01*
X8738095Y62785714D01*
X8785714Y62976190D01*
X8785714Y63357142D01*
X8738095Y63452380D01*
X8690476Y63500000D01*
X8595238Y63547619D01*
X8404761Y63547619D01*
X8309523Y63500000D01*
X8261904Y63452380D01*
X8214285Y63357142D01*
X8214285Y63119047D01*
X8261904Y63023809D01*
X8309523Y62976190D01*
X8404761Y62928571D01*
X8595238Y62928571D01*
X8690476Y62976190D01*
X8738095Y63023809D01*
X8785714Y63119047D01*
%TO.C,R15*%
X52602380Y22557142D02*
X52126190Y22223809D01*
X52602380Y21985714D02*
X51602380Y21985714D01*
X51602380Y22366666D01*
X51650000Y22461904D01*
X51697619Y22509523D01*
X51792857Y22557142D01*
X51935714Y22557142D01*
X52030952Y22509523D01*
X52078571Y22461904D01*
X52126190Y22366666D01*
X52126190Y21985714D01*
X52602380Y23509523D02*
X52602380Y22938095D01*
X52602380Y23223809D02*
X51602380Y23223809D01*
X51745238Y23128571D01*
X51840476Y23033333D01*
X51888095Y22938095D01*
X51602380Y24414285D02*
X51602380Y23938095D01*
X52078571Y23890476D01*
X52030952Y23938095D01*
X51983333Y24033333D01*
X51983333Y24271428D01*
X52030952Y24366666D01*
X52078571Y24414285D01*
X52173809Y24461904D01*
X52411904Y24461904D01*
X52507142Y24414285D01*
X52554761Y24366666D01*
X52602380Y24271428D01*
X52602380Y24033333D01*
X52554761Y23938095D01*
X52507142Y23890476D01*
%TO.C,J2*%
X74221666Y43047619D02*
X74221666Y42333333D01*
X74174047Y42190476D01*
X74078809Y42095238D01*
X73935952Y42047619D01*
X73840714Y42047619D01*
X74650238Y42952380D02*
X74697857Y43000000D01*
X74793095Y43047619D01*
X75031190Y43047619D01*
X75126428Y43000000D01*
X75174047Y42952380D01*
X75221666Y42857142D01*
X75221666Y42761904D01*
X75174047Y42619047D01*
X74602619Y42047619D01*
X75221666Y42047619D01*
%TO.C,R7*%
X24133333Y35147619D02*
X23800000Y35623809D01*
X23561904Y35147619D02*
X23561904Y36147619D01*
X23942857Y36147619D01*
X24038095Y36100000D01*
X24085714Y36052380D01*
X24133333Y35957142D01*
X24133333Y35814285D01*
X24085714Y35719047D01*
X24038095Y35671428D01*
X23942857Y35623809D01*
X23561904Y35623809D01*
X24466666Y36147619D02*
X25133333Y36147619D01*
X24704761Y35147619D01*
%TO.C,U1*%
X35238095Y59547619D02*
X35238095Y58738095D01*
X35285714Y58642857D01*
X35333333Y58595238D01*
X35428571Y58547619D01*
X35619047Y58547619D01*
X35714285Y58595238D01*
X35761904Y58642857D01*
X35809523Y58738095D01*
X35809523Y59547619D01*
X36809523Y58547619D02*
X36238095Y58547619D01*
X36523809Y58547619D02*
X36523809Y59547619D01*
X36428571Y59404761D01*
X36333333Y59309523D01*
X36238095Y59261904D01*
%TO.C,R11*%
X53157142Y29547619D02*
X52823809Y30023809D01*
X52585714Y29547619D02*
X52585714Y30547619D01*
X52966666Y30547619D01*
X53061904Y30500000D01*
X53109523Y30452380D01*
X53157142Y30357142D01*
X53157142Y30214285D01*
X53109523Y30119047D01*
X53061904Y30071428D01*
X52966666Y30023809D01*
X52585714Y30023809D01*
X54109523Y29547619D02*
X53538095Y29547619D01*
X53823809Y29547619D02*
X53823809Y30547619D01*
X53728571Y30404761D01*
X53633333Y30309523D01*
X53538095Y30261904D01*
X55061904Y29547619D02*
X54490476Y29547619D01*
X54776190Y29547619D02*
X54776190Y30547619D01*
X54680952Y30404761D01*
X54585714Y30309523D01*
X54490476Y30261904D01*
%TO.C,C2*%
X33833333Y31742857D02*
X33785714Y31695238D01*
X33642857Y31647619D01*
X33547619Y31647619D01*
X33404761Y31695238D01*
X33309523Y31790476D01*
X33261904Y31885714D01*
X33214285Y32076190D01*
X33214285Y32219047D01*
X33261904Y32409523D01*
X33309523Y32504761D01*
X33404761Y32600000D01*
X33547619Y32647619D01*
X33642857Y32647619D01*
X33785714Y32600000D01*
X33833333Y32552380D01*
X34214285Y32552380D02*
X34261904Y32600000D01*
X34357142Y32647619D01*
X34595238Y32647619D01*
X34690476Y32600000D01*
X34738095Y32552380D01*
X34785714Y32457142D01*
X34785714Y32361904D01*
X34738095Y32219047D01*
X34166666Y31647619D01*
X34785714Y31647619D01*
%TO.C,R5*%
X24133333Y39947619D02*
X23800000Y40423809D01*
X23561904Y39947619D02*
X23561904Y40947619D01*
X23942857Y40947619D01*
X24038095Y40900000D01*
X24085714Y40852380D01*
X24133333Y40757142D01*
X24133333Y40614285D01*
X24085714Y40519047D01*
X24038095Y40471428D01*
X23942857Y40423809D01*
X23561904Y40423809D01*
X25038095Y40947619D02*
X24561904Y40947619D01*
X24514285Y40471428D01*
X24561904Y40519047D01*
X24657142Y40566666D01*
X24895238Y40566666D01*
X24990476Y40519047D01*
X25038095Y40471428D01*
X25085714Y40376190D01*
X25085714Y40138095D01*
X25038095Y40042857D01*
X24990476Y39995238D01*
X24895238Y39947619D01*
X24657142Y39947619D01*
X24561904Y39995238D01*
X24514285Y40042857D01*
%TO.C,R3*%
X31833333Y27347619D02*
X31500000Y27823809D01*
X31261904Y27347619D02*
X31261904Y28347619D01*
X31642857Y28347619D01*
X31738095Y28300000D01*
X31785714Y28252380D01*
X31833333Y28157142D01*
X31833333Y28014285D01*
X31785714Y27919047D01*
X31738095Y27871428D01*
X31642857Y27823809D01*
X31261904Y27823809D01*
X32166666Y28347619D02*
X32785714Y28347619D01*
X32452380Y27966666D01*
X32595238Y27966666D01*
X32690476Y27919047D01*
X32738095Y27871428D01*
X32785714Y27776190D01*
X32785714Y27538095D01*
X32738095Y27442857D01*
X32690476Y27395238D01*
X32595238Y27347619D01*
X32309523Y27347619D01*
X32214285Y27395238D01*
X32166666Y27442857D01*
%TO.C,C17*%
X26657142Y19742857D02*
X26609523Y19695238D01*
X26466666Y19647619D01*
X26371428Y19647619D01*
X26228571Y19695238D01*
X26133333Y19790476D01*
X26085714Y19885714D01*
X26038095Y20076190D01*
X26038095Y20219047D01*
X26085714Y20409523D01*
X26133333Y20504761D01*
X26228571Y20600000D01*
X26371428Y20647619D01*
X26466666Y20647619D01*
X26609523Y20600000D01*
X26657142Y20552380D01*
X27609523Y19647619D02*
X27038095Y19647619D01*
X27323809Y19647619D02*
X27323809Y20647619D01*
X27228571Y20504761D01*
X27133333Y20409523D01*
X27038095Y20361904D01*
X27942857Y20647619D02*
X28609523Y20647619D01*
X28180952Y19647619D01*
%TO.C,C7*%
X6833333Y43542857D02*
X6785714Y43495238D01*
X6642857Y43447619D01*
X6547619Y43447619D01*
X6404761Y43495238D01*
X6309523Y43590476D01*
X6261904Y43685714D01*
X6214285Y43876190D01*
X6214285Y44019047D01*
X6261904Y44209523D01*
X6309523Y44304761D01*
X6404761Y44400000D01*
X6547619Y44447619D01*
X6642857Y44447619D01*
X6785714Y44400000D01*
X6833333Y44352380D01*
X7166666Y44447619D02*
X7833333Y44447619D01*
X7404761Y43447619D01*
%TO.C,Y1*%
X33513809Y41023809D02*
X33513809Y40547619D01*
X33180476Y41547619D02*
X33513809Y41023809D01*
X33847142Y41547619D01*
X34704285Y40547619D02*
X34132857Y40547619D01*
X34418571Y40547619D02*
X34418571Y41547619D01*
X34323333Y41404761D01*
X34228095Y41309523D01*
X34132857Y41261904D01*
%TO.C,H2*%
X72238095Y8347619D02*
X72238095Y9347619D01*
X72238095Y8871428D02*
X72809523Y8871428D01*
X72809523Y8347619D02*
X72809523Y9347619D01*
X73238095Y9252380D02*
X73285714Y9300000D01*
X73380952Y9347619D01*
X73619047Y9347619D01*
X73714285Y9300000D01*
X73761904Y9252380D01*
X73809523Y9157142D01*
X73809523Y9061904D01*
X73761904Y8919047D01*
X73190476Y8347619D01*
X73809523Y8347619D01*
%TO.C,R14*%
X38302380Y22557142D02*
X37826190Y22223809D01*
X38302380Y21985714D02*
X37302380Y21985714D01*
X37302380Y22366666D01*
X37350000Y22461904D01*
X37397619Y22509523D01*
X37492857Y22557142D01*
X37635714Y22557142D01*
X37730952Y22509523D01*
X37778571Y22461904D01*
X37826190Y22366666D01*
X37826190Y21985714D01*
X38302380Y23509523D02*
X38302380Y22938095D01*
X38302380Y23223809D02*
X37302380Y23223809D01*
X37445238Y23128571D01*
X37540476Y23033333D01*
X37588095Y22938095D01*
X37635714Y24366666D02*
X38302380Y24366666D01*
X37254761Y24128571D02*
X37969047Y23890476D01*
X37969047Y24509523D01*
%TO.C,R17*%
X45452380Y22557142D02*
X44976190Y22223809D01*
X45452380Y21985714D02*
X44452380Y21985714D01*
X44452380Y22366666D01*
X44500000Y22461904D01*
X44547619Y22509523D01*
X44642857Y22557142D01*
X44785714Y22557142D01*
X44880952Y22509523D01*
X44928571Y22461904D01*
X44976190Y22366666D01*
X44976190Y21985714D01*
X45452380Y23509523D02*
X45452380Y22938095D01*
X45452380Y23223809D02*
X44452380Y23223809D01*
X44595238Y23128571D01*
X44690476Y23033333D01*
X44738095Y22938095D01*
X44452380Y23842857D02*
X44452380Y24509523D01*
X45452380Y24080952D01*
%TO.C,C13*%
X69674762Y9642857D02*
X69627143Y9595238D01*
X69484286Y9547619D01*
X69389048Y9547619D01*
X69246191Y9595238D01*
X69150953Y9690476D01*
X69103334Y9785714D01*
X69055715Y9976190D01*
X69055715Y10119047D01*
X69103334Y10309523D01*
X69150953Y10404761D01*
X69246191Y10500000D01*
X69389048Y10547619D01*
X69484286Y10547619D01*
X69627143Y10500000D01*
X69674762Y10452380D01*
X70627143Y9547619D02*
X70055715Y9547619D01*
X70341429Y9547619D02*
X70341429Y10547619D01*
X70246191Y10404761D01*
X70150953Y10309523D01*
X70055715Y10261904D01*
X70960477Y10547619D02*
X71579524Y10547619D01*
X71246191Y10166666D01*
X71389048Y10166666D01*
X71484286Y10119047D01*
X71531905Y10071428D01*
X71579524Y9976190D01*
X71579524Y9738095D01*
X71531905Y9642857D01*
X71484286Y9595238D01*
X71389048Y9547619D01*
X71103334Y9547619D01*
X71008096Y9595238D01*
X70960477Y9642857D01*
%TO.C,R13*%
X49027380Y22557142D02*
X48551190Y22223809D01*
X49027380Y21985714D02*
X48027380Y21985714D01*
X48027380Y22366666D01*
X48075000Y22461904D01*
X48122619Y22509523D01*
X48217857Y22557142D01*
X48360714Y22557142D01*
X48455952Y22509523D01*
X48503571Y22461904D01*
X48551190Y22366666D01*
X48551190Y21985714D01*
X49027380Y23509523D02*
X49027380Y22938095D01*
X49027380Y23223809D02*
X48027380Y23223809D01*
X48170238Y23128571D01*
X48265476Y23033333D01*
X48313095Y22938095D01*
X48027380Y23842857D02*
X48027380Y24461904D01*
X48408333Y24128571D01*
X48408333Y24271428D01*
X48455952Y24366666D01*
X48503571Y24414285D01*
X48598809Y24461904D01*
X48836904Y24461904D01*
X48932142Y24414285D01*
X48979761Y24366666D01*
X49027380Y24271428D01*
X49027380Y23985714D01*
X48979761Y23890476D01*
X48932142Y23842857D01*
%TO.C,D1*%
X29661904Y4547619D02*
X29661904Y5547619D01*
X29900000Y5547619D01*
X30042857Y5500000D01*
X30138095Y5404761D01*
X30185714Y5309523D01*
X30233333Y5119047D01*
X30233333Y4976190D01*
X30185714Y4785714D01*
X30138095Y4690476D01*
X30042857Y4595238D01*
X29900000Y4547619D01*
X29661904Y4547619D01*
X31185714Y4547619D02*
X30614285Y4547619D01*
X30900000Y4547619D02*
X30900000Y5547619D01*
X30804761Y5404761D01*
X30709523Y5309523D01*
X30614285Y5261904D01*
D13*
%TO.C,J5*%
X37140000Y12000000D02*
X37140000Y17700000D01*
X51015000Y1000000D02*
X52890000Y1000000D01*
X37140000Y1000000D02*
X39015000Y1000000D01*
X37140000Y1000000D02*
X37140000Y8000000D01*
X52890000Y8000000D02*
X52890000Y1000000D01*
X52890000Y17700000D02*
X52890000Y12000000D01*
X37140000Y17700000D02*
X52890000Y17700000D01*
%TO.C,C6*%
X51484887Y39960000D02*
X51484887Y38457000D01*
X51724887Y39960000D02*
X51724887Y38509000D01*
X53605887Y41518000D02*
X53605887Y40482000D01*
X52165887Y39960000D02*
X52165887Y38671000D01*
X52045887Y43382000D02*
X52045887Y42040000D01*
X51044887Y39960000D02*
X51044887Y38420000D01*
X53165887Y42500000D02*
X53165887Y39500000D01*
X52005887Y43398000D02*
X52005887Y42040000D01*
X52325887Y39960000D02*
X52325887Y38753000D01*
X52965887Y39960000D02*
X52965887Y39257000D01*
X51324887Y39960000D02*
X51324887Y38435000D01*
X51124887Y43579000D02*
X51124887Y42040000D01*
X53005887Y42699000D02*
X53005887Y42040000D01*
X52765887Y39960000D02*
X52765887Y39063000D01*
X51524887Y39960000D02*
X51524887Y38464000D01*
X52645887Y43035000D02*
X52645887Y42040000D01*
X53485887Y41915000D02*
X53485887Y40085000D01*
X51564887Y39960000D02*
X51564887Y38472000D01*
X51724887Y43491000D02*
X51724887Y42040000D01*
X52965887Y42743000D02*
X52965887Y42040000D01*
X52685887Y43004000D02*
X52685887Y42040000D01*
X52365887Y39960000D02*
X52365887Y38776000D01*
X52805887Y42901000D02*
X52805887Y42040000D01*
X48240112Y42475000D02*
X48740112Y42475000D01*
X51925887Y39960000D02*
X51925887Y38572000D01*
X51604887Y43520000D02*
X51604887Y42040000D01*
X52605887Y39960000D02*
X52605887Y38935000D01*
X52325887Y43247000D02*
X52325887Y42040000D01*
X51684887Y39960000D02*
X51684887Y38499000D01*
X51845887Y43455000D02*
X51845887Y42040000D01*
X52525887Y43122000D02*
X52525887Y42040000D01*
X51164887Y39960000D02*
X51164887Y38422000D01*
X52525887Y39960000D02*
X52525887Y38878000D01*
X52045887Y39960000D02*
X52045887Y38618000D01*
X48490112Y42725000D02*
X48490112Y42225000D01*
X53565887Y41677000D02*
X53565887Y40323000D01*
X51244887Y43573000D02*
X51244887Y42040000D01*
X51084887Y43580000D02*
X51084887Y42040000D01*
X52725887Y39960000D02*
X52725887Y39029000D01*
X51204887Y39960000D02*
X51204887Y38424000D01*
X52565887Y43095000D02*
X52565887Y42040000D01*
X52245887Y39960000D02*
X52245887Y38710000D01*
X51084887Y39960000D02*
X51084887Y38420000D01*
X52485887Y39960000D02*
X52485887Y38851000D01*
X52685887Y39960000D02*
X52685887Y38996000D01*
X51284887Y43569000D02*
X51284887Y42040000D01*
X52605887Y43065000D02*
X52605887Y42040000D01*
X51604887Y39960000D02*
X51604887Y38480000D01*
X51444887Y43550000D02*
X51444887Y42040000D01*
X51124887Y39960000D02*
X51124887Y38421000D01*
X52005887Y39960000D02*
X52005887Y38602000D01*
X51644887Y39960000D02*
X51644887Y38489000D01*
X51164887Y43578000D02*
X51164887Y42040000D01*
X53085887Y42605000D02*
X53085887Y39395000D01*
X52725887Y42971000D02*
X52725887Y42040000D01*
X51324887Y43565000D02*
X51324887Y42040000D01*
X52485887Y43149000D02*
X52485887Y42040000D01*
X51765887Y39960000D02*
X51765887Y38520000D01*
X51364887Y43561000D02*
X51364887Y42040000D01*
X51484887Y43543000D02*
X51484887Y42040000D01*
X52925887Y42785000D02*
X52925887Y42040000D01*
X52565887Y39960000D02*
X52565887Y38905000D01*
X51965887Y43414000D02*
X51965887Y42040000D01*
X51524887Y43536000D02*
X51524887Y42040000D01*
X53205887Y42443000D02*
X53205887Y39557000D01*
X52085887Y39960000D02*
X52085887Y38635000D01*
X51805887Y43468000D02*
X51805887Y42040000D01*
X51805887Y39960000D02*
X51805887Y38532000D01*
X51404887Y39960000D02*
X51404887Y38444000D01*
X52285887Y39960000D02*
X52285887Y38732000D01*
X53285887Y42319000D02*
X53285887Y39681000D01*
X52285887Y43268000D02*
X52285887Y42040000D01*
X52365887Y43224000D02*
X52365887Y42040000D01*
X51364887Y39960000D02*
X51364887Y38439000D01*
X53245887Y42383000D02*
X53245887Y39617000D01*
X52845887Y39960000D02*
X52845887Y39136000D01*
X51845887Y39960000D02*
X51845887Y38545000D01*
X51885887Y43442000D02*
X51885887Y42040000D01*
X52845887Y42864000D02*
X52845887Y42040000D01*
X53645887Y41284000D02*
X53645887Y40716000D01*
X53045887Y42653000D02*
X53045887Y42040000D01*
X52885887Y39960000D02*
X52885887Y39174000D01*
X51404887Y43556000D02*
X51404887Y42040000D01*
X51244887Y39960000D02*
X51244887Y38427000D01*
X52765887Y42937000D02*
X52765887Y42040000D01*
X51684887Y43501000D02*
X51684887Y42040000D01*
X53365887Y42178000D02*
X53365887Y39822000D01*
X52405887Y39960000D02*
X52405887Y38800000D01*
X52085887Y43365000D02*
X52085887Y42040000D01*
X51644887Y43511000D02*
X51644887Y42040000D01*
X51765887Y43480000D02*
X51765887Y42040000D01*
X53445887Y42011000D02*
X53445887Y39989000D01*
X53125887Y42554000D02*
X53125887Y39446000D01*
X53325887Y42251000D02*
X53325887Y39749000D01*
X52805887Y39960000D02*
X52805887Y39099000D01*
X51885887Y39960000D02*
X51885887Y38558000D01*
X52445887Y43175000D02*
X52445887Y42040000D01*
X53005887Y39960000D02*
X53005887Y39301000D01*
X51204887Y43576000D02*
X51204887Y42040000D01*
X53525887Y41805000D02*
X53525887Y40195000D01*
X52205887Y39960000D02*
X52205887Y38690000D01*
X52925887Y39960000D02*
X52925887Y39215000D01*
X52885887Y42826000D02*
X52885887Y42040000D01*
X52125887Y43348000D02*
X52125887Y42040000D01*
X53405887Y42098000D02*
X53405887Y39902000D01*
X51564887Y43528000D02*
X51564887Y42040000D01*
X51284887Y39960000D02*
X51284887Y38431000D01*
X52125887Y39960000D02*
X52125887Y38652000D01*
X52405887Y43200000D02*
X52405887Y42040000D01*
X51444887Y39960000D02*
X51444887Y38450000D01*
X52445887Y39960000D02*
X52445887Y38825000D01*
X52645887Y39960000D02*
X52645887Y38965000D01*
X51925887Y43428000D02*
X51925887Y42040000D01*
X53045887Y39960000D02*
X53045887Y39347000D01*
X51044887Y43580000D02*
X51044887Y42040000D01*
X52165887Y43329000D02*
X52165887Y42040000D01*
X52205887Y43310000D02*
X52205887Y42040000D01*
X52245887Y43290000D02*
X52245887Y42040000D01*
X51965887Y39960000D02*
X51965887Y38586000D01*
X53664887Y41000000D02*
G75*
G03*
X53664887Y41000000I-2620000J0D01*
G01*
%TO.C,C3*%
X42580000Y44320000D02*
X42580000Y41080000D01*
X42580000Y44320000D02*
X47420000Y44320000D01*
X42580000Y41080000D02*
X47420000Y41080000D01*
X47420000Y44320000D02*
X47420000Y41080000D01*
%TO.C,R4*%
X30080000Y24480000D02*
X33920000Y24480000D01*
X30080000Y26320000D02*
X33920000Y26320000D01*
%TO.C,C8*%
X59720000Y40720000D02*
X59720000Y37480000D01*
X54880000Y40720000D02*
X59720000Y40720000D01*
X54880000Y37480000D02*
X59720000Y37480000D01*
X54880000Y40720000D02*
X54880000Y37480000D01*
%TO.C,C1*%
X31620000Y33080000D02*
X28380000Y33080000D01*
X28380000Y37920000D02*
X28380000Y33080000D01*
X31620000Y37920000D02*
X28380000Y37920000D01*
X31620000Y37920000D02*
X31620000Y33080000D01*
%TO.C,R10*%
X9920000Y56080000D02*
X6080000Y56080000D01*
X9920000Y57920000D02*
X6080000Y57920000D01*
%TO.C,FB1*%
X37572936Y30035000D02*
X38027064Y30035000D01*
X37572936Y28565000D02*
X38027064Y28565000D01*
%TO.C,C9*%
X59720000Y44320000D02*
X59720000Y41080000D01*
X54880000Y44320000D02*
X59720000Y44320000D01*
X54880000Y41080000D02*
X59720000Y41080000D01*
X54880000Y44320000D02*
X54880000Y41080000D01*
%TO.C,C5*%
X51280000Y33380000D02*
X56120000Y33380000D01*
X51280000Y36620000D02*
X51280000Y33380000D01*
X51280000Y36620000D02*
X56120000Y36620000D01*
X56120000Y36620000D02*
X56120000Y33380000D01*
%TO.C,J3*%
X73500000Y32600000D02*
X77350000Y32600000D01*
X64500000Y32600000D02*
X69500000Y32600000D01*
X73500000Y20550000D02*
X77350000Y20550000D01*
X77350000Y20550000D02*
X77350000Y32600000D01*
X64500000Y20400000D02*
X64500000Y32600000D01*
X64500000Y20400000D02*
X69500000Y20400000D01*
%TO.C,L1*%
X25450000Y18950000D02*
X12850000Y18950000D01*
X12850000Y28550000D02*
X12850000Y31550000D01*
X12850000Y18950000D02*
X12850000Y21950000D01*
X12850000Y31550000D02*
X25450000Y31550000D01*
X25450000Y21950000D02*
X25450000Y18950000D01*
X25450000Y31550000D02*
X25450000Y28550000D01*
%TO.C,FB2*%
X56627064Y26465000D02*
X56172936Y26465000D01*
X56627064Y27935000D02*
X56172936Y27935000D01*
%TO.C,R16*%
X42795000Y19930000D02*
X42795000Y26470000D01*
X40055000Y26470000D02*
X40385000Y26470000D01*
X42465000Y19930000D02*
X42795000Y19930000D01*
X42795000Y26470000D02*
X42465000Y26470000D01*
X40385000Y19930000D02*
X40055000Y19930000D01*
X40055000Y19930000D02*
X40055000Y26470000D01*
%TO.C,R12*%
X6080000Y60920000D02*
X9920000Y60920000D01*
X6080000Y59080000D02*
X9920000Y59080000D01*
%TO.C,U3*%
X15200000Y12175000D02*
X16150000Y12175000D01*
X15200000Y10675000D02*
X15200000Y12175000D01*
X24650000Y12175000D02*
X24650000Y17300000D01*
X25600000Y10675000D02*
X25600000Y12175000D01*
X16150000Y12175000D02*
X16150000Y13275000D01*
X25600000Y12175000D02*
X24650000Y12175000D01*
%TO.C,R6*%
X26220000Y37080000D02*
X22380000Y37080000D01*
X26220000Y38920000D02*
X22380000Y38920000D01*
%TO.C,R8*%
X26220000Y34120000D02*
X22380000Y34120000D01*
X26220000Y32280000D02*
X22380000Y32280000D01*
%TO.C,C14*%
X63920000Y31320000D02*
X63920000Y28080000D01*
X59080000Y31320000D02*
X63920000Y31320000D01*
X59080000Y28080000D02*
X63920000Y28080000D01*
X59080000Y31320000D02*
X59080000Y28080000D01*
%TO.C,C10*%
X59364887Y36978000D02*
X59364887Y35440000D01*
X60965887Y33360000D02*
X60965887Y32463000D01*
X59804887Y36920000D02*
X59804887Y35440000D01*
X60645887Y33360000D02*
X60645887Y32225000D01*
X60565887Y36624000D02*
X60565887Y35440000D01*
X60365887Y36729000D02*
X60365887Y35440000D01*
X60885887Y33360000D02*
X60885887Y32396000D01*
X59484887Y36969000D02*
X59484887Y35440000D01*
X61845887Y34684000D02*
X61845887Y34116000D01*
X60805887Y33360000D02*
X60805887Y32335000D01*
X60485887Y36668000D02*
X60485887Y35440000D01*
X59644887Y33360000D02*
X59644887Y31850000D01*
X61045887Y36264000D02*
X61045887Y35440000D01*
X60325887Y36748000D02*
X60325887Y35440000D01*
X60445887Y33360000D02*
X60445887Y32110000D01*
X59564887Y33360000D02*
X59564887Y31839000D01*
X61685887Y35315000D02*
X61685887Y33485000D01*
X60445887Y36690000D02*
X60445887Y35440000D01*
X60405887Y36710000D02*
X60405887Y35440000D01*
X61365887Y35900000D02*
X61365887Y32900000D01*
X59244887Y36980000D02*
X59244887Y35440000D01*
X60365887Y33360000D02*
X60365887Y32071000D01*
X60285887Y36765000D02*
X60285887Y35440000D01*
X59684887Y36943000D02*
X59684887Y35440000D01*
X59844887Y36911000D02*
X59844887Y35440000D01*
X60165887Y36814000D02*
X60165887Y35440000D01*
X60765887Y33360000D02*
X60765887Y32305000D01*
X60765887Y36495000D02*
X60765887Y35440000D01*
X61765887Y35077000D02*
X61765887Y33723000D01*
X59764887Y36928000D02*
X59764887Y35440000D01*
X61325887Y35954000D02*
X61325887Y32846000D01*
X60485887Y33360000D02*
X60485887Y32132000D01*
X59364887Y33360000D02*
X59364887Y31822000D01*
X59444887Y36973000D02*
X59444887Y35440000D01*
X59284887Y33360000D02*
X59284887Y31820000D01*
X59884887Y36901000D02*
X59884887Y35440000D01*
X61125887Y33360000D02*
X61125887Y32615000D01*
X59965887Y33360000D02*
X59965887Y31920000D01*
X60725887Y36522000D02*
X60725887Y35440000D01*
X61285887Y36005000D02*
X61285887Y32795000D01*
X61205887Y36099000D02*
X61205887Y35440000D01*
X60405887Y33360000D02*
X60405887Y32090000D01*
X61085887Y33360000D02*
X61085887Y32574000D01*
X59764887Y33360000D02*
X59764887Y31872000D01*
X59724887Y36936000D02*
X59724887Y35440000D01*
X60245887Y33360000D02*
X60245887Y32018000D01*
X59324887Y36979000D02*
X59324887Y35440000D01*
X60525887Y36647000D02*
X60525887Y35440000D01*
X60605887Y33360000D02*
X60605887Y32200000D01*
X60925887Y33360000D02*
X60925887Y32429000D01*
X61565887Y35578000D02*
X61565887Y33222000D01*
X59284887Y36980000D02*
X59284887Y35440000D01*
X60045887Y36855000D02*
X60045887Y35440000D01*
X59924887Y33360000D02*
X59924887Y31909000D01*
X60685887Y36549000D02*
X60685887Y35440000D01*
X59324887Y33360000D02*
X59324887Y31821000D01*
X60205887Y33360000D02*
X60205887Y32002000D01*
X61205887Y33360000D02*
X61205887Y32701000D01*
X59564887Y36961000D02*
X59564887Y35440000D01*
X60925887Y36371000D02*
X60925887Y35440000D01*
X60205887Y36798000D02*
X60205887Y35440000D01*
X61005887Y36301000D02*
X61005887Y35440000D01*
X60565887Y33360000D02*
X60565887Y32176000D01*
X60165887Y33360000D02*
X60165887Y31986000D01*
X61165887Y36143000D02*
X61165887Y35440000D01*
X59244887Y33360000D02*
X59244887Y31820000D01*
X61605887Y35498000D02*
X61605887Y33302000D01*
X61045887Y33360000D02*
X61045887Y32536000D01*
X61445887Y35783000D02*
X61445887Y33017000D01*
X59684887Y33360000D02*
X59684887Y31857000D01*
X60005887Y36868000D02*
X60005887Y35440000D01*
X56440112Y35875000D02*
X56940112Y35875000D01*
X61245887Y33360000D02*
X61245887Y32747000D01*
X59444887Y33360000D02*
X59444887Y31827000D01*
X59924887Y36891000D02*
X59924887Y35440000D01*
X60965887Y36337000D02*
X60965887Y35440000D01*
X59724887Y33360000D02*
X59724887Y31864000D01*
X61085887Y36226000D02*
X61085887Y35440000D01*
X60845887Y36435000D02*
X60845887Y35440000D01*
X60085887Y33360000D02*
X60085887Y31958000D01*
X59524887Y36965000D02*
X59524887Y35440000D01*
X61165887Y33360000D02*
X61165887Y32657000D01*
X61525887Y35651000D02*
X61525887Y33149000D01*
X59844887Y33360000D02*
X59844887Y31889000D01*
X61805887Y34918000D02*
X61805887Y33882000D01*
X60085887Y36842000D02*
X60085887Y35440000D01*
X59804887Y33360000D02*
X59804887Y31880000D01*
X60805887Y36465000D02*
X60805887Y35440000D01*
X59604887Y33360000D02*
X59604887Y31844000D01*
X61485887Y35719000D02*
X61485887Y33081000D01*
X59644887Y36950000D02*
X59644887Y35440000D01*
X59524887Y33360000D02*
X59524887Y31835000D01*
X56690112Y36125000D02*
X56690112Y35625000D01*
X60285887Y33360000D02*
X60285887Y32035000D01*
X60525887Y33360000D02*
X60525887Y32153000D01*
X59404887Y33360000D02*
X59404887Y31824000D01*
X59965887Y36880000D02*
X59965887Y35440000D01*
X59884887Y33360000D02*
X59884887Y31899000D01*
X60045887Y33360000D02*
X60045887Y31945000D01*
X60845887Y33360000D02*
X60845887Y32365000D01*
X60885887Y36404000D02*
X60885887Y35440000D01*
X59484887Y33360000D02*
X59484887Y31831000D01*
X60245887Y36782000D02*
X60245887Y35440000D01*
X60685887Y33360000D02*
X60685887Y32251000D01*
X61125887Y36185000D02*
X61125887Y35440000D01*
X61245887Y36053000D02*
X61245887Y35440000D01*
X60605887Y36600000D02*
X60605887Y35440000D01*
X61645887Y35411000D02*
X61645887Y33389000D01*
X60725887Y33360000D02*
X60725887Y32278000D01*
X60005887Y33360000D02*
X60005887Y31932000D01*
X60125887Y36828000D02*
X60125887Y35440000D01*
X59604887Y36956000D02*
X59604887Y35440000D01*
X61405887Y35843000D02*
X61405887Y32957000D01*
X61005887Y33360000D02*
X61005887Y32499000D01*
X60645887Y36575000D02*
X60645887Y35440000D01*
X61725887Y35205000D02*
X61725887Y33595000D01*
X59404887Y36976000D02*
X59404887Y35440000D01*
X60325887Y33360000D02*
X60325887Y32052000D01*
X60125887Y33360000D02*
X60125887Y31972000D01*
X61864887Y34400000D02*
G75*
G03*
X61864887Y34400000I-2620000J0D01*
G01*
%TO.C,C15*%
X53980000Y24370000D02*
X53980000Y19530000D01*
X57220000Y19530000D02*
X53980000Y19530000D01*
X57220000Y24370000D02*
X57220000Y19530000D01*
X57220000Y24370000D02*
X53980000Y24370000D01*
%TO.C,J1*%
X73500000Y63600000D02*
X77350000Y63600000D01*
X73500000Y51550000D02*
X77350000Y51550000D01*
X77350000Y51550000D02*
X77350000Y63600000D01*
X64500000Y63600000D02*
X69500000Y63600000D01*
X64500000Y51400000D02*
X69500000Y51400000D01*
X64500000Y51400000D02*
X64500000Y63600000D01*
%TO.C,C4*%
X68105888Y71300000D02*
X68105888Y70140000D01*
X69345888Y69384000D02*
X69345888Y68816000D01*
X68105888Y68060000D02*
X68105888Y66900000D01*
X68225888Y68060000D02*
X68225888Y66978000D01*
X68025888Y68060000D02*
X68025888Y66853000D01*
X66824888Y68060000D02*
X66824888Y66521000D01*
X68425888Y71071000D02*
X68425888Y70140000D01*
X68865888Y70600000D02*
X68865888Y67600000D01*
X68385888Y71104000D02*
X68385888Y70140000D01*
X67825888Y71448000D02*
X67825888Y70140000D01*
X68425888Y68060000D02*
X68425888Y67129000D01*
X67304888Y68060000D02*
X67304888Y66580000D01*
X69065888Y70278000D02*
X69065888Y67922000D01*
X67665888Y68060000D02*
X67665888Y66686000D01*
X68625888Y68060000D02*
X68625888Y67315000D01*
X67905888Y71410000D02*
X67905888Y70140000D01*
X66744888Y71680000D02*
X66744888Y70140000D01*
X68985888Y70419000D02*
X68985888Y67781000D01*
X68705888Y70799000D02*
X68705888Y70140000D01*
X67384888Y71601000D02*
X67384888Y70140000D01*
X67144888Y71650000D02*
X67144888Y70140000D01*
X68065888Y71324000D02*
X68065888Y70140000D01*
X68745888Y68060000D02*
X68745888Y67447000D01*
X67104888Y71656000D02*
X67104888Y70140000D01*
X67545888Y71555000D02*
X67545888Y70140000D01*
X67224888Y68060000D02*
X67224888Y66564000D01*
X68025888Y71347000D02*
X68025888Y70140000D01*
X66944888Y71673000D02*
X66944888Y70140000D01*
X66984888Y68060000D02*
X66984888Y66531000D01*
X66784888Y68060000D02*
X66784888Y66520000D01*
X67184888Y68060000D02*
X67184888Y66557000D01*
X66984888Y71669000D02*
X66984888Y70140000D01*
X67064888Y68060000D02*
X67064888Y66539000D01*
X67064888Y71661000D02*
X67064888Y70140000D01*
X68505888Y68060000D02*
X68505888Y67199000D01*
X68065888Y68060000D02*
X68065888Y66876000D01*
X66904888Y68060000D02*
X66904888Y66524000D01*
X67264888Y68060000D02*
X67264888Y66572000D01*
X68185888Y71249000D02*
X68185888Y70140000D01*
X68385888Y68060000D02*
X68385888Y67096000D01*
X67705888Y71498000D02*
X67705888Y70140000D01*
X68345888Y68060000D02*
X68345888Y67065000D01*
X67745888Y71482000D02*
X67745888Y70140000D01*
X69225888Y69905000D02*
X69225888Y68295000D01*
X67505888Y68060000D02*
X67505888Y66632000D01*
X66824888Y71679000D02*
X66824888Y70140000D01*
X67625888Y71528000D02*
X67625888Y70140000D01*
X68345888Y71135000D02*
X68345888Y70140000D01*
X68745888Y70753000D02*
X68745888Y70140000D01*
X69185888Y70015000D02*
X69185888Y68185000D01*
X68145888Y71275000D02*
X68145888Y70140000D01*
X68545888Y68060000D02*
X68545888Y67236000D01*
X69305888Y69618000D02*
X69305888Y68582000D01*
X67705888Y68060000D02*
X67705888Y66702000D01*
X68145888Y68060000D02*
X68145888Y66925000D01*
X68545888Y70964000D02*
X68545888Y70140000D01*
X67625888Y68060000D02*
X67625888Y66672000D01*
X68705888Y68060000D02*
X68705888Y67401000D01*
X68225888Y71222000D02*
X68225888Y70140000D01*
X69025888Y70351000D02*
X69025888Y67849000D01*
X69265888Y69777000D02*
X69265888Y68423000D01*
X67665888Y71514000D02*
X67665888Y70140000D01*
X67585888Y68060000D02*
X67585888Y66658000D01*
X67264888Y71628000D02*
X67264888Y70140000D01*
X67104888Y68060000D02*
X67104888Y66544000D01*
X67825888Y68060000D02*
X67825888Y66752000D01*
X68585888Y68060000D02*
X68585888Y67274000D01*
X68505888Y71001000D02*
X68505888Y70140000D01*
X66864888Y71678000D02*
X66864888Y70140000D01*
X66944888Y68060000D02*
X66944888Y66527000D01*
X67465888Y71580000D02*
X67465888Y70140000D01*
X68905888Y70543000D02*
X68905888Y67657000D01*
X66904888Y71676000D02*
X66904888Y70140000D01*
X67024888Y71665000D02*
X67024888Y70140000D01*
X67384888Y68060000D02*
X67384888Y66599000D01*
X68265888Y68060000D02*
X68265888Y67005000D01*
X67745888Y68060000D02*
X67745888Y66718000D01*
X68465888Y71037000D02*
X68465888Y70140000D01*
X67865888Y71429000D02*
X67865888Y70140000D01*
X63940113Y70575000D02*
X64440113Y70575000D01*
X67505888Y71568000D02*
X67505888Y70140000D01*
X67945888Y68060000D02*
X67945888Y66810000D01*
X67344888Y71611000D02*
X67344888Y70140000D01*
X68665888Y70843000D02*
X68665888Y70140000D01*
X68585888Y70926000D02*
X68585888Y70140000D01*
X67545888Y68060000D02*
X67545888Y66645000D01*
X67184888Y71643000D02*
X67184888Y70140000D01*
X68465888Y68060000D02*
X68465888Y67163000D01*
X67785888Y71465000D02*
X67785888Y70140000D01*
X66784888Y71680000D02*
X66784888Y70140000D01*
X67304888Y71620000D02*
X67304888Y70140000D01*
X67785888Y68060000D02*
X67785888Y66735000D01*
X68185888Y68060000D02*
X68185888Y66951000D01*
X67985888Y68060000D02*
X67985888Y66832000D01*
X69105888Y70198000D02*
X69105888Y68002000D01*
X67144888Y68060000D02*
X67144888Y66550000D01*
X68785888Y70705000D02*
X68785888Y67495000D01*
X67224888Y71636000D02*
X67224888Y70140000D01*
X67465888Y68060000D02*
X67465888Y66620000D01*
X66864888Y68060000D02*
X66864888Y66522000D01*
X68945888Y70483000D02*
X68945888Y67717000D01*
X66744888Y68060000D02*
X66744888Y66520000D01*
X64190113Y70825000D02*
X64190113Y70325000D01*
X68265888Y71195000D02*
X68265888Y70140000D01*
X68305888Y68060000D02*
X68305888Y67035000D01*
X67344888Y68060000D02*
X67344888Y66589000D01*
X68625888Y70885000D02*
X68625888Y70140000D01*
X67865888Y68060000D02*
X67865888Y66771000D01*
X67024888Y68060000D02*
X67024888Y66535000D01*
X67905888Y68060000D02*
X67905888Y66790000D01*
X68305888Y71165000D02*
X68305888Y70140000D01*
X68665888Y68060000D02*
X68665888Y67357000D01*
X67424888Y71591000D02*
X67424888Y70140000D01*
X69145888Y70111000D02*
X69145888Y68089000D01*
X67985888Y71368000D02*
X67985888Y70140000D01*
X67424888Y68060000D02*
X67424888Y66609000D01*
X67945888Y71390000D02*
X67945888Y70140000D01*
X68825888Y70654000D02*
X68825888Y67546000D01*
X67585888Y71542000D02*
X67585888Y70140000D01*
X69364888Y69100000D02*
G75*
G03*
X69364888Y69100000I-2620000J0D01*
G01*
%TO.C,U2*%
X45000000Y29894689D02*
X45318198Y30212887D01*
X40212887Y34681802D02*
X39894689Y35000000D01*
X45000000Y40105311D02*
X44681802Y39787113D01*
X44681802Y30212887D02*
X45000000Y29894689D01*
X39894689Y35000000D02*
X40212887Y35318198D01*
X49787113Y35318198D02*
X50105311Y35000000D01*
X45318198Y39787113D02*
X45000000Y40105311D01*
X50105311Y35000000D02*
X49787113Y34681802D01*
X45318198Y30212887D02*
X46230366Y29300719D01*
%TO.C,C12*%
X57480000Y21280000D02*
X60720000Y21280000D01*
X57480000Y21280000D02*
X57480000Y26120000D01*
X57480000Y26120000D02*
X60720000Y26120000D01*
X60720000Y21280000D02*
X60720000Y26120000D01*
%TO.C,C11*%
X4680000Y54920000D02*
X4680000Y50880000D01*
X4680000Y54920000D02*
X9520000Y54920000D01*
X9520000Y54920000D02*
X9520000Y50880000D01*
X4680000Y50880000D02*
X9520000Y50880000D01*
%TO.C,C16*%
X60980000Y26120000D02*
X60980000Y21280000D01*
X64220000Y26120000D02*
X60980000Y26120000D01*
X64220000Y26120000D02*
X64220000Y21280000D01*
X64220000Y21280000D02*
X60980000Y21280000D01*
%TO.C,R1*%
X37920000Y32580000D02*
X37920000Y36420000D01*
X36080000Y32580000D02*
X36080000Y36420000D01*
%TO.C,R2*%
X33920000Y29280000D02*
X30080000Y29280000D01*
X33920000Y31120000D02*
X30080000Y31120000D01*
%TO.C,J4*%
X56000000Y450000D02*
X58000000Y450000D01*
X56000000Y18750000D02*
X58000000Y18750000D01*
X68000000Y18750000D02*
X66000000Y18750000D01*
X56000000Y18750000D02*
X56000000Y16750000D01*
X56000000Y450000D02*
X56000000Y2450000D01*
X68000000Y450000D02*
X66000000Y450000D01*
X68000000Y18750000D02*
X68000000Y16750000D01*
X59500000Y18750000D02*
X59200000Y19350000D01*
X59800000Y19350000D02*
X59500000Y18750000D01*
X68000000Y450000D02*
X68000000Y2450000D01*
X59200000Y19350000D02*
X59800000Y19350000D01*
%TO.C,R9*%
X9920000Y63920000D02*
X6080000Y63920000D01*
X9920000Y62080000D02*
X6080000Y62080000D01*
%TO.C,R15*%
X50780000Y19930000D02*
X51110000Y19930000D01*
X53520000Y26470000D02*
X53520000Y19930000D01*
X53190000Y26470000D02*
X53520000Y26470000D01*
X50780000Y26470000D02*
X50780000Y19930000D01*
X51110000Y26470000D02*
X50780000Y26470000D01*
X53520000Y19930000D02*
X53190000Y19930000D01*
%TO.C,J2*%
X77350000Y36050000D02*
X77350000Y48100000D01*
X64500000Y48100000D02*
X69500000Y48100000D01*
X73500000Y48100000D02*
X77350000Y48100000D01*
X64500000Y35900000D02*
X69500000Y35900000D01*
X64500000Y35900000D02*
X64500000Y48100000D01*
X73500000Y36050000D02*
X77350000Y36050000D01*
%TO.C,R7*%
X26220000Y34680000D02*
X22380000Y34680000D01*
X26220000Y36520000D02*
X22380000Y36520000D01*
%TO.C,U1*%
X57590000Y47630000D02*
X57590000Y44970000D01*
X57590000Y47630000D02*
X11810000Y47630000D01*
X57590000Y73030000D02*
X57590000Y70370000D01*
X57590000Y73030000D02*
X11810000Y73030000D01*
X60190000Y73030000D02*
X60190000Y71700000D01*
X11810000Y73030000D02*
X11810000Y70370000D01*
X11810000Y47630000D02*
X11810000Y44970000D01*
X58860000Y73030000D02*
X60190000Y73030000D01*
X60190000Y47630000D02*
X60190000Y46300000D01*
X57590000Y70370000D02*
X11810000Y70370000D01*
X57590000Y44970000D02*
X11810000Y44970000D01*
X58860000Y47630000D02*
X60190000Y47630000D01*
%TO.C,R11*%
X50530000Y28630000D02*
X57070000Y28630000D01*
X50530000Y31370000D02*
X57070000Y31370000D01*
X50530000Y31040000D02*
X50530000Y31370000D01*
X57070000Y31370000D02*
X57070000Y31040000D01*
X57070000Y28630000D02*
X57070000Y28960000D01*
X50530000Y28960000D02*
X50530000Y28630000D01*
%TO.C,C2*%
X35620000Y37920000D02*
X35620000Y33080000D01*
X32380000Y37920000D02*
X32380000Y33080000D01*
X35620000Y37920000D02*
X32380000Y37920000D01*
X35620000Y33080000D02*
X32380000Y33080000D01*
%TO.C,R5*%
X26220000Y39480000D02*
X22380000Y39480000D01*
X26220000Y41320000D02*
X22380000Y41320000D01*
%TO.C,R3*%
X30080000Y26880000D02*
X33920000Y26880000D01*
X30080000Y28720000D02*
X33920000Y28720000D01*
%TO.C,C17*%
X33820000Y18380000D02*
X33820000Y21620000D01*
X33820000Y18380000D02*
X28980000Y18380000D01*
X28980000Y18380000D02*
X28980000Y21620000D01*
X33820000Y21620000D02*
X28980000Y21620000D01*
%TO.C,C7*%
X4580000Y48920000D02*
X4580000Y44880000D01*
X4580000Y48920000D02*
X9420000Y48920000D01*
X9420000Y48920000D02*
X9420000Y44880000D01*
X4580000Y44880000D02*
X9420000Y44880000D01*
%TO.C,Y1*%
X30865000Y43525000D02*
X37115000Y43525000D01*
X30865000Y38475000D02*
X37115000Y38475000D01*
X37115000Y38475000D02*
G75*
G03*
X37115000Y43525000I0J2525000D01*
G01*
X30865000Y43525000D02*
G75*
G03*
X30865000Y38475000I0J-2525000D01*
G01*
%TO.C,R14*%
X39220000Y19930000D02*
X38890000Y19930000D01*
X38890000Y26470000D02*
X39220000Y26470000D01*
X36810000Y26470000D02*
X36480000Y26470000D01*
X39220000Y26470000D02*
X39220000Y19930000D01*
X36480000Y26470000D02*
X36480000Y19930000D01*
X36480000Y19930000D02*
X36810000Y19930000D01*
%TO.C,R17*%
X43960000Y26470000D02*
X43630000Y26470000D01*
X46370000Y26470000D02*
X46370000Y19930000D01*
X43630000Y19930000D02*
X43960000Y19930000D01*
X46370000Y19930000D02*
X46040000Y19930000D01*
X43630000Y26470000D02*
X43630000Y19930000D01*
X46040000Y26470000D02*
X46370000Y26470000D01*
%TO.C,C13*%
X73507620Y17201000D02*
X73507620Y15040000D01*
X74268620Y12960000D02*
X74268620Y10998000D01*
X74988620Y12960000D02*
X74988620Y11393000D01*
X73587620Y12960000D02*
X73587620Y10811000D01*
X74748620Y12960000D02*
X74748620Y11234000D01*
X74428620Y16934000D02*
X74428620Y15040000D01*
X74148620Y17047000D02*
X74148620Y15040000D01*
X73547620Y17195000D02*
X73547620Y15040000D01*
X74268620Y17002000D02*
X74268620Y15040000D01*
X74308620Y12960000D02*
X74308620Y11014000D01*
X73067620Y17230000D02*
X73067620Y10770000D01*
X75748620Y15834000D02*
X75748620Y12166000D01*
X75308620Y16343000D02*
X75308620Y15040000D01*
X75148620Y12960000D02*
X75148620Y11516000D01*
X75068620Y16548000D02*
X75068620Y15040000D01*
X73988620Y17098000D02*
X73988620Y15040000D01*
X73747620Y17159000D02*
X73747620Y15040000D01*
X76068620Y15262000D02*
X76068620Y12738000D01*
X74388620Y12960000D02*
X74388620Y11048000D01*
X73747620Y12960000D02*
X73747620Y10841000D01*
X74188620Y12960000D02*
X74188620Y10967000D01*
X73547620Y12960000D02*
X73547620Y10805000D01*
X74908620Y16664000D02*
X74908620Y15040000D01*
X75028620Y16578000D02*
X75028620Y15040000D01*
X74388620Y16952000D02*
X74388620Y15040000D01*
X73868620Y12960000D02*
X73868620Y10869000D01*
X69882379Y16154000D02*
X69882379Y15524000D01*
X75708620Y15890000D02*
X75708620Y12110000D01*
X73587620Y17189000D02*
X73587620Y15040000D01*
X74308620Y16986000D02*
X74308620Y15040000D01*
X74468620Y16916000D02*
X74468620Y15040000D01*
X73147620Y17230000D02*
X73147620Y10770000D01*
X73187620Y17228000D02*
X73187620Y10772000D01*
X74948620Y16636000D02*
X74948620Y15040000D01*
X73988620Y12960000D02*
X73988620Y10902000D01*
X73707620Y17167000D02*
X73707620Y15040000D01*
X74548620Y12960000D02*
X74548620Y11124000D01*
X73387620Y12960000D02*
X73387620Y10785000D01*
X73948620Y12960000D02*
X73948620Y10890000D01*
X73828620Y17141000D02*
X73828620Y15040000D01*
X73307620Y12960000D02*
X73307620Y10778000D01*
X76228620Y14802000D02*
X76228620Y13198000D01*
X74828620Y12960000D02*
X74828620Y11284000D01*
X75788620Y15776000D02*
X75788620Y12224000D01*
X73788620Y17150000D02*
X73788620Y15040000D01*
X75388620Y16265000D02*
X75388620Y11735000D01*
X73467620Y12960000D02*
X73467620Y10794000D01*
X75068620Y12960000D02*
X75068620Y11452000D01*
X75988620Y15432000D02*
X75988620Y12568000D01*
X73788620Y12960000D02*
X73788620Y10850000D01*
X75908620Y15581000D02*
X75908620Y12419000D01*
X75028620Y12960000D02*
X75028620Y11422000D01*
X75628620Y15995000D02*
X75628620Y12005000D01*
X74708620Y12960000D02*
X74708620Y11210000D01*
X75228620Y16416000D02*
X75228620Y15040000D01*
X73467620Y17206000D02*
X73467620Y15040000D01*
X73667620Y17175000D02*
X73667620Y15040000D01*
X74868620Y12960000D02*
X74868620Y11310000D01*
X74108620Y12960000D02*
X74108620Y10939000D01*
X74788620Y16742000D02*
X74788620Y15040000D01*
X76308620Y14402000D02*
X76308620Y13598000D01*
X76188620Y14940000D02*
X76188620Y13060000D01*
X74428620Y12960000D02*
X74428620Y11066000D01*
X75468620Y16182000D02*
X75468620Y11818000D01*
X75268620Y12960000D02*
X75268620Y11620000D01*
X75588620Y16044000D02*
X75588620Y11956000D01*
X74348620Y16970000D02*
X74348620Y15040000D01*
X73507620Y12960000D02*
X73507620Y10799000D01*
X74948620Y12960000D02*
X74948620Y11364000D01*
X75548620Y16092000D02*
X75548620Y11908000D01*
X73908620Y12960000D02*
X73908620Y10879000D01*
X73868620Y17131000D02*
X73868620Y15040000D01*
X74748620Y16766000D02*
X74748620Y15040000D01*
X73707620Y12960000D02*
X73707620Y10833000D01*
X75108620Y12960000D02*
X75108620Y11484000D01*
X73667620Y12960000D02*
X73667620Y10825000D01*
X75428620Y16224000D02*
X75428620Y11776000D01*
X73828620Y12960000D02*
X73828620Y10859000D01*
X75308620Y12960000D02*
X75308620Y11657000D01*
X75948620Y15509000D02*
X75948620Y12491000D01*
X74508620Y16896000D02*
X74508620Y15040000D01*
X73387620Y17215000D02*
X73387620Y15040000D01*
X74908620Y12960000D02*
X74908620Y11336000D01*
X74228620Y12960000D02*
X74228620Y10982000D01*
X74828620Y16716000D02*
X74828620Y15040000D01*
X74668620Y12960000D02*
X74668620Y11188000D01*
X73427620Y17211000D02*
X73427620Y15040000D01*
X75348620Y16305000D02*
X75348620Y15040000D01*
X74348620Y12960000D02*
X74348620Y11030000D01*
X74988620Y16607000D02*
X74988620Y15040000D01*
X75188620Y16450000D02*
X75188620Y15040000D01*
X74668620Y16812000D02*
X74668620Y15040000D01*
X75508620Y16137000D02*
X75508620Y11863000D01*
X75828620Y15714000D02*
X75828620Y12286000D01*
X75188620Y12960000D02*
X75188620Y11550000D01*
X74588620Y12960000D02*
X74588620Y11144000D01*
X74028620Y12960000D02*
X74028620Y10914000D01*
X75268620Y16380000D02*
X75268620Y15040000D01*
X75668620Y15944000D02*
X75668620Y12056000D01*
X74188620Y17033000D02*
X74188620Y15040000D01*
X74628620Y16834000D02*
X74628620Y15040000D01*
X74508620Y12960000D02*
X74508620Y11104000D01*
X74868620Y16690000D02*
X74868620Y15040000D01*
X76108620Y15165000D02*
X76108620Y12835000D01*
X76028620Y15350000D02*
X76028620Y12650000D01*
X75108620Y16516000D02*
X75108620Y15040000D01*
X76148620Y15059000D02*
X76148620Y12941000D01*
X74588620Y16856000D02*
X74588620Y15040000D01*
X73227620Y17227000D02*
X73227620Y10773000D01*
X76268620Y14633000D02*
X76268620Y13367000D01*
X74468620Y12960000D02*
X74468620Y11084000D01*
X74068620Y12960000D02*
X74068620Y10926000D01*
X74148620Y12960000D02*
X74148620Y10953000D01*
X75348620Y12960000D02*
X75348620Y11695000D01*
X73267620Y17224000D02*
X73267620Y10776000D01*
X74028620Y17086000D02*
X74028620Y15040000D01*
X73627620Y17182000D02*
X73627620Y15040000D01*
X75148620Y16484000D02*
X75148620Y15040000D01*
X74628620Y12960000D02*
X74628620Y11166000D01*
X74548620Y16876000D02*
X74548620Y15040000D01*
X74068620Y17074000D02*
X74068620Y15040000D01*
X73908620Y17121000D02*
X73908620Y15040000D01*
X73627620Y12960000D02*
X73627620Y10818000D01*
X75868620Y15650000D02*
X75868620Y12350000D01*
X73107620Y17230000D02*
X73107620Y10770000D01*
X73427620Y12960000D02*
X73427620Y10789000D01*
X73307620Y17222000D02*
X73307620Y15040000D01*
X74788620Y12960000D02*
X74788620Y11258000D01*
X69567379Y15839000D02*
X70197379Y15839000D01*
X74708620Y16790000D02*
X74708620Y15040000D01*
X75228620Y12960000D02*
X75228620Y11584000D01*
X74108620Y17061000D02*
X74108620Y15040000D01*
X73347620Y17218000D02*
X73347620Y15040000D01*
X73948620Y17110000D02*
X73948620Y15040000D01*
X74228620Y17018000D02*
X74228620Y15040000D01*
X73347620Y12960000D02*
X73347620Y10782000D01*
X76337620Y14000000D02*
G75*
G03*
X76337620Y14000000I-3270000J0D01*
G01*
%TO.C,R13*%
X49945000Y26470000D02*
X49945000Y19930000D01*
X47205000Y19930000D02*
X47535000Y19930000D01*
X49945000Y19930000D02*
X49615000Y19930000D01*
X47535000Y26470000D02*
X47205000Y26470000D01*
X47205000Y26470000D02*
X47205000Y19930000D01*
X49615000Y26470000D02*
X49945000Y26470000D01*
%TO.C,D1*%
X33850000Y12970000D02*
X33850000Y14470000D01*
X33850000Y14470000D02*
X33580000Y14470000D01*
X26950000Y12970000D02*
X26950000Y14470000D01*
X27220000Y14470000D02*
X27220000Y15570000D01*
X33580000Y14470000D02*
X33580000Y17300000D01*
X26950000Y14470000D02*
X27220000Y14470000D01*
%TD*%
M02*
